G04 #@! TF.GenerationSoftware,KiCad,Pcbnew,(5.1.4)-1*
G04 #@! TF.CreationDate,2021-01-27T11:02:31-06:00*
G04 #@! TF.ProjectId,ULPSoilMonitor,554c5053-6f69-46c4-9d6f-6e69746f722e,v2.2*
G04 #@! TF.SameCoordinates,Original*
G04 #@! TF.FileFunction,Soldermask,Bot*
G04 #@! TF.FilePolarity,Negative*
%FSLAX46Y46*%
G04 Gerber Fmt 4.6, Leading zero omitted, Abs format (unit mm)*
G04 Created by KiCad (PCBNEW (5.1.4)-1) date 2021-01-27 11:02:31*
%MOMM*%
%LPD*%
G04 APERTURE LIST*
%ADD10C,0.100000*%
G04 APERTURE END LIST*
D10*
G36*
X43251000Y-103951000D02*
G01*
X39649000Y-103951000D01*
X39649000Y-100349000D01*
X43251000Y-100349000D01*
X43251000Y-103951000D01*
X43251000Y-103951000D01*
G37*
G36*
X53751000Y-103951000D02*
G01*
X50149000Y-103951000D01*
X50149000Y-100349000D01*
X53751000Y-100349000D01*
X53751000Y-103951000D01*
X53751000Y-103951000D01*
G37*
G36*
X64451000Y-103951000D02*
G01*
X60849000Y-103951000D01*
X60849000Y-100349000D01*
X64451000Y-100349000D01*
X64451000Y-103951000D01*
X64451000Y-103951000D01*
G37*
G36*
X49610443Y-97585519D02*
G01*
X49676627Y-97592037D01*
X49846466Y-97643557D01*
X50002991Y-97727222D01*
X50038729Y-97756552D01*
X50140186Y-97839814D01*
X50223448Y-97941271D01*
X50252778Y-97977009D01*
X50336443Y-98133534D01*
X50387963Y-98303373D01*
X50405359Y-98480000D01*
X50387963Y-98656627D01*
X50336443Y-98826466D01*
X50252778Y-98982991D01*
X50223448Y-99018729D01*
X50140186Y-99120186D01*
X50038729Y-99203448D01*
X50002991Y-99232778D01*
X49846466Y-99316443D01*
X49676627Y-99367963D01*
X49610442Y-99374482D01*
X49544260Y-99381000D01*
X49455740Y-99381000D01*
X49389558Y-99374482D01*
X49323373Y-99367963D01*
X49153534Y-99316443D01*
X48997009Y-99232778D01*
X48961271Y-99203448D01*
X48859814Y-99120186D01*
X48776552Y-99018729D01*
X48747222Y-98982991D01*
X48663557Y-98826466D01*
X48612037Y-98656627D01*
X48594641Y-98480000D01*
X48612037Y-98303373D01*
X48663557Y-98133534D01*
X48747222Y-97977009D01*
X48776552Y-97941271D01*
X48859814Y-97839814D01*
X48961271Y-97756552D01*
X48997009Y-97727222D01*
X49153534Y-97643557D01*
X49323373Y-97592037D01*
X49389557Y-97585519D01*
X49455740Y-97579000D01*
X49544260Y-97579000D01*
X49610443Y-97585519D01*
X49610443Y-97585519D01*
G37*
G36*
X55501000Y-99351000D02*
G01*
X53699000Y-99351000D01*
X53699000Y-97549000D01*
X55501000Y-97549000D01*
X55501000Y-99351000D01*
X55501000Y-99351000D01*
G37*
G36*
X49610442Y-95045518D02*
G01*
X49676627Y-95052037D01*
X49846466Y-95103557D01*
X50002991Y-95187222D01*
X50038729Y-95216552D01*
X50140186Y-95299814D01*
X50223448Y-95401271D01*
X50252778Y-95437009D01*
X50252779Y-95437011D01*
X50320407Y-95563532D01*
X50336443Y-95593534D01*
X50387963Y-95763373D01*
X50405359Y-95940000D01*
X50387963Y-96116627D01*
X50336443Y-96286466D01*
X50252778Y-96442991D01*
X50223448Y-96478729D01*
X50140186Y-96580186D01*
X50039546Y-96662778D01*
X50002991Y-96692778D01*
X50002989Y-96692779D01*
X49902594Y-96746442D01*
X49846466Y-96776443D01*
X49676627Y-96827963D01*
X49610442Y-96834482D01*
X49544260Y-96841000D01*
X49455740Y-96841000D01*
X49389558Y-96834482D01*
X49323373Y-96827963D01*
X49153534Y-96776443D01*
X49097407Y-96746442D01*
X48997011Y-96692779D01*
X48997009Y-96692778D01*
X48960454Y-96662778D01*
X48859814Y-96580186D01*
X48776552Y-96478729D01*
X48747222Y-96442991D01*
X48663557Y-96286466D01*
X48612037Y-96116627D01*
X48594641Y-95940000D01*
X48612037Y-95763373D01*
X48663557Y-95593534D01*
X48679594Y-95563532D01*
X48747221Y-95437011D01*
X48747222Y-95437009D01*
X48776552Y-95401271D01*
X48859814Y-95299814D01*
X48961271Y-95216552D01*
X48997009Y-95187222D01*
X49153534Y-95103557D01*
X49323373Y-95052037D01*
X49389558Y-95045518D01*
X49455740Y-95039000D01*
X49544260Y-95039000D01*
X49610442Y-95045518D01*
X49610442Y-95045518D01*
G37*
G36*
X54710443Y-95015519D02*
G01*
X54776627Y-95022037D01*
X54946466Y-95073557D01*
X54946468Y-95073558D01*
X55024729Y-95115390D01*
X55102991Y-95157222D01*
X55138729Y-95186552D01*
X55240186Y-95269814D01*
X55323448Y-95371271D01*
X55352778Y-95407009D01*
X55436443Y-95563534D01*
X55487963Y-95733373D01*
X55505359Y-95910000D01*
X55487963Y-96086627D01*
X55436443Y-96256466D01*
X55436442Y-96256468D01*
X55394610Y-96334729D01*
X55352778Y-96412991D01*
X55328159Y-96442989D01*
X55240186Y-96550186D01*
X55138729Y-96633448D01*
X55102991Y-96662778D01*
X54946466Y-96746443D01*
X54776627Y-96797963D01*
X54710442Y-96804482D01*
X54644260Y-96811000D01*
X54555740Y-96811000D01*
X54489558Y-96804482D01*
X54423373Y-96797963D01*
X54253534Y-96746443D01*
X54097009Y-96662778D01*
X54061271Y-96633448D01*
X53959814Y-96550186D01*
X53871841Y-96442989D01*
X53847222Y-96412991D01*
X53805389Y-96334728D01*
X53763558Y-96256468D01*
X53763557Y-96256466D01*
X53712037Y-96086627D01*
X53694641Y-95910000D01*
X53712037Y-95733373D01*
X53763557Y-95563534D01*
X53847222Y-95407009D01*
X53876552Y-95371271D01*
X53959814Y-95269814D01*
X54061271Y-95186552D01*
X54097009Y-95157222D01*
X54175271Y-95115390D01*
X54253532Y-95073558D01*
X54253534Y-95073557D01*
X54423373Y-95022037D01*
X54489557Y-95015519D01*
X54555740Y-95009000D01*
X54644260Y-95009000D01*
X54710443Y-95015519D01*
X54710443Y-95015519D01*
G37*
G36*
X50401000Y-94301000D02*
G01*
X48599000Y-94301000D01*
X48599000Y-92499000D01*
X50401000Y-92499000D01*
X50401000Y-94301000D01*
X50401000Y-94301000D01*
G37*
G36*
X54710442Y-92475518D02*
G01*
X54776627Y-92482037D01*
X54946466Y-92533557D01*
X55102991Y-92617222D01*
X55138729Y-92646552D01*
X55240186Y-92729814D01*
X55323448Y-92831271D01*
X55352778Y-92867009D01*
X55436443Y-93023534D01*
X55487963Y-93193373D01*
X55505359Y-93370000D01*
X55487963Y-93546627D01*
X55436443Y-93716466D01*
X55352778Y-93872991D01*
X55323448Y-93908729D01*
X55240186Y-94010186D01*
X55138729Y-94093448D01*
X55102991Y-94122778D01*
X54946466Y-94206443D01*
X54776627Y-94257963D01*
X54710443Y-94264481D01*
X54644260Y-94271000D01*
X54555740Y-94271000D01*
X54489557Y-94264481D01*
X54423373Y-94257963D01*
X54253534Y-94206443D01*
X54097009Y-94122778D01*
X54061271Y-94093448D01*
X53959814Y-94010186D01*
X53876552Y-93908729D01*
X53847222Y-93872991D01*
X53763557Y-93716466D01*
X53712037Y-93546627D01*
X53694641Y-93370000D01*
X53712037Y-93193373D01*
X53763557Y-93023534D01*
X53847222Y-92867009D01*
X53876552Y-92831271D01*
X53959814Y-92729814D01*
X54061271Y-92646552D01*
X54097009Y-92617222D01*
X54253534Y-92533557D01*
X54423373Y-92482037D01*
X54489558Y-92475518D01*
X54555740Y-92469000D01*
X54644260Y-92469000D01*
X54710442Y-92475518D01*
X54710442Y-92475518D01*
G37*
G36*
X49610442Y-87485518D02*
G01*
X49676627Y-87492037D01*
X49846466Y-87543557D01*
X50002991Y-87627222D01*
X50038729Y-87656552D01*
X50140186Y-87739814D01*
X50223448Y-87841271D01*
X50252778Y-87877009D01*
X50336443Y-88033534D01*
X50387963Y-88203373D01*
X50405359Y-88380000D01*
X50387963Y-88556627D01*
X50336443Y-88726466D01*
X50252778Y-88882991D01*
X50223448Y-88918729D01*
X50140186Y-89020186D01*
X50038729Y-89103448D01*
X50002991Y-89132778D01*
X49846466Y-89216443D01*
X49676627Y-89267963D01*
X49610442Y-89274482D01*
X49544260Y-89281000D01*
X49455740Y-89281000D01*
X49389558Y-89274482D01*
X49323373Y-89267963D01*
X49153534Y-89216443D01*
X48997009Y-89132778D01*
X48961271Y-89103448D01*
X48859814Y-89020186D01*
X48776552Y-88918729D01*
X48747222Y-88882991D01*
X48663557Y-88726466D01*
X48612037Y-88556627D01*
X48594641Y-88380000D01*
X48612037Y-88203373D01*
X48663557Y-88033534D01*
X48747222Y-87877009D01*
X48776552Y-87841271D01*
X48859814Y-87739814D01*
X48961271Y-87656552D01*
X48997009Y-87627222D01*
X49153534Y-87543557D01*
X49323373Y-87492037D01*
X49389558Y-87485518D01*
X49455740Y-87479000D01*
X49544260Y-87479000D01*
X49610442Y-87485518D01*
X49610442Y-87485518D01*
G37*
G36*
X55501000Y-89251800D02*
G01*
X53699000Y-89251800D01*
X53699000Y-87449800D01*
X55501000Y-87449800D01*
X55501000Y-89251800D01*
X55501000Y-89251800D01*
G37*
G36*
X49610442Y-84945518D02*
G01*
X49676627Y-84952037D01*
X49846466Y-85003557D01*
X50002991Y-85087222D01*
X50038729Y-85116552D01*
X50140186Y-85199814D01*
X50223448Y-85301271D01*
X50252778Y-85337009D01*
X50336443Y-85493534D01*
X50387963Y-85663373D01*
X50405359Y-85840000D01*
X50387963Y-86016627D01*
X50336443Y-86186466D01*
X50252778Y-86342991D01*
X50223448Y-86378729D01*
X50140186Y-86480186D01*
X50038729Y-86563448D01*
X50002991Y-86592778D01*
X49846466Y-86676443D01*
X49676627Y-86727963D01*
X49610443Y-86734481D01*
X49544260Y-86741000D01*
X49455740Y-86741000D01*
X49389557Y-86734481D01*
X49323373Y-86727963D01*
X49153534Y-86676443D01*
X48997009Y-86592778D01*
X48961271Y-86563448D01*
X48859814Y-86480186D01*
X48776552Y-86378729D01*
X48747222Y-86342991D01*
X48663557Y-86186466D01*
X48612037Y-86016627D01*
X48594641Y-85840000D01*
X48612037Y-85663373D01*
X48663557Y-85493534D01*
X48747222Y-85337009D01*
X48776552Y-85301271D01*
X48859814Y-85199814D01*
X48961271Y-85116552D01*
X48997009Y-85087222D01*
X49153534Y-85003557D01*
X49323373Y-84952037D01*
X49389558Y-84945518D01*
X49455740Y-84939000D01*
X49544260Y-84939000D01*
X49610442Y-84945518D01*
X49610442Y-84945518D01*
G37*
G36*
X54710443Y-84916319D02*
G01*
X54776627Y-84922837D01*
X54946466Y-84974357D01*
X55102991Y-85058022D01*
X55138570Y-85087221D01*
X55240186Y-85170614D01*
X55323448Y-85272071D01*
X55352778Y-85307809D01*
X55436443Y-85464334D01*
X55487963Y-85634173D01*
X55505359Y-85810800D01*
X55487963Y-85987427D01*
X55436443Y-86157266D01*
X55352778Y-86313791D01*
X55328816Y-86342989D01*
X55240186Y-86450986D01*
X55138729Y-86534248D01*
X55102991Y-86563578D01*
X54946466Y-86647243D01*
X54776627Y-86698763D01*
X54710442Y-86705282D01*
X54644260Y-86711800D01*
X54555740Y-86711800D01*
X54489558Y-86705282D01*
X54423373Y-86698763D01*
X54253534Y-86647243D01*
X54097009Y-86563578D01*
X54061271Y-86534248D01*
X53959814Y-86450986D01*
X53871184Y-86342989D01*
X53847222Y-86313791D01*
X53763557Y-86157266D01*
X53712037Y-85987427D01*
X53694641Y-85810800D01*
X53712037Y-85634173D01*
X53763557Y-85464334D01*
X53847222Y-85307809D01*
X53876552Y-85272071D01*
X53959814Y-85170614D01*
X54061430Y-85087221D01*
X54097009Y-85058022D01*
X54253534Y-84974357D01*
X54423373Y-84922837D01*
X54489557Y-84916319D01*
X54555740Y-84909800D01*
X54644260Y-84909800D01*
X54710443Y-84916319D01*
X54710443Y-84916319D01*
G37*
G36*
X50401000Y-84201000D02*
G01*
X48599000Y-84201000D01*
X48599000Y-82399000D01*
X50401000Y-82399000D01*
X50401000Y-84201000D01*
X50401000Y-84201000D01*
G37*
G36*
X54710442Y-82376318D02*
G01*
X54776627Y-82382837D01*
X54946466Y-82434357D01*
X55102991Y-82518022D01*
X55138729Y-82547352D01*
X55240186Y-82630614D01*
X55323448Y-82732071D01*
X55352778Y-82767809D01*
X55436443Y-82924334D01*
X55487963Y-83094173D01*
X55505359Y-83270800D01*
X55487963Y-83447427D01*
X55436443Y-83617266D01*
X55352778Y-83773791D01*
X55323448Y-83809529D01*
X55240186Y-83910986D01*
X55138729Y-83994248D01*
X55102991Y-84023578D01*
X54946466Y-84107243D01*
X54776627Y-84158763D01*
X54710443Y-84165281D01*
X54644260Y-84171800D01*
X54555740Y-84171800D01*
X54489557Y-84165281D01*
X54423373Y-84158763D01*
X54253534Y-84107243D01*
X54097009Y-84023578D01*
X54061271Y-83994248D01*
X53959814Y-83910986D01*
X53876552Y-83809529D01*
X53847222Y-83773791D01*
X53763557Y-83617266D01*
X53712037Y-83447427D01*
X53694641Y-83270800D01*
X53712037Y-83094173D01*
X53763557Y-82924334D01*
X53847222Y-82767809D01*
X53876552Y-82732071D01*
X53959814Y-82630614D01*
X54061271Y-82547352D01*
X54097009Y-82518022D01*
X54253534Y-82434357D01*
X54423373Y-82382837D01*
X54489558Y-82376318D01*
X54555740Y-82369800D01*
X54644260Y-82369800D01*
X54710442Y-82376318D01*
X54710442Y-82376318D01*
G37*
G36*
X49610443Y-77385519D02*
G01*
X49676627Y-77392037D01*
X49846466Y-77443557D01*
X50002991Y-77527222D01*
X50038729Y-77556552D01*
X50140186Y-77639814D01*
X50223448Y-77741271D01*
X50252778Y-77777009D01*
X50336443Y-77933534D01*
X50387963Y-78103373D01*
X50405359Y-78280000D01*
X50387963Y-78456627D01*
X50336443Y-78626466D01*
X50252778Y-78782991D01*
X50223448Y-78818729D01*
X50140186Y-78920186D01*
X50038729Y-79003448D01*
X50002991Y-79032778D01*
X49846466Y-79116443D01*
X49676627Y-79167963D01*
X49610442Y-79174482D01*
X49544260Y-79181000D01*
X49455740Y-79181000D01*
X49389558Y-79174482D01*
X49323373Y-79167963D01*
X49153534Y-79116443D01*
X48997009Y-79032778D01*
X48961271Y-79003448D01*
X48859814Y-78920186D01*
X48776552Y-78818729D01*
X48747222Y-78782991D01*
X48663557Y-78626466D01*
X48612037Y-78456627D01*
X48594641Y-78280000D01*
X48612037Y-78103373D01*
X48663557Y-77933534D01*
X48747222Y-77777009D01*
X48776552Y-77741271D01*
X48859814Y-77639814D01*
X48961271Y-77556552D01*
X48997009Y-77527222D01*
X49153534Y-77443557D01*
X49323373Y-77392037D01*
X49389557Y-77385519D01*
X49455740Y-77379000D01*
X49544260Y-77379000D01*
X49610443Y-77385519D01*
X49610443Y-77385519D01*
G37*
G36*
X55501000Y-79151000D02*
G01*
X53699000Y-79151000D01*
X53699000Y-77349000D01*
X55501000Y-77349000D01*
X55501000Y-79151000D01*
X55501000Y-79151000D01*
G37*
G36*
X49610443Y-74845519D02*
G01*
X49676627Y-74852037D01*
X49846466Y-74903557D01*
X50002991Y-74987222D01*
X50038729Y-75016552D01*
X50140186Y-75099814D01*
X50223448Y-75201271D01*
X50252778Y-75237009D01*
X50252779Y-75237011D01*
X50320407Y-75363532D01*
X50336443Y-75393534D01*
X50387963Y-75563373D01*
X50405359Y-75740000D01*
X50387963Y-75916627D01*
X50336443Y-76086466D01*
X50252778Y-76242991D01*
X50223448Y-76278729D01*
X50140186Y-76380186D01*
X50039546Y-76462778D01*
X50002991Y-76492778D01*
X50002989Y-76492779D01*
X49902594Y-76546442D01*
X49846466Y-76576443D01*
X49676627Y-76627963D01*
X49610443Y-76634481D01*
X49544260Y-76641000D01*
X49455740Y-76641000D01*
X49389557Y-76634481D01*
X49323373Y-76627963D01*
X49153534Y-76576443D01*
X49097407Y-76546442D01*
X48997011Y-76492779D01*
X48997009Y-76492778D01*
X48960454Y-76462778D01*
X48859814Y-76380186D01*
X48776552Y-76278729D01*
X48747222Y-76242991D01*
X48663557Y-76086466D01*
X48612037Y-75916627D01*
X48594641Y-75740000D01*
X48612037Y-75563373D01*
X48663557Y-75393534D01*
X48679594Y-75363532D01*
X48747221Y-75237011D01*
X48747222Y-75237009D01*
X48776552Y-75201271D01*
X48859814Y-75099814D01*
X48961271Y-75016552D01*
X48997009Y-74987222D01*
X49153534Y-74903557D01*
X49323373Y-74852037D01*
X49389557Y-74845519D01*
X49455740Y-74839000D01*
X49544260Y-74839000D01*
X49610443Y-74845519D01*
X49610443Y-74845519D01*
G37*
G36*
X54710442Y-74815518D02*
G01*
X54776627Y-74822037D01*
X54946466Y-74873557D01*
X54946468Y-74873558D01*
X55024729Y-74915390D01*
X55102991Y-74957222D01*
X55138729Y-74986552D01*
X55240186Y-75069814D01*
X55323448Y-75171271D01*
X55352778Y-75207009D01*
X55436443Y-75363534D01*
X55487963Y-75533373D01*
X55505359Y-75710000D01*
X55487963Y-75886627D01*
X55436443Y-76056466D01*
X55436442Y-76056468D01*
X55394611Y-76134728D01*
X55352778Y-76212991D01*
X55328159Y-76242989D01*
X55240186Y-76350186D01*
X55138729Y-76433448D01*
X55102991Y-76462778D01*
X54946466Y-76546443D01*
X54776627Y-76597963D01*
X54710442Y-76604482D01*
X54644260Y-76611000D01*
X54555740Y-76611000D01*
X54489558Y-76604482D01*
X54423373Y-76597963D01*
X54253534Y-76546443D01*
X54097009Y-76462778D01*
X54061271Y-76433448D01*
X53959814Y-76350186D01*
X53871841Y-76242989D01*
X53847222Y-76212991D01*
X53805390Y-76134729D01*
X53763558Y-76056468D01*
X53763557Y-76056466D01*
X53712037Y-75886627D01*
X53694641Y-75710000D01*
X53712037Y-75533373D01*
X53763557Y-75363534D01*
X53847222Y-75207009D01*
X53876552Y-75171271D01*
X53959814Y-75069814D01*
X54061271Y-74986552D01*
X54097009Y-74957222D01*
X54175271Y-74915390D01*
X54253532Y-74873558D01*
X54253534Y-74873557D01*
X54423373Y-74822037D01*
X54489558Y-74815518D01*
X54555740Y-74809000D01*
X54644260Y-74809000D01*
X54710442Y-74815518D01*
X54710442Y-74815518D01*
G37*
G36*
X50401000Y-74101000D02*
G01*
X48599000Y-74101000D01*
X48599000Y-72299000D01*
X50401000Y-72299000D01*
X50401000Y-74101000D01*
X50401000Y-74101000D01*
G37*
G36*
X54710442Y-72275518D02*
G01*
X54776627Y-72282037D01*
X54946466Y-72333557D01*
X55102991Y-72417222D01*
X55138729Y-72446552D01*
X55240186Y-72529814D01*
X55323448Y-72631271D01*
X55352778Y-72667009D01*
X55436443Y-72823534D01*
X55487963Y-72993373D01*
X55505359Y-73170000D01*
X55487963Y-73346627D01*
X55436443Y-73516466D01*
X55352778Y-73672991D01*
X55323448Y-73708729D01*
X55240186Y-73810186D01*
X55138729Y-73893448D01*
X55102991Y-73922778D01*
X54946466Y-74006443D01*
X54776627Y-74057963D01*
X54710443Y-74064481D01*
X54644260Y-74071000D01*
X54555740Y-74071000D01*
X54489557Y-74064481D01*
X54423373Y-74057963D01*
X54253534Y-74006443D01*
X54097009Y-73922778D01*
X54061271Y-73893448D01*
X53959814Y-73810186D01*
X53876552Y-73708729D01*
X53847222Y-73672991D01*
X53763557Y-73516466D01*
X53712037Y-73346627D01*
X53694641Y-73170000D01*
X53712037Y-72993373D01*
X53763557Y-72823534D01*
X53847222Y-72667009D01*
X53876552Y-72631271D01*
X53959814Y-72529814D01*
X54061271Y-72446552D01*
X54097009Y-72417222D01*
X54253534Y-72333557D01*
X54423373Y-72282037D01*
X54489558Y-72275518D01*
X54555740Y-72269000D01*
X54644260Y-72269000D01*
X54710442Y-72275518D01*
X54710442Y-72275518D01*
G37*
G36*
X48553648Y-58841319D02*
G01*
X48597182Y-58849978D01*
X48720206Y-58900936D01*
X48830925Y-58974916D01*
X48925084Y-59069075D01*
X48999064Y-59179794D01*
X49050022Y-59302818D01*
X49076000Y-59433420D01*
X49076000Y-59566580D01*
X49050022Y-59697182D01*
X48999064Y-59820206D01*
X48925084Y-59930925D01*
X48830925Y-60025084D01*
X48720206Y-60099064D01*
X48597182Y-60150022D01*
X48553648Y-60158681D01*
X48466582Y-60176000D01*
X48333418Y-60176000D01*
X48246352Y-60158681D01*
X48202818Y-60150022D01*
X48079794Y-60099064D01*
X47969075Y-60025084D01*
X47874916Y-59930925D01*
X47800936Y-59820206D01*
X47749978Y-59697182D01*
X47724000Y-59566580D01*
X47724000Y-59433420D01*
X47749978Y-59302818D01*
X47800936Y-59179794D01*
X47874916Y-59069075D01*
X47969075Y-58974916D01*
X48079794Y-58900936D01*
X48202818Y-58849978D01*
X48246352Y-58841319D01*
X48333418Y-58824000D01*
X48466582Y-58824000D01*
X48553648Y-58841319D01*
X48553648Y-58841319D01*
G37*
G36*
X64601000Y-48601000D02*
G01*
X62799000Y-48601000D01*
X62799000Y-46799000D01*
X64601000Y-46799000D01*
X64601000Y-48601000D01*
X64601000Y-48601000D01*
G37*
G36*
X63810442Y-44265518D02*
G01*
X63876627Y-44272037D01*
X64046466Y-44323557D01*
X64202991Y-44407222D01*
X64234911Y-44433418D01*
X64340186Y-44519814D01*
X64423448Y-44621271D01*
X64452778Y-44657009D01*
X64536443Y-44813534D01*
X64587963Y-44983373D01*
X64605359Y-45160000D01*
X64587963Y-45336627D01*
X64536443Y-45506466D01*
X64452778Y-45662991D01*
X64423448Y-45698729D01*
X64340186Y-45800186D01*
X64238729Y-45883448D01*
X64202991Y-45912778D01*
X64046466Y-45996443D01*
X63876627Y-46047963D01*
X63810443Y-46054481D01*
X63744260Y-46061000D01*
X63655740Y-46061000D01*
X63589557Y-46054481D01*
X63523373Y-46047963D01*
X63353534Y-45996443D01*
X63197009Y-45912778D01*
X63161271Y-45883448D01*
X63059814Y-45800186D01*
X62976552Y-45698729D01*
X62947222Y-45662991D01*
X62863557Y-45506466D01*
X62812037Y-45336627D01*
X62794641Y-45160000D01*
X62812037Y-44983373D01*
X62863557Y-44813534D01*
X62947222Y-44657009D01*
X62976552Y-44621271D01*
X63059814Y-44519814D01*
X63165089Y-44433418D01*
X63197009Y-44407222D01*
X63353534Y-44323557D01*
X63523373Y-44272037D01*
X63589558Y-44265518D01*
X63655740Y-44259000D01*
X63744260Y-44259000D01*
X63810442Y-44265518D01*
X63810442Y-44265518D01*
G37*
G36*
X43653648Y-43841319D02*
G01*
X43697182Y-43849978D01*
X43820206Y-43900936D01*
X43930925Y-43974916D01*
X44025084Y-44069075D01*
X44099064Y-44179794D01*
X44150022Y-44302818D01*
X44176000Y-44433420D01*
X44176000Y-44566580D01*
X44150022Y-44697182D01*
X44099064Y-44820206D01*
X44025084Y-44930925D01*
X43930925Y-45025084D01*
X43820206Y-45099064D01*
X43697182Y-45150022D01*
X43653648Y-45158681D01*
X43566582Y-45176000D01*
X43433418Y-45176000D01*
X43346352Y-45158681D01*
X43302818Y-45150022D01*
X43179794Y-45099064D01*
X43069075Y-45025084D01*
X42974916Y-44930925D01*
X42900936Y-44820206D01*
X42849978Y-44697182D01*
X42824000Y-44566580D01*
X42824000Y-44433420D01*
X42849978Y-44302818D01*
X42900936Y-44179794D01*
X42974916Y-44069075D01*
X43069075Y-43974916D01*
X43179794Y-43900936D01*
X43302818Y-43849978D01*
X43346352Y-43841319D01*
X43433418Y-43824000D01*
X43566582Y-43824000D01*
X43653648Y-43841319D01*
X43653648Y-43841319D01*
G37*
G36*
X63810443Y-41725519D02*
G01*
X63876627Y-41732037D01*
X64046466Y-41783557D01*
X64202991Y-41867222D01*
X64238729Y-41896552D01*
X64340186Y-41979814D01*
X64423448Y-42081271D01*
X64452778Y-42117009D01*
X64536443Y-42273534D01*
X64587963Y-42443373D01*
X64605359Y-42620000D01*
X64587963Y-42796627D01*
X64536443Y-42966466D01*
X64452778Y-43122991D01*
X64423448Y-43158729D01*
X64340186Y-43260186D01*
X64238729Y-43343448D01*
X64202991Y-43372778D01*
X64046466Y-43456443D01*
X63876627Y-43507963D01*
X63810443Y-43514481D01*
X63744260Y-43521000D01*
X63655740Y-43521000D01*
X63589557Y-43514481D01*
X63523373Y-43507963D01*
X63353534Y-43456443D01*
X63197009Y-43372778D01*
X63161271Y-43343448D01*
X63059814Y-43260186D01*
X62976552Y-43158729D01*
X62947222Y-43122991D01*
X62863557Y-42966466D01*
X62812037Y-42796627D01*
X62794641Y-42620000D01*
X62812037Y-42443373D01*
X62863557Y-42273534D01*
X62947222Y-42117009D01*
X62976552Y-42081271D01*
X63059814Y-41979814D01*
X63161271Y-41896552D01*
X63197009Y-41867222D01*
X63353534Y-41783557D01*
X63523373Y-41732037D01*
X63589557Y-41725519D01*
X63655740Y-41719000D01*
X63744260Y-41719000D01*
X63810443Y-41725519D01*
X63810443Y-41725519D01*
G37*
G36*
X63810442Y-39185518D02*
G01*
X63876627Y-39192037D01*
X64046466Y-39243557D01*
X64202991Y-39327222D01*
X64238729Y-39356552D01*
X64340186Y-39439814D01*
X64423448Y-39541271D01*
X64452778Y-39577009D01*
X64536443Y-39733534D01*
X64587963Y-39903373D01*
X64605359Y-40080000D01*
X64587963Y-40256627D01*
X64536443Y-40426466D01*
X64452778Y-40582991D01*
X64423448Y-40618729D01*
X64340186Y-40720186D01*
X64238729Y-40803448D01*
X64202991Y-40832778D01*
X64046466Y-40916443D01*
X63876627Y-40967963D01*
X63810443Y-40974481D01*
X63744260Y-40981000D01*
X63655740Y-40981000D01*
X63589557Y-40974481D01*
X63523373Y-40967963D01*
X63353534Y-40916443D01*
X63197009Y-40832778D01*
X63161271Y-40803448D01*
X63059814Y-40720186D01*
X62976552Y-40618729D01*
X62947222Y-40582991D01*
X62863557Y-40426466D01*
X62812037Y-40256627D01*
X62794641Y-40080000D01*
X62812037Y-39903373D01*
X62863557Y-39733534D01*
X62947222Y-39577009D01*
X62976552Y-39541271D01*
X63059814Y-39439814D01*
X63161271Y-39356552D01*
X63197009Y-39327222D01*
X63353534Y-39243557D01*
X63523373Y-39192037D01*
X63589558Y-39185518D01*
X63655740Y-39179000D01*
X63744260Y-39179000D01*
X63810442Y-39185518D01*
X63810442Y-39185518D01*
G37*
G36*
X48453648Y-37841319D02*
G01*
X48497182Y-37849978D01*
X48620206Y-37900936D01*
X48730925Y-37974916D01*
X48825084Y-38069075D01*
X48899064Y-38179794D01*
X48950022Y-38302818D01*
X48976000Y-38433420D01*
X48976000Y-38566580D01*
X48950022Y-38697182D01*
X48899064Y-38820206D01*
X48825084Y-38930925D01*
X48730925Y-39025084D01*
X48620206Y-39099064D01*
X48497182Y-39150022D01*
X48453648Y-39158681D01*
X48366582Y-39176000D01*
X48233418Y-39176000D01*
X48146352Y-39158681D01*
X48102818Y-39150022D01*
X47979794Y-39099064D01*
X47869075Y-39025084D01*
X47774916Y-38930925D01*
X47700936Y-38820206D01*
X47649978Y-38697182D01*
X47624000Y-38566580D01*
X47624000Y-38433420D01*
X47649978Y-38302818D01*
X47700936Y-38179794D01*
X47774916Y-38069075D01*
X47869075Y-37974916D01*
X47979794Y-37900936D01*
X48102818Y-37849978D01*
X48146352Y-37841319D01*
X48233418Y-37824000D01*
X48366582Y-37824000D01*
X48453648Y-37841319D01*
X48453648Y-37841319D01*
G37*
G36*
X54972818Y-31892696D02*
G01*
X55086105Y-31927062D01*
X55190512Y-31982869D01*
X55282027Y-32057973D01*
X55357131Y-32149488D01*
X55412938Y-32253895D01*
X55447304Y-32367182D01*
X55456000Y-32455482D01*
X55456000Y-32914519D01*
X55447304Y-33002818D01*
X55412938Y-33116105D01*
X55357131Y-33220512D01*
X55357130Y-33220513D01*
X55282027Y-33312027D01*
X55206923Y-33373662D01*
X55190511Y-33387131D01*
X55086104Y-33442938D01*
X54972817Y-33477304D01*
X54855000Y-33488907D01*
X54737182Y-33477304D01*
X54623895Y-33442938D01*
X54519488Y-33387131D01*
X54505572Y-33375711D01*
X54427973Y-33312027D01*
X54352870Y-33220512D01*
X54352869Y-33220511D01*
X54297062Y-33116104D01*
X54262696Y-33002817D01*
X54254000Y-32914518D01*
X54254000Y-32455481D01*
X54262696Y-32367182D01*
X54297062Y-32253895D01*
X54352869Y-32149488D01*
X54427974Y-32057973D01*
X54519489Y-31982869D01*
X54623896Y-31927062D01*
X54737183Y-31892696D01*
X54855000Y-31881093D01*
X54972818Y-31892696D01*
X54972818Y-31892696D01*
G37*
G36*
X59812818Y-31892696D02*
G01*
X59926105Y-31927062D01*
X60030512Y-31982869D01*
X60122027Y-32057973D01*
X60197131Y-32149488D01*
X60252938Y-32253895D01*
X60287304Y-32367182D01*
X60296000Y-32455482D01*
X60296000Y-32914519D01*
X60287304Y-33002818D01*
X60252938Y-33116105D01*
X60197131Y-33220512D01*
X60197130Y-33220513D01*
X60122027Y-33312027D01*
X60046923Y-33373662D01*
X60030511Y-33387131D01*
X59926104Y-33442938D01*
X59812817Y-33477304D01*
X59695000Y-33488907D01*
X59577182Y-33477304D01*
X59463895Y-33442938D01*
X59359488Y-33387131D01*
X59345572Y-33375711D01*
X59267973Y-33312027D01*
X59192870Y-33220512D01*
X59192869Y-33220511D01*
X59137062Y-33116104D01*
X59102696Y-33002817D01*
X59094000Y-32914518D01*
X59094000Y-32455481D01*
X59102696Y-32367182D01*
X59137062Y-32253895D01*
X59192869Y-32149488D01*
X59267974Y-32057973D01*
X59359489Y-31982869D01*
X59463896Y-31927062D01*
X59577183Y-31892696D01*
X59695000Y-31881093D01*
X59812818Y-31892696D01*
X59812818Y-31892696D01*
G37*
G36*
X63175331Y-29018211D02*
G01*
X63503092Y-29153974D01*
X63798070Y-29351072D01*
X64048928Y-29601930D01*
X64246026Y-29896908D01*
X64381789Y-30224669D01*
X64451000Y-30572616D01*
X64451000Y-30927384D01*
X64381789Y-31275331D01*
X64246026Y-31603092D01*
X64048928Y-31898070D01*
X63798070Y-32148928D01*
X63503092Y-32346026D01*
X63175331Y-32481789D01*
X62827384Y-32551000D01*
X62472616Y-32551000D01*
X62124669Y-32481789D01*
X61796908Y-32346026D01*
X61501930Y-32148928D01*
X61251072Y-31898070D01*
X61053974Y-31603092D01*
X60918211Y-31275331D01*
X60849000Y-30927384D01*
X60849000Y-30572616D01*
X60918211Y-30224669D01*
X61053974Y-29896908D01*
X61251072Y-29601930D01*
X61501930Y-29351072D01*
X61796908Y-29153974D01*
X62124669Y-29018211D01*
X62472616Y-28949000D01*
X62827384Y-28949000D01*
X63175331Y-29018211D01*
X63175331Y-29018211D01*
G37*
G36*
X41975331Y-29018211D02*
G01*
X42303092Y-29153974D01*
X42598070Y-29351072D01*
X42848928Y-29601930D01*
X43046026Y-29896908D01*
X43181789Y-30224669D01*
X43251000Y-30572616D01*
X43251000Y-30927384D01*
X43181789Y-31275331D01*
X43046026Y-31603092D01*
X42848928Y-31898070D01*
X42598070Y-32148928D01*
X42303092Y-32346026D01*
X41975331Y-32481789D01*
X41627384Y-32551000D01*
X41272616Y-32551000D01*
X40924669Y-32481789D01*
X40596908Y-32346026D01*
X40301930Y-32148928D01*
X40051072Y-31898070D01*
X39853974Y-31603092D01*
X39718211Y-31275331D01*
X39649000Y-30927384D01*
X39649000Y-30572616D01*
X39718211Y-30224669D01*
X39853974Y-29896908D01*
X40051072Y-29601930D01*
X40301930Y-29351072D01*
X40596908Y-29153974D01*
X40924669Y-29018211D01*
X41272616Y-28949000D01*
X41627384Y-28949000D01*
X41975331Y-29018211D01*
X41975331Y-29018211D01*
G37*
G36*
X54687321Y-28794505D02*
G01*
X54824172Y-28836019D01*
X54824175Y-28836020D01*
X54950294Y-28903432D01*
X55060843Y-28994157D01*
X55151568Y-29104706D01*
X55218980Y-29230824D01*
X55218981Y-29230828D01*
X55260495Y-29367680D01*
X55271000Y-29474342D01*
X55271000Y-29895659D01*
X55260495Y-30002321D01*
X55242836Y-30060534D01*
X55218980Y-30139175D01*
X55151568Y-30265294D01*
X55060843Y-30375842D01*
X54950293Y-30466568D01*
X54824174Y-30533980D01*
X54824171Y-30533981D01*
X54687320Y-30575495D01*
X54545000Y-30589512D01*
X54402679Y-30575495D01*
X54265828Y-30533981D01*
X54265825Y-30533980D01*
X54139706Y-30466568D01*
X54029158Y-30375843D01*
X53936620Y-30263085D01*
X53926163Y-30247436D01*
X53908836Y-30230109D01*
X53888461Y-30216496D01*
X53865822Y-30207119D01*
X53841789Y-30202339D01*
X53817285Y-30202339D01*
X53793252Y-30207120D01*
X53770613Y-30216498D01*
X53750239Y-30230112D01*
X53732912Y-30247439D01*
X53719299Y-30267814D01*
X53709922Y-30290453D01*
X53705142Y-30314486D01*
X53706942Y-30351122D01*
X53751000Y-30572616D01*
X53751000Y-30927384D01*
X53681789Y-31275331D01*
X53546026Y-31603092D01*
X53348928Y-31898070D01*
X53098070Y-32148928D01*
X52803092Y-32346026D01*
X52475331Y-32481789D01*
X52127384Y-32551000D01*
X51772616Y-32551000D01*
X51424669Y-32481789D01*
X51096908Y-32346026D01*
X50801930Y-32148928D01*
X50551072Y-31898070D01*
X50353974Y-31603092D01*
X50218211Y-31275331D01*
X50149000Y-30927384D01*
X50149000Y-30572616D01*
X50218211Y-30224669D01*
X50353974Y-29896908D01*
X50551072Y-29601930D01*
X50801930Y-29351072D01*
X51096908Y-29153974D01*
X51424669Y-29018211D01*
X51772616Y-28949000D01*
X52127384Y-28949000D01*
X52475331Y-29018211D01*
X52803092Y-29153974D01*
X53098070Y-29351072D01*
X53348928Y-29601930D01*
X53546026Y-29896908D01*
X53581840Y-29983370D01*
X53593391Y-30004981D01*
X53608936Y-30023923D01*
X53627878Y-30039468D01*
X53649489Y-30051019D01*
X53672938Y-30058132D01*
X53697324Y-30060534D01*
X53721710Y-30058132D01*
X53745159Y-30051019D01*
X53766770Y-30039468D01*
X53785712Y-30023923D01*
X53801257Y-30004981D01*
X53812808Y-29983370D01*
X53819921Y-29959921D01*
X53822323Y-29935535D01*
X53821721Y-29923282D01*
X53819000Y-29895658D01*
X53819000Y-29474340D01*
X53829505Y-29367681D01*
X53829505Y-29367679D01*
X53871019Y-29230828D01*
X53871020Y-29230825D01*
X53938432Y-29104706D01*
X54029158Y-28994157D01*
X54139707Y-28903432D01*
X54265826Y-28836020D01*
X54265829Y-28836019D01*
X54402680Y-28794505D01*
X54545000Y-28780488D01*
X54687321Y-28794505D01*
X54687321Y-28794505D01*
G37*
G36*
X60147321Y-28794505D02*
G01*
X60284172Y-28836019D01*
X60284175Y-28836020D01*
X60410294Y-28903432D01*
X60520843Y-28994157D01*
X60611568Y-29104706D01*
X60678980Y-29230824D01*
X60678981Y-29230828D01*
X60720495Y-29367680D01*
X60731000Y-29474342D01*
X60731000Y-29895659D01*
X60720495Y-30002321D01*
X60702836Y-30060534D01*
X60678980Y-30139175D01*
X60611568Y-30265294D01*
X60520843Y-30375842D01*
X60410293Y-30466568D01*
X60284174Y-30533980D01*
X60284171Y-30533981D01*
X60147320Y-30575495D01*
X60005000Y-30589512D01*
X59862679Y-30575495D01*
X59725828Y-30533981D01*
X59725825Y-30533980D01*
X59599706Y-30466568D01*
X59489158Y-30375843D01*
X59398432Y-30265293D01*
X59331020Y-30139174D01*
X59331019Y-30139171D01*
X59289505Y-30002320D01*
X59279000Y-29895658D01*
X59279000Y-29474341D01*
X59289505Y-29367679D01*
X59331019Y-29230828D01*
X59331020Y-29230825D01*
X59398432Y-29104706D01*
X59489158Y-28994157D01*
X59599707Y-28903432D01*
X59725826Y-28836020D01*
X59725829Y-28836019D01*
X59862680Y-28794505D01*
X60005000Y-28780488D01*
X60147321Y-28794505D01*
X60147321Y-28794505D01*
G37*
M02*
