G04 #@! TF.GenerationSoftware,KiCad,Pcbnew,(5.1.4)-1*
G04 #@! TF.CreationDate,2021-01-27T11:02:31-06:00*
G04 #@! TF.ProjectId,ULPSoilMonitor,554c5053-6f69-46c4-9d6f-6e69746f722e,v2.2*
G04 #@! TF.SameCoordinates,Original*
G04 #@! TF.FileFunction,Soldermask,Top*
G04 #@! TF.FilePolarity,Negative*
%FSLAX46Y46*%
G04 Gerber Fmt 4.6, Leading zero omitted, Abs format (unit mm)*
G04 Created by KiCad (PCBNEW (5.1.4)-1) date 2021-01-27 11:02:31*
%MOMM*%
%LPD*%
G04 APERTURE LIST*
%ADD10C,0.100000*%
G04 APERTURE END LIST*
D10*
G36*
X43251000Y-103951000D02*
G01*
X39649000Y-103951000D01*
X39649000Y-100349000D01*
X43251000Y-100349000D01*
X43251000Y-103951000D01*
X43251000Y-103951000D01*
G37*
G36*
X53751000Y-103951000D02*
G01*
X50149000Y-103951000D01*
X50149000Y-100349000D01*
X53751000Y-100349000D01*
X53751000Y-103951000D01*
X53751000Y-103951000D01*
G37*
G36*
X64451000Y-103951000D02*
G01*
X60849000Y-103951000D01*
X60849000Y-100349000D01*
X64451000Y-100349000D01*
X64451000Y-103951000D01*
X64451000Y-103951000D01*
G37*
G36*
X49610443Y-97585519D02*
G01*
X49676627Y-97592037D01*
X49846466Y-97643557D01*
X50002991Y-97727222D01*
X50029527Y-97749000D01*
X50140186Y-97839814D01*
X50223448Y-97941271D01*
X50252778Y-97977009D01*
X50336443Y-98133534D01*
X50387963Y-98303373D01*
X50405359Y-98480000D01*
X50387963Y-98656627D01*
X50341285Y-98810504D01*
X50336442Y-98826468D01*
X50294610Y-98904729D01*
X50252778Y-98982991D01*
X50223448Y-99018729D01*
X50140186Y-99120186D01*
X50055095Y-99190017D01*
X50002991Y-99232778D01*
X49846466Y-99316443D01*
X49676627Y-99367963D01*
X49610442Y-99374482D01*
X49544260Y-99381000D01*
X49455740Y-99381000D01*
X49389558Y-99374482D01*
X49323373Y-99367963D01*
X49153534Y-99316443D01*
X48997009Y-99232778D01*
X48944905Y-99190017D01*
X48859814Y-99120186D01*
X48776552Y-99018729D01*
X48747222Y-98982991D01*
X48705390Y-98904729D01*
X48663558Y-98826468D01*
X48658715Y-98810504D01*
X48612037Y-98656627D01*
X48594641Y-98480000D01*
X48612037Y-98303373D01*
X48663557Y-98133534D01*
X48747222Y-97977009D01*
X48776552Y-97941271D01*
X48859814Y-97839814D01*
X48970473Y-97749000D01*
X48997009Y-97727222D01*
X49153534Y-97643557D01*
X49323373Y-97592037D01*
X49389557Y-97585519D01*
X49455740Y-97579000D01*
X49544260Y-97579000D01*
X49610443Y-97585519D01*
X49610443Y-97585519D01*
G37*
G36*
X55501000Y-99351000D02*
G01*
X53699000Y-99351000D01*
X53699000Y-97549000D01*
X55501000Y-97549000D01*
X55501000Y-99351000D01*
X55501000Y-99351000D01*
G37*
G36*
X45334468Y-97753565D02*
G01*
X45373138Y-97765296D01*
X45408777Y-97784346D01*
X45440017Y-97809983D01*
X45465654Y-97841223D01*
X45484704Y-97876862D01*
X45496435Y-97915532D01*
X45501000Y-97961888D01*
X45501000Y-99038112D01*
X45496435Y-99084468D01*
X45484704Y-99123138D01*
X45465654Y-99158777D01*
X45440017Y-99190017D01*
X45408777Y-99215654D01*
X45373138Y-99234704D01*
X45334468Y-99246435D01*
X45288112Y-99251000D01*
X44636888Y-99251000D01*
X44590532Y-99246435D01*
X44551862Y-99234704D01*
X44516223Y-99215654D01*
X44484983Y-99190017D01*
X44459346Y-99158777D01*
X44440296Y-99123138D01*
X44428565Y-99084468D01*
X44424000Y-99038112D01*
X44424000Y-97961888D01*
X44428565Y-97915532D01*
X44440296Y-97876862D01*
X44459346Y-97841223D01*
X44484983Y-97809983D01*
X44516223Y-97784346D01*
X44551862Y-97765296D01*
X44590532Y-97753565D01*
X44636888Y-97749000D01*
X45288112Y-97749000D01*
X45334468Y-97753565D01*
X45334468Y-97753565D01*
G37*
G36*
X47209468Y-97753565D02*
G01*
X47248138Y-97765296D01*
X47283777Y-97784346D01*
X47315017Y-97809983D01*
X47340654Y-97841223D01*
X47359704Y-97876862D01*
X47371435Y-97915532D01*
X47376000Y-97961888D01*
X47376000Y-99038112D01*
X47371435Y-99084468D01*
X47359704Y-99123138D01*
X47340654Y-99158777D01*
X47315017Y-99190017D01*
X47283777Y-99215654D01*
X47248138Y-99234704D01*
X47209468Y-99246435D01*
X47163112Y-99251000D01*
X46511888Y-99251000D01*
X46465532Y-99246435D01*
X46426862Y-99234704D01*
X46391223Y-99215654D01*
X46359983Y-99190017D01*
X46334346Y-99158777D01*
X46315296Y-99123138D01*
X46303565Y-99084468D01*
X46299000Y-99038112D01*
X46299000Y-97961888D01*
X46303565Y-97915532D01*
X46315296Y-97876862D01*
X46334346Y-97841223D01*
X46359983Y-97809983D01*
X46391223Y-97784346D01*
X46426862Y-97765296D01*
X46465532Y-97753565D01*
X46511888Y-97749000D01*
X47163112Y-97749000D01*
X47209468Y-97753565D01*
X47209468Y-97753565D01*
G37*
G36*
X58035268Y-97754365D02*
G01*
X58073938Y-97766096D01*
X58109577Y-97785146D01*
X58140817Y-97810783D01*
X58166454Y-97842023D01*
X58185504Y-97877662D01*
X58197235Y-97916332D01*
X58201800Y-97962688D01*
X58201800Y-98613912D01*
X58197235Y-98660268D01*
X58185504Y-98698938D01*
X58166454Y-98734577D01*
X58140817Y-98765817D01*
X58109577Y-98791454D01*
X58073938Y-98810504D01*
X58035268Y-98822235D01*
X57988912Y-98826800D01*
X56912688Y-98826800D01*
X56866332Y-98822235D01*
X56827662Y-98810504D01*
X56792023Y-98791454D01*
X56760783Y-98765817D01*
X56735146Y-98734577D01*
X56716096Y-98698938D01*
X56704365Y-98660268D01*
X56699800Y-98613912D01*
X56699800Y-97962688D01*
X56704365Y-97916332D01*
X56716096Y-97877662D01*
X56735146Y-97842023D01*
X56760783Y-97810783D01*
X56792023Y-97785146D01*
X56827662Y-97766096D01*
X56866332Y-97754365D01*
X56912688Y-97749800D01*
X57988912Y-97749800D01*
X58035268Y-97754365D01*
X58035268Y-97754365D01*
G37*
G36*
X58035268Y-95879365D02*
G01*
X58073938Y-95891096D01*
X58109577Y-95910146D01*
X58140817Y-95935783D01*
X58166454Y-95967023D01*
X58185504Y-96002662D01*
X58197235Y-96041332D01*
X58201800Y-96087688D01*
X58201800Y-96738912D01*
X58197235Y-96785268D01*
X58185504Y-96823938D01*
X58166454Y-96859577D01*
X58140817Y-96890817D01*
X58109577Y-96916454D01*
X58073938Y-96935504D01*
X58035268Y-96947235D01*
X57988912Y-96951800D01*
X56912688Y-96951800D01*
X56866332Y-96947235D01*
X56827662Y-96935504D01*
X56792023Y-96916454D01*
X56760783Y-96890817D01*
X56735146Y-96859577D01*
X56716096Y-96823938D01*
X56704365Y-96785268D01*
X56699800Y-96738912D01*
X56699800Y-96087688D01*
X56704365Y-96041332D01*
X56716096Y-96002662D01*
X56735146Y-95967023D01*
X56760783Y-95935783D01*
X56792023Y-95910146D01*
X56827662Y-95891096D01*
X56866332Y-95879365D01*
X56912688Y-95874800D01*
X57988912Y-95874800D01*
X58035268Y-95879365D01*
X58035268Y-95879365D01*
G37*
G36*
X49610442Y-95045518D02*
G01*
X49676627Y-95052037D01*
X49846466Y-95103557D01*
X50002991Y-95187222D01*
X50038729Y-95216552D01*
X50140186Y-95299814D01*
X50223448Y-95401271D01*
X50252778Y-95437009D01*
X50252779Y-95437011D01*
X50320407Y-95563532D01*
X50336443Y-95593534D01*
X50387963Y-95763373D01*
X50405359Y-95940000D01*
X50387963Y-96116627D01*
X50336443Y-96286466D01*
X50252778Y-96442991D01*
X50223448Y-96478729D01*
X50140186Y-96580186D01*
X50039546Y-96662778D01*
X50002991Y-96692778D01*
X50002989Y-96692779D01*
X49902594Y-96746442D01*
X49846466Y-96776443D01*
X49676627Y-96827963D01*
X49610442Y-96834482D01*
X49544260Y-96841000D01*
X49455740Y-96841000D01*
X49389558Y-96834482D01*
X49323373Y-96827963D01*
X49153534Y-96776443D01*
X49097407Y-96746442D01*
X48997011Y-96692779D01*
X48997009Y-96692778D01*
X48960454Y-96662778D01*
X48859814Y-96580186D01*
X48776552Y-96478729D01*
X48747222Y-96442991D01*
X48663557Y-96286466D01*
X48612037Y-96116627D01*
X48594641Y-95940000D01*
X48612037Y-95763373D01*
X48663557Y-95593534D01*
X48679594Y-95563532D01*
X48747221Y-95437011D01*
X48747222Y-95437009D01*
X48776552Y-95401271D01*
X48859814Y-95299814D01*
X48961271Y-95216552D01*
X48997009Y-95187222D01*
X49153534Y-95103557D01*
X49323373Y-95052037D01*
X49389558Y-95045518D01*
X49455740Y-95039000D01*
X49544260Y-95039000D01*
X49610442Y-95045518D01*
X49610442Y-95045518D01*
G37*
G36*
X54710443Y-95015519D02*
G01*
X54776627Y-95022037D01*
X54946466Y-95073557D01*
X54946468Y-95073558D01*
X55024729Y-95115390D01*
X55102991Y-95157222D01*
X55138729Y-95186552D01*
X55240186Y-95269814D01*
X55323448Y-95371271D01*
X55352778Y-95407009D01*
X55436443Y-95563534D01*
X55487963Y-95733373D01*
X55505359Y-95910000D01*
X55487963Y-96086627D01*
X55436443Y-96256466D01*
X55436442Y-96256468D01*
X55394610Y-96334729D01*
X55352778Y-96412991D01*
X55328159Y-96442989D01*
X55240186Y-96550186D01*
X55138729Y-96633448D01*
X55102991Y-96662778D01*
X55024729Y-96704610D01*
X54960556Y-96738912D01*
X54946466Y-96746443D01*
X54776627Y-96797963D01*
X54710442Y-96804482D01*
X54644260Y-96811000D01*
X54555740Y-96811000D01*
X54489558Y-96804482D01*
X54423373Y-96797963D01*
X54253534Y-96746443D01*
X54239445Y-96738912D01*
X54175271Y-96704610D01*
X54097009Y-96662778D01*
X54061271Y-96633448D01*
X53959814Y-96550186D01*
X53871841Y-96442989D01*
X53847222Y-96412991D01*
X53805389Y-96334728D01*
X53763558Y-96256468D01*
X53763557Y-96256466D01*
X53712037Y-96086627D01*
X53694641Y-95910000D01*
X53712037Y-95733373D01*
X53763557Y-95563534D01*
X53847222Y-95407009D01*
X53876552Y-95371271D01*
X53959814Y-95269814D01*
X54061271Y-95186552D01*
X54097009Y-95157222D01*
X54175271Y-95115390D01*
X54253532Y-95073558D01*
X54253534Y-95073557D01*
X54423373Y-95022037D01*
X54489557Y-95015519D01*
X54555740Y-95009000D01*
X54644260Y-95009000D01*
X54710443Y-95015519D01*
X54710443Y-95015519D01*
G37*
G36*
X47084468Y-94603565D02*
G01*
X47123138Y-94615296D01*
X47158777Y-94634346D01*
X47190017Y-94659983D01*
X47215654Y-94691223D01*
X47234704Y-94726862D01*
X47246435Y-94765532D01*
X47251000Y-94811888D01*
X47251000Y-95463112D01*
X47246435Y-95509468D01*
X47234704Y-95548138D01*
X47215654Y-95583777D01*
X47190017Y-95615017D01*
X47158777Y-95640654D01*
X47123138Y-95659704D01*
X47084468Y-95671435D01*
X47038112Y-95676000D01*
X45961888Y-95676000D01*
X45915532Y-95671435D01*
X45876862Y-95659704D01*
X45841223Y-95640654D01*
X45809983Y-95615017D01*
X45784346Y-95583777D01*
X45765296Y-95548138D01*
X45753565Y-95509468D01*
X45749000Y-95463112D01*
X45749000Y-94811888D01*
X45753565Y-94765532D01*
X45765296Y-94726862D01*
X45784346Y-94691223D01*
X45809983Y-94659983D01*
X45841223Y-94634346D01*
X45876862Y-94615296D01*
X45915532Y-94603565D01*
X45961888Y-94599000D01*
X47038112Y-94599000D01*
X47084468Y-94603565D01*
X47084468Y-94603565D01*
G37*
G36*
X50401000Y-94301000D02*
G01*
X48599000Y-94301000D01*
X48599000Y-92499000D01*
X50401000Y-92499000D01*
X50401000Y-94301000D01*
X50401000Y-94301000D01*
G37*
G36*
X54710442Y-92475518D02*
G01*
X54776627Y-92482037D01*
X54946466Y-92533557D01*
X55102991Y-92617222D01*
X55138729Y-92646552D01*
X55240186Y-92729814D01*
X55285461Y-92784983D01*
X55352778Y-92867009D01*
X55436443Y-93023534D01*
X55487963Y-93193373D01*
X55505359Y-93370000D01*
X55487963Y-93546627D01*
X55436443Y-93716466D01*
X55352778Y-93872991D01*
X55323448Y-93908729D01*
X55240186Y-94010186D01*
X55142910Y-94090017D01*
X55102991Y-94122778D01*
X54946466Y-94206443D01*
X54776627Y-94257963D01*
X54710443Y-94264481D01*
X54644260Y-94271000D01*
X54555740Y-94271000D01*
X54489557Y-94264481D01*
X54423373Y-94257963D01*
X54253534Y-94206443D01*
X54097009Y-94122778D01*
X54057090Y-94090017D01*
X53959814Y-94010186D01*
X53876552Y-93908729D01*
X53847222Y-93872991D01*
X53763557Y-93716466D01*
X53712037Y-93546627D01*
X53694641Y-93370000D01*
X53712037Y-93193373D01*
X53763557Y-93023534D01*
X53847222Y-92867009D01*
X53914539Y-92784983D01*
X53959814Y-92729814D01*
X54061271Y-92646552D01*
X54097009Y-92617222D01*
X54253534Y-92533557D01*
X54423373Y-92482037D01*
X54489558Y-92475518D01*
X54555740Y-92469000D01*
X54644260Y-92469000D01*
X54710442Y-92475518D01*
X54710442Y-92475518D01*
G37*
G36*
X59460268Y-92653565D02*
G01*
X59498938Y-92665296D01*
X59534577Y-92684346D01*
X59565817Y-92709983D01*
X59591454Y-92741223D01*
X59610504Y-92776862D01*
X59622235Y-92815532D01*
X59626800Y-92861888D01*
X59626800Y-93938112D01*
X59622235Y-93984468D01*
X59610504Y-94023138D01*
X59591454Y-94058777D01*
X59565817Y-94090017D01*
X59534577Y-94115654D01*
X59498938Y-94134704D01*
X59460268Y-94146435D01*
X59413912Y-94151000D01*
X58762688Y-94151000D01*
X58716332Y-94146435D01*
X58677662Y-94134704D01*
X58642023Y-94115654D01*
X58610783Y-94090017D01*
X58585146Y-94058777D01*
X58566096Y-94023138D01*
X58554365Y-93984468D01*
X58549800Y-93938112D01*
X58549800Y-92861888D01*
X58554365Y-92815532D01*
X58566096Y-92776862D01*
X58585146Y-92741223D01*
X58610783Y-92709983D01*
X58642023Y-92684346D01*
X58677662Y-92665296D01*
X58716332Y-92653565D01*
X58762688Y-92649000D01*
X59413912Y-92649000D01*
X59460268Y-92653565D01*
X59460268Y-92653565D01*
G37*
G36*
X57585268Y-92653565D02*
G01*
X57623938Y-92665296D01*
X57659577Y-92684346D01*
X57690817Y-92709983D01*
X57716454Y-92741223D01*
X57735504Y-92776862D01*
X57747235Y-92815532D01*
X57751800Y-92861888D01*
X57751800Y-93938112D01*
X57747235Y-93984468D01*
X57735504Y-94023138D01*
X57716454Y-94058777D01*
X57690817Y-94090017D01*
X57659577Y-94115654D01*
X57623938Y-94134704D01*
X57585268Y-94146435D01*
X57538912Y-94151000D01*
X56887688Y-94151000D01*
X56841332Y-94146435D01*
X56802662Y-94134704D01*
X56767023Y-94115654D01*
X56735783Y-94090017D01*
X56710146Y-94058777D01*
X56691096Y-94023138D01*
X56679365Y-93984468D01*
X56674800Y-93938112D01*
X56674800Y-92861888D01*
X56679365Y-92815532D01*
X56691096Y-92776862D01*
X56710146Y-92741223D01*
X56735783Y-92709983D01*
X56767023Y-92684346D01*
X56802662Y-92665296D01*
X56841332Y-92653565D01*
X56887688Y-92649000D01*
X57538912Y-92649000D01*
X57585268Y-92653565D01*
X57585268Y-92653565D01*
G37*
G36*
X47084468Y-92728565D02*
G01*
X47123138Y-92740296D01*
X47158777Y-92759346D01*
X47190017Y-92784983D01*
X47215654Y-92816223D01*
X47234704Y-92851862D01*
X47246435Y-92890532D01*
X47251000Y-92936888D01*
X47251000Y-93588112D01*
X47246435Y-93634468D01*
X47234704Y-93673138D01*
X47215654Y-93708777D01*
X47190017Y-93740017D01*
X47158777Y-93765654D01*
X47123138Y-93784704D01*
X47084468Y-93796435D01*
X47038112Y-93801000D01*
X45961888Y-93801000D01*
X45915532Y-93796435D01*
X45876862Y-93784704D01*
X45841223Y-93765654D01*
X45809983Y-93740017D01*
X45784346Y-93708777D01*
X45765296Y-93673138D01*
X45753565Y-93634468D01*
X45749000Y-93588112D01*
X45749000Y-92936888D01*
X45753565Y-92890532D01*
X45765296Y-92851862D01*
X45784346Y-92816223D01*
X45809983Y-92784983D01*
X45841223Y-92759346D01*
X45876862Y-92740296D01*
X45915532Y-92728565D01*
X45961888Y-92724000D01*
X47038112Y-92724000D01*
X47084468Y-92728565D01*
X47084468Y-92728565D01*
G37*
G36*
X40634468Y-88853565D02*
G01*
X40673138Y-88865296D01*
X40708777Y-88884346D01*
X40740017Y-88909983D01*
X40765654Y-88941223D01*
X40784704Y-88976862D01*
X40796435Y-89015532D01*
X40801000Y-89061888D01*
X40801000Y-90138112D01*
X40796435Y-90184468D01*
X40784704Y-90223138D01*
X40765654Y-90258777D01*
X40740017Y-90290017D01*
X40708777Y-90315654D01*
X40673138Y-90334704D01*
X40634468Y-90346435D01*
X40588112Y-90351000D01*
X39936888Y-90351000D01*
X39890532Y-90346435D01*
X39851862Y-90334704D01*
X39816223Y-90315654D01*
X39784983Y-90290017D01*
X39759346Y-90258777D01*
X39740296Y-90223138D01*
X39728565Y-90184468D01*
X39724000Y-90138112D01*
X39724000Y-89061888D01*
X39728565Y-89015532D01*
X39740296Y-88976862D01*
X39759346Y-88941223D01*
X39784983Y-88909983D01*
X39816223Y-88884346D01*
X39851862Y-88865296D01*
X39890532Y-88853565D01*
X39936888Y-88849000D01*
X40588112Y-88849000D01*
X40634468Y-88853565D01*
X40634468Y-88853565D01*
G37*
G36*
X42509468Y-88853565D02*
G01*
X42548138Y-88865296D01*
X42583777Y-88884346D01*
X42615017Y-88909983D01*
X42640654Y-88941223D01*
X42659704Y-88976862D01*
X42671435Y-89015532D01*
X42676000Y-89061888D01*
X42676000Y-90138112D01*
X42671435Y-90184468D01*
X42659704Y-90223138D01*
X42640654Y-90258777D01*
X42615017Y-90290017D01*
X42583777Y-90315654D01*
X42548138Y-90334704D01*
X42509468Y-90346435D01*
X42463112Y-90351000D01*
X41811888Y-90351000D01*
X41765532Y-90346435D01*
X41726862Y-90334704D01*
X41691223Y-90315654D01*
X41659983Y-90290017D01*
X41634346Y-90258777D01*
X41615296Y-90223138D01*
X41603565Y-90184468D01*
X41599000Y-90138112D01*
X41599000Y-89061888D01*
X41603565Y-89015532D01*
X41615296Y-88976862D01*
X41634346Y-88941223D01*
X41659983Y-88909983D01*
X41691223Y-88884346D01*
X41726862Y-88865296D01*
X41765532Y-88853565D01*
X41811888Y-88849000D01*
X42463112Y-88849000D01*
X42509468Y-88853565D01*
X42509468Y-88853565D01*
G37*
G36*
X49610442Y-87485518D02*
G01*
X49676627Y-87492037D01*
X49846466Y-87543557D01*
X50002991Y-87627222D01*
X50029527Y-87649000D01*
X50140186Y-87739814D01*
X50202325Y-87815532D01*
X50252778Y-87877009D01*
X50336443Y-88033534D01*
X50387963Y-88203373D01*
X50405359Y-88380000D01*
X50387963Y-88556627D01*
X50336443Y-88726466D01*
X50252778Y-88882991D01*
X50223448Y-88918729D01*
X50140186Y-89020186D01*
X50055095Y-89090017D01*
X50002991Y-89132778D01*
X49846466Y-89216443D01*
X49676627Y-89267963D01*
X49610442Y-89274482D01*
X49544260Y-89281000D01*
X49455740Y-89281000D01*
X49389558Y-89274482D01*
X49323373Y-89267963D01*
X49153534Y-89216443D01*
X48997009Y-89132778D01*
X48944905Y-89090017D01*
X48859814Y-89020186D01*
X48776552Y-88918729D01*
X48747222Y-88882991D01*
X48663557Y-88726466D01*
X48612037Y-88556627D01*
X48594641Y-88380000D01*
X48612037Y-88203373D01*
X48663557Y-88033534D01*
X48747222Y-87877009D01*
X48797675Y-87815532D01*
X48859814Y-87739814D01*
X48970473Y-87649000D01*
X48997009Y-87627222D01*
X49153534Y-87543557D01*
X49323373Y-87492037D01*
X49389558Y-87485518D01*
X49455740Y-87479000D01*
X49544260Y-87479000D01*
X49610442Y-87485518D01*
X49610442Y-87485518D01*
G37*
G36*
X55501000Y-89251800D02*
G01*
X53699000Y-89251800D01*
X53699000Y-87449800D01*
X55501000Y-87449800D01*
X55501000Y-89251800D01*
X55501000Y-89251800D01*
G37*
G36*
X45334468Y-87653565D02*
G01*
X45373138Y-87665296D01*
X45408777Y-87684346D01*
X45440017Y-87709983D01*
X45465654Y-87741223D01*
X45484704Y-87776862D01*
X45496435Y-87815532D01*
X45501000Y-87861888D01*
X45501000Y-88938112D01*
X45496435Y-88984468D01*
X45484704Y-89023138D01*
X45465654Y-89058777D01*
X45440017Y-89090017D01*
X45408777Y-89115654D01*
X45373138Y-89134704D01*
X45334468Y-89146435D01*
X45288112Y-89151000D01*
X44636888Y-89151000D01*
X44590532Y-89146435D01*
X44551862Y-89134704D01*
X44516223Y-89115654D01*
X44484983Y-89090017D01*
X44459346Y-89058777D01*
X44440296Y-89023138D01*
X44428565Y-88984468D01*
X44424000Y-88938112D01*
X44424000Y-87861888D01*
X44428565Y-87815532D01*
X44440296Y-87776862D01*
X44459346Y-87741223D01*
X44484983Y-87709983D01*
X44516223Y-87684346D01*
X44551862Y-87665296D01*
X44590532Y-87653565D01*
X44636888Y-87649000D01*
X45288112Y-87649000D01*
X45334468Y-87653565D01*
X45334468Y-87653565D01*
G37*
G36*
X47209468Y-87653565D02*
G01*
X47248138Y-87665296D01*
X47283777Y-87684346D01*
X47315017Y-87709983D01*
X47340654Y-87741223D01*
X47359704Y-87776862D01*
X47371435Y-87815532D01*
X47376000Y-87861888D01*
X47376000Y-88938112D01*
X47371435Y-88984468D01*
X47359704Y-89023138D01*
X47340654Y-89058777D01*
X47315017Y-89090017D01*
X47283777Y-89115654D01*
X47248138Y-89134704D01*
X47209468Y-89146435D01*
X47163112Y-89151000D01*
X46511888Y-89151000D01*
X46465532Y-89146435D01*
X46426862Y-89134704D01*
X46391223Y-89115654D01*
X46359983Y-89090017D01*
X46334346Y-89058777D01*
X46315296Y-89023138D01*
X46303565Y-88984468D01*
X46299000Y-88938112D01*
X46299000Y-87861888D01*
X46303565Y-87815532D01*
X46315296Y-87776862D01*
X46334346Y-87741223D01*
X46359983Y-87709983D01*
X46391223Y-87684346D01*
X46426862Y-87665296D01*
X46465532Y-87653565D01*
X46511888Y-87649000D01*
X47163112Y-87649000D01*
X47209468Y-87653565D01*
X47209468Y-87653565D01*
G37*
G36*
X58035268Y-87854365D02*
G01*
X58073938Y-87866096D01*
X58109577Y-87885146D01*
X58140817Y-87910783D01*
X58166454Y-87942023D01*
X58185504Y-87977662D01*
X58197235Y-88016332D01*
X58201800Y-88062688D01*
X58201800Y-88713912D01*
X58197235Y-88760268D01*
X58185504Y-88798938D01*
X58166454Y-88834577D01*
X58140817Y-88865817D01*
X58109577Y-88891454D01*
X58073938Y-88910504D01*
X58035268Y-88922235D01*
X57988912Y-88926800D01*
X56912688Y-88926800D01*
X56866332Y-88922235D01*
X56827662Y-88910504D01*
X56792023Y-88891454D01*
X56760783Y-88865817D01*
X56735146Y-88834577D01*
X56716096Y-88798938D01*
X56704365Y-88760268D01*
X56699800Y-88713912D01*
X56699800Y-88062688D01*
X56704365Y-88016332D01*
X56716096Y-87977662D01*
X56735146Y-87942023D01*
X56760783Y-87910783D01*
X56792023Y-87885146D01*
X56827662Y-87866096D01*
X56866332Y-87854365D01*
X56912688Y-87849800D01*
X57988912Y-87849800D01*
X58035268Y-87854365D01*
X58035268Y-87854365D01*
G37*
G36*
X42805997Y-84603051D02*
G01*
X42839652Y-84613261D01*
X42870665Y-84629838D01*
X42897851Y-84652149D01*
X42920162Y-84679335D01*
X42936739Y-84710348D01*
X42946949Y-84744003D01*
X42951000Y-84785138D01*
X42951000Y-88014862D01*
X42946949Y-88055997D01*
X42936739Y-88089652D01*
X42920162Y-88120665D01*
X42897851Y-88147851D01*
X42870665Y-88170162D01*
X42839652Y-88186739D01*
X42805997Y-88196949D01*
X42764862Y-88201000D01*
X41435138Y-88201000D01*
X41394003Y-88196949D01*
X41360348Y-88186739D01*
X41329335Y-88170162D01*
X41302149Y-88147851D01*
X41279838Y-88120665D01*
X41263261Y-88089652D01*
X41253051Y-88055997D01*
X41249000Y-88014862D01*
X41249000Y-84785138D01*
X41253051Y-84744003D01*
X41263261Y-84710348D01*
X41279838Y-84679335D01*
X41302149Y-84652149D01*
X41329335Y-84629838D01*
X41360348Y-84613261D01*
X41394003Y-84603051D01*
X41435138Y-84599000D01*
X42764862Y-84599000D01*
X42805997Y-84603051D01*
X42805997Y-84603051D01*
G37*
G36*
X58035268Y-85979365D02*
G01*
X58073938Y-85991096D01*
X58109577Y-86010146D01*
X58140817Y-86035783D01*
X58166454Y-86067023D01*
X58185504Y-86102662D01*
X58197235Y-86141332D01*
X58201800Y-86187688D01*
X58201800Y-86838912D01*
X58197235Y-86885268D01*
X58185504Y-86923938D01*
X58166454Y-86959577D01*
X58140817Y-86990817D01*
X58109577Y-87016454D01*
X58073938Y-87035504D01*
X58035268Y-87047235D01*
X57988912Y-87051800D01*
X56912688Y-87051800D01*
X56866332Y-87047235D01*
X56827662Y-87035504D01*
X56792023Y-87016454D01*
X56760783Y-86990817D01*
X56735146Y-86959577D01*
X56716096Y-86923938D01*
X56704365Y-86885268D01*
X56699800Y-86838912D01*
X56699800Y-86187688D01*
X56704365Y-86141332D01*
X56716096Y-86102662D01*
X56735146Y-86067023D01*
X56760783Y-86035783D01*
X56792023Y-86010146D01*
X56827662Y-85991096D01*
X56866332Y-85979365D01*
X56912688Y-85974800D01*
X57988912Y-85974800D01*
X58035268Y-85979365D01*
X58035268Y-85979365D01*
G37*
G36*
X49610442Y-84945518D02*
G01*
X49676627Y-84952037D01*
X49846466Y-85003557D01*
X50002991Y-85087222D01*
X50038729Y-85116552D01*
X50140186Y-85199814D01*
X50223448Y-85301271D01*
X50252778Y-85337009D01*
X50336443Y-85493534D01*
X50387963Y-85663373D01*
X50405359Y-85840000D01*
X50387963Y-86016627D01*
X50345300Y-86157268D01*
X50336442Y-86186468D01*
X50305663Y-86244050D01*
X50252778Y-86342991D01*
X50223448Y-86378729D01*
X50140186Y-86480186D01*
X50038729Y-86563448D01*
X50002991Y-86592778D01*
X49846466Y-86676443D01*
X49676627Y-86727963D01*
X49610443Y-86734481D01*
X49544260Y-86741000D01*
X49455740Y-86741000D01*
X49389557Y-86734481D01*
X49323373Y-86727963D01*
X49153534Y-86676443D01*
X48997009Y-86592778D01*
X48961271Y-86563448D01*
X48859814Y-86480186D01*
X48776552Y-86378729D01*
X48747222Y-86342991D01*
X48694337Y-86244050D01*
X48663558Y-86186468D01*
X48654700Y-86157268D01*
X48612037Y-86016627D01*
X48594641Y-85840000D01*
X48612037Y-85663373D01*
X48663557Y-85493534D01*
X48747222Y-85337009D01*
X48776552Y-85301271D01*
X48859814Y-85199814D01*
X48961271Y-85116552D01*
X48997009Y-85087222D01*
X49153534Y-85003557D01*
X49323373Y-84952037D01*
X49389558Y-84945518D01*
X49455740Y-84939000D01*
X49544260Y-84939000D01*
X49610442Y-84945518D01*
X49610442Y-84945518D01*
G37*
G36*
X54710443Y-84916319D02*
G01*
X54776627Y-84922837D01*
X54946466Y-84974357D01*
X55102991Y-85058022D01*
X55138570Y-85087221D01*
X55240186Y-85170614D01*
X55323448Y-85272071D01*
X55352778Y-85307809D01*
X55352779Y-85307811D01*
X55433741Y-85459278D01*
X55436443Y-85464334D01*
X55487963Y-85634173D01*
X55505359Y-85810800D01*
X55487963Y-85987427D01*
X55436443Y-86157266D01*
X55352778Y-86313791D01*
X55328816Y-86342989D01*
X55240186Y-86450986D01*
X55138729Y-86534248D01*
X55102991Y-86563578D01*
X54946466Y-86647243D01*
X54776627Y-86698763D01*
X54710442Y-86705282D01*
X54644260Y-86711800D01*
X54555740Y-86711800D01*
X54489558Y-86705282D01*
X54423373Y-86698763D01*
X54253534Y-86647243D01*
X54097009Y-86563578D01*
X54061271Y-86534248D01*
X53959814Y-86450986D01*
X53871184Y-86342989D01*
X53847222Y-86313791D01*
X53763557Y-86157266D01*
X53712037Y-85987427D01*
X53694641Y-85810800D01*
X53712037Y-85634173D01*
X53763557Y-85464334D01*
X53766260Y-85459278D01*
X53847221Y-85307811D01*
X53847222Y-85307809D01*
X53876552Y-85272071D01*
X53959814Y-85170614D01*
X54061430Y-85087221D01*
X54097009Y-85058022D01*
X54253534Y-84974357D01*
X54423373Y-84922837D01*
X54489557Y-84916319D01*
X54555740Y-84909800D01*
X54644260Y-84909800D01*
X54710443Y-84916319D01*
X54710443Y-84916319D01*
G37*
G36*
X47284468Y-84603565D02*
G01*
X47323138Y-84615296D01*
X47358777Y-84634346D01*
X47390017Y-84659983D01*
X47415654Y-84691223D01*
X47434704Y-84726862D01*
X47446435Y-84765532D01*
X47451000Y-84811888D01*
X47451000Y-85463112D01*
X47446435Y-85509468D01*
X47434704Y-85548138D01*
X47415654Y-85583777D01*
X47390017Y-85615017D01*
X47358777Y-85640654D01*
X47323138Y-85659704D01*
X47284468Y-85671435D01*
X47238112Y-85676000D01*
X46161888Y-85676000D01*
X46115532Y-85671435D01*
X46076862Y-85659704D01*
X46041223Y-85640654D01*
X46009983Y-85615017D01*
X45984346Y-85583777D01*
X45965296Y-85548138D01*
X45953565Y-85509468D01*
X45949000Y-85463112D01*
X45949000Y-84811888D01*
X45953565Y-84765532D01*
X45965296Y-84726862D01*
X45984346Y-84691223D01*
X46009983Y-84659983D01*
X46041223Y-84634346D01*
X46076862Y-84615296D01*
X46115532Y-84603565D01*
X46161888Y-84599000D01*
X47238112Y-84599000D01*
X47284468Y-84603565D01*
X47284468Y-84603565D01*
G37*
G36*
X50401000Y-84201000D02*
G01*
X48599000Y-84201000D01*
X48599000Y-82399000D01*
X50401000Y-82399000D01*
X50401000Y-84201000D01*
X50401000Y-84201000D01*
G37*
G36*
X54710442Y-82376318D02*
G01*
X54776627Y-82382837D01*
X54946466Y-82434357D01*
X55102991Y-82518022D01*
X55136079Y-82545177D01*
X55240186Y-82630614D01*
X55316825Y-82724000D01*
X55352778Y-82767809D01*
X55436443Y-82924334D01*
X55487963Y-83094173D01*
X55505359Y-83270800D01*
X55487963Y-83447427D01*
X55436443Y-83617266D01*
X55352778Y-83773791D01*
X55340368Y-83788912D01*
X55240186Y-83910986D01*
X55149384Y-83985504D01*
X55102991Y-84023578D01*
X54946466Y-84107243D01*
X54776627Y-84158763D01*
X54710443Y-84165281D01*
X54644260Y-84171800D01*
X54555740Y-84171800D01*
X54489557Y-84165281D01*
X54423373Y-84158763D01*
X54253534Y-84107243D01*
X54097009Y-84023578D01*
X54050616Y-83985504D01*
X53959814Y-83910986D01*
X53859632Y-83788912D01*
X53847222Y-83773791D01*
X53763557Y-83617266D01*
X53712037Y-83447427D01*
X53694641Y-83270800D01*
X53712037Y-83094173D01*
X53763557Y-82924334D01*
X53847222Y-82767809D01*
X53883175Y-82724000D01*
X53959814Y-82630614D01*
X54063921Y-82545177D01*
X54097009Y-82518022D01*
X54253534Y-82434357D01*
X54423373Y-82382837D01*
X54489558Y-82376318D01*
X54555740Y-82369800D01*
X54644260Y-82369800D01*
X54710442Y-82376318D01*
X54710442Y-82376318D01*
G37*
G36*
X57585268Y-82504365D02*
G01*
X57623938Y-82516096D01*
X57659577Y-82535146D01*
X57690817Y-82560783D01*
X57716454Y-82592023D01*
X57735504Y-82627662D01*
X57747235Y-82666332D01*
X57751800Y-82712688D01*
X57751800Y-83788912D01*
X57747235Y-83835268D01*
X57735504Y-83873938D01*
X57716454Y-83909577D01*
X57690817Y-83940817D01*
X57659577Y-83966454D01*
X57623938Y-83985504D01*
X57585268Y-83997235D01*
X57538912Y-84001800D01*
X56887688Y-84001800D01*
X56841332Y-83997235D01*
X56802662Y-83985504D01*
X56767023Y-83966454D01*
X56735783Y-83940817D01*
X56710146Y-83909577D01*
X56691096Y-83873938D01*
X56679365Y-83835268D01*
X56674800Y-83788912D01*
X56674800Y-82712688D01*
X56679365Y-82666332D01*
X56691096Y-82627662D01*
X56710146Y-82592023D01*
X56735783Y-82560783D01*
X56767023Y-82535146D01*
X56802662Y-82516096D01*
X56841332Y-82504365D01*
X56887688Y-82499800D01*
X57538912Y-82499800D01*
X57585268Y-82504365D01*
X57585268Y-82504365D01*
G37*
G36*
X59460268Y-82504365D02*
G01*
X59498938Y-82516096D01*
X59534577Y-82535146D01*
X59565817Y-82560783D01*
X59591454Y-82592023D01*
X59610504Y-82627662D01*
X59622235Y-82666332D01*
X59626800Y-82712688D01*
X59626800Y-83788912D01*
X59622235Y-83835268D01*
X59610504Y-83873938D01*
X59591454Y-83909577D01*
X59565817Y-83940817D01*
X59534577Y-83966454D01*
X59498938Y-83985504D01*
X59460268Y-83997235D01*
X59413912Y-84001800D01*
X58762688Y-84001800D01*
X58716332Y-83997235D01*
X58677662Y-83985504D01*
X58642023Y-83966454D01*
X58610783Y-83940817D01*
X58585146Y-83909577D01*
X58566096Y-83873938D01*
X58554365Y-83835268D01*
X58549800Y-83788912D01*
X58549800Y-82712688D01*
X58554365Y-82666332D01*
X58566096Y-82627662D01*
X58585146Y-82592023D01*
X58610783Y-82560783D01*
X58642023Y-82535146D01*
X58677662Y-82516096D01*
X58716332Y-82504365D01*
X58762688Y-82499800D01*
X59413912Y-82499800D01*
X59460268Y-82504365D01*
X59460268Y-82504365D01*
G37*
G36*
X47284468Y-82728565D02*
G01*
X47323138Y-82740296D01*
X47358777Y-82759346D01*
X47390017Y-82784983D01*
X47415654Y-82816223D01*
X47434704Y-82851862D01*
X47446435Y-82890532D01*
X47451000Y-82936888D01*
X47451000Y-83588112D01*
X47446435Y-83634468D01*
X47434704Y-83673138D01*
X47415654Y-83708777D01*
X47390017Y-83740017D01*
X47358777Y-83765654D01*
X47323138Y-83784704D01*
X47284468Y-83796435D01*
X47238112Y-83801000D01*
X46161888Y-83801000D01*
X46115532Y-83796435D01*
X46076862Y-83784704D01*
X46041223Y-83765654D01*
X46009983Y-83740017D01*
X45984346Y-83708777D01*
X45965296Y-83673138D01*
X45953565Y-83634468D01*
X45949000Y-83588112D01*
X45949000Y-82936888D01*
X45953565Y-82890532D01*
X45965296Y-82851862D01*
X45984346Y-82816223D01*
X46009983Y-82784983D01*
X46041223Y-82759346D01*
X46076862Y-82740296D01*
X46115532Y-82728565D01*
X46161888Y-82724000D01*
X47238112Y-82724000D01*
X47284468Y-82728565D01*
X47284468Y-82728565D01*
G37*
G36*
X42805997Y-79203051D02*
G01*
X42839652Y-79213261D01*
X42870665Y-79229838D01*
X42897851Y-79252149D01*
X42920162Y-79279335D01*
X42936739Y-79310348D01*
X42946949Y-79344003D01*
X42951000Y-79385138D01*
X42951000Y-82614862D01*
X42946949Y-82655997D01*
X42936739Y-82689652D01*
X42920162Y-82720665D01*
X42897851Y-82747851D01*
X42870665Y-82770162D01*
X42839652Y-82786739D01*
X42805997Y-82796949D01*
X42764862Y-82801000D01*
X41435138Y-82801000D01*
X41394003Y-82796949D01*
X41360348Y-82786739D01*
X41329335Y-82770162D01*
X41302149Y-82747851D01*
X41279838Y-82720665D01*
X41263261Y-82689652D01*
X41253051Y-82655997D01*
X41249000Y-82614862D01*
X41249000Y-79385138D01*
X41253051Y-79344003D01*
X41263261Y-79310348D01*
X41279838Y-79279335D01*
X41302149Y-79252149D01*
X41329335Y-79229838D01*
X41360348Y-79213261D01*
X41394003Y-79203051D01*
X41435138Y-79199000D01*
X42764862Y-79199000D01*
X42805997Y-79203051D01*
X42805997Y-79203051D01*
G37*
G36*
X49610443Y-77385519D02*
G01*
X49676627Y-77392037D01*
X49846466Y-77443557D01*
X50002991Y-77527222D01*
X50038729Y-77556552D01*
X50140186Y-77639814D01*
X50197771Y-77709983D01*
X50252778Y-77777009D01*
X50252779Y-77777011D01*
X50328274Y-77918250D01*
X50336443Y-77933534D01*
X50387963Y-78103373D01*
X50405359Y-78280000D01*
X50387963Y-78456627D01*
X50336443Y-78626466D01*
X50252778Y-78782991D01*
X50232962Y-78807137D01*
X50140186Y-78920186D01*
X50061467Y-78984788D01*
X50002991Y-79032778D01*
X49846466Y-79116443D01*
X49676627Y-79167963D01*
X49610442Y-79174482D01*
X49544260Y-79181000D01*
X49455740Y-79181000D01*
X49389558Y-79174482D01*
X49323373Y-79167963D01*
X49153534Y-79116443D01*
X48997009Y-79032778D01*
X48938533Y-78984788D01*
X48859814Y-78920186D01*
X48767038Y-78807137D01*
X48747222Y-78782991D01*
X48663557Y-78626466D01*
X48612037Y-78456627D01*
X48594641Y-78280000D01*
X48612037Y-78103373D01*
X48663557Y-77933534D01*
X48671727Y-77918250D01*
X48747221Y-77777011D01*
X48747222Y-77777009D01*
X48802229Y-77709983D01*
X48859814Y-77639814D01*
X48961271Y-77556552D01*
X48997009Y-77527222D01*
X49153534Y-77443557D01*
X49323373Y-77392037D01*
X49389557Y-77385519D01*
X49455740Y-77379000D01*
X49544260Y-77379000D01*
X49610443Y-77385519D01*
X49610443Y-77385519D01*
G37*
G36*
X55501000Y-79151000D02*
G01*
X53699000Y-79151000D01*
X53699000Y-77349000D01*
X55501000Y-77349000D01*
X55501000Y-79151000D01*
X55501000Y-79151000D01*
G37*
G36*
X47209468Y-77653565D02*
G01*
X47248138Y-77665296D01*
X47283777Y-77684346D01*
X47315017Y-77709983D01*
X47340654Y-77741223D01*
X47359704Y-77776862D01*
X47371435Y-77815532D01*
X47376000Y-77861888D01*
X47376000Y-78938112D01*
X47371435Y-78984468D01*
X47359704Y-79023138D01*
X47340654Y-79058777D01*
X47315017Y-79090017D01*
X47283777Y-79115654D01*
X47248138Y-79134704D01*
X47209468Y-79146435D01*
X47163112Y-79151000D01*
X46511888Y-79151000D01*
X46465532Y-79146435D01*
X46426862Y-79134704D01*
X46391223Y-79115654D01*
X46359983Y-79090017D01*
X46334346Y-79058777D01*
X46315296Y-79023138D01*
X46303565Y-78984468D01*
X46299000Y-78938112D01*
X46299000Y-77861888D01*
X46303565Y-77815532D01*
X46315296Y-77776862D01*
X46334346Y-77741223D01*
X46359983Y-77709983D01*
X46391223Y-77684346D01*
X46426862Y-77665296D01*
X46465532Y-77653565D01*
X46511888Y-77649000D01*
X47163112Y-77649000D01*
X47209468Y-77653565D01*
X47209468Y-77653565D01*
G37*
G36*
X45334468Y-77653565D02*
G01*
X45373138Y-77665296D01*
X45408777Y-77684346D01*
X45440017Y-77709983D01*
X45465654Y-77741223D01*
X45484704Y-77776862D01*
X45496435Y-77815532D01*
X45501000Y-77861888D01*
X45501000Y-78938112D01*
X45496435Y-78984468D01*
X45484704Y-79023138D01*
X45465654Y-79058777D01*
X45440017Y-79090017D01*
X45408777Y-79115654D01*
X45373138Y-79134704D01*
X45334468Y-79146435D01*
X45288112Y-79151000D01*
X44636888Y-79151000D01*
X44590532Y-79146435D01*
X44551862Y-79134704D01*
X44516223Y-79115654D01*
X44484983Y-79090017D01*
X44459346Y-79058777D01*
X44440296Y-79023138D01*
X44428565Y-78984468D01*
X44424000Y-78938112D01*
X44424000Y-77861888D01*
X44428565Y-77815532D01*
X44440296Y-77776862D01*
X44459346Y-77741223D01*
X44484983Y-77709983D01*
X44516223Y-77684346D01*
X44551862Y-77665296D01*
X44590532Y-77653565D01*
X44636888Y-77649000D01*
X45288112Y-77649000D01*
X45334468Y-77653565D01*
X45334468Y-77653565D01*
G37*
G36*
X58035268Y-77854365D02*
G01*
X58073938Y-77866096D01*
X58109577Y-77885146D01*
X58140817Y-77910783D01*
X58166454Y-77942023D01*
X58185504Y-77977662D01*
X58197235Y-78016332D01*
X58201800Y-78062688D01*
X58201800Y-78713912D01*
X58197235Y-78760268D01*
X58185504Y-78798938D01*
X58166454Y-78834577D01*
X58140817Y-78865817D01*
X58109577Y-78891454D01*
X58073938Y-78910504D01*
X58035268Y-78922235D01*
X57988912Y-78926800D01*
X56912688Y-78926800D01*
X56866332Y-78922235D01*
X56827662Y-78910504D01*
X56792023Y-78891454D01*
X56760783Y-78865817D01*
X56735146Y-78834577D01*
X56716096Y-78798938D01*
X56704365Y-78760268D01*
X56699800Y-78713912D01*
X56699800Y-78062688D01*
X56704365Y-78016332D01*
X56716096Y-77977662D01*
X56735146Y-77942023D01*
X56760783Y-77910783D01*
X56792023Y-77885146D01*
X56827662Y-77866096D01*
X56866332Y-77854365D01*
X56912688Y-77849800D01*
X57988912Y-77849800D01*
X58035268Y-77854365D01*
X58035268Y-77854365D01*
G37*
G36*
X58035268Y-75979365D02*
G01*
X58073938Y-75991096D01*
X58109577Y-76010146D01*
X58140817Y-76035783D01*
X58166454Y-76067023D01*
X58185504Y-76102662D01*
X58197235Y-76141332D01*
X58201800Y-76187688D01*
X58201800Y-76838912D01*
X58197235Y-76885268D01*
X58185504Y-76923938D01*
X58166454Y-76959577D01*
X58140817Y-76990817D01*
X58109577Y-77016454D01*
X58073938Y-77035504D01*
X58035268Y-77047235D01*
X57988912Y-77051800D01*
X56912688Y-77051800D01*
X56866332Y-77047235D01*
X56827662Y-77035504D01*
X56792023Y-77016454D01*
X56760783Y-76990817D01*
X56735146Y-76959577D01*
X56716096Y-76923938D01*
X56704365Y-76885268D01*
X56699800Y-76838912D01*
X56699800Y-76187688D01*
X56704365Y-76141332D01*
X56716096Y-76102662D01*
X56735146Y-76067023D01*
X56760783Y-76035783D01*
X56792023Y-76010146D01*
X56827662Y-75991096D01*
X56866332Y-75979365D01*
X56912688Y-75974800D01*
X57988912Y-75974800D01*
X58035268Y-75979365D01*
X58035268Y-75979365D01*
G37*
G36*
X49610443Y-74845519D02*
G01*
X49676627Y-74852037D01*
X49846466Y-74903557D01*
X50002991Y-74987222D01*
X50038729Y-75016552D01*
X50140186Y-75099814D01*
X50223448Y-75201271D01*
X50252778Y-75237009D01*
X50252779Y-75237011D01*
X50320407Y-75363532D01*
X50336443Y-75393534D01*
X50387963Y-75563373D01*
X50405359Y-75740000D01*
X50387963Y-75916627D01*
X50342341Y-76067023D01*
X50336442Y-76086468D01*
X50327786Y-76102662D01*
X50252778Y-76242991D01*
X50223448Y-76278729D01*
X50140186Y-76380186D01*
X50039546Y-76462778D01*
X50002991Y-76492778D01*
X50002989Y-76492779D01*
X49902594Y-76546442D01*
X49846466Y-76576443D01*
X49676627Y-76627963D01*
X49610443Y-76634481D01*
X49544260Y-76641000D01*
X49455740Y-76641000D01*
X49389557Y-76634481D01*
X49323373Y-76627963D01*
X49153534Y-76576443D01*
X49097407Y-76546442D01*
X48997011Y-76492779D01*
X48997009Y-76492778D01*
X48960454Y-76462778D01*
X48859814Y-76380186D01*
X48776552Y-76278729D01*
X48747222Y-76242991D01*
X48672214Y-76102662D01*
X48663558Y-76086468D01*
X48657659Y-76067023D01*
X48612037Y-75916627D01*
X48594641Y-75740000D01*
X48612037Y-75563373D01*
X48663557Y-75393534D01*
X48679594Y-75363532D01*
X48747221Y-75237011D01*
X48747222Y-75237009D01*
X48776552Y-75201271D01*
X48859814Y-75099814D01*
X48961271Y-75016552D01*
X48997009Y-74987222D01*
X49153534Y-74903557D01*
X49323373Y-74852037D01*
X49389557Y-74845519D01*
X49455740Y-74839000D01*
X49544260Y-74839000D01*
X49610443Y-74845519D01*
X49610443Y-74845519D01*
G37*
G36*
X54710442Y-74815518D02*
G01*
X54776627Y-74822037D01*
X54946466Y-74873557D01*
X54946468Y-74873558D01*
X55024729Y-74915390D01*
X55102991Y-74957222D01*
X55138729Y-74986552D01*
X55240186Y-75069814D01*
X55323448Y-75171271D01*
X55352778Y-75207009D01*
X55436443Y-75363534D01*
X55487963Y-75533373D01*
X55505359Y-75710000D01*
X55487963Y-75886627D01*
X55436443Y-76056466D01*
X55436442Y-76056468D01*
X55416133Y-76094463D01*
X55352778Y-76212991D01*
X55328159Y-76242989D01*
X55240186Y-76350186D01*
X55138729Y-76433448D01*
X55102991Y-76462778D01*
X54946466Y-76546443D01*
X54776627Y-76597963D01*
X54710442Y-76604482D01*
X54644260Y-76611000D01*
X54555740Y-76611000D01*
X54489558Y-76604482D01*
X54423373Y-76597963D01*
X54253534Y-76546443D01*
X54097009Y-76462778D01*
X54061271Y-76433448D01*
X53959814Y-76350186D01*
X53871841Y-76242989D01*
X53847222Y-76212991D01*
X53783867Y-76094463D01*
X53763558Y-76056468D01*
X53763557Y-76056466D01*
X53712037Y-75886627D01*
X53694641Y-75710000D01*
X53712037Y-75533373D01*
X53763557Y-75363534D01*
X53847222Y-75207009D01*
X53876552Y-75171271D01*
X53959814Y-75069814D01*
X54061271Y-74986552D01*
X54097009Y-74957222D01*
X54175271Y-74915390D01*
X54253532Y-74873558D01*
X54253534Y-74873557D01*
X54423373Y-74822037D01*
X54489558Y-74815518D01*
X54555740Y-74809000D01*
X54644260Y-74809000D01*
X54710442Y-74815518D01*
X54710442Y-74815518D01*
G37*
G36*
X47084468Y-74603565D02*
G01*
X47123138Y-74615296D01*
X47158777Y-74634346D01*
X47190017Y-74659983D01*
X47215654Y-74691223D01*
X47234704Y-74726862D01*
X47246435Y-74765532D01*
X47251000Y-74811888D01*
X47251000Y-75463112D01*
X47246435Y-75509468D01*
X47234704Y-75548138D01*
X47215654Y-75583777D01*
X47190017Y-75615017D01*
X47158777Y-75640654D01*
X47123138Y-75659704D01*
X47084468Y-75671435D01*
X47038112Y-75676000D01*
X45961888Y-75676000D01*
X45915532Y-75671435D01*
X45876862Y-75659704D01*
X45841223Y-75640654D01*
X45809983Y-75615017D01*
X45784346Y-75583777D01*
X45765296Y-75548138D01*
X45753565Y-75509468D01*
X45749000Y-75463112D01*
X45749000Y-74811888D01*
X45753565Y-74765532D01*
X45765296Y-74726862D01*
X45784346Y-74691223D01*
X45809983Y-74659983D01*
X45841223Y-74634346D01*
X45876862Y-74615296D01*
X45915532Y-74603565D01*
X45961888Y-74599000D01*
X47038112Y-74599000D01*
X47084468Y-74603565D01*
X47084468Y-74603565D01*
G37*
G36*
X50401000Y-74101000D02*
G01*
X48599000Y-74101000D01*
X48599000Y-72299000D01*
X50401000Y-72299000D01*
X50401000Y-74101000D01*
X50401000Y-74101000D01*
G37*
G36*
X54710442Y-72275518D02*
G01*
X54776627Y-72282037D01*
X54946466Y-72333557D01*
X55102991Y-72417222D01*
X55138729Y-72446552D01*
X55240186Y-72529814D01*
X55313758Y-72619463D01*
X55352778Y-72667009D01*
X55436443Y-72823534D01*
X55487963Y-72993373D01*
X55505359Y-73170000D01*
X55487963Y-73346627D01*
X55436443Y-73516466D01*
X55436442Y-73516468D01*
X55400196Y-73584278D01*
X55352778Y-73672991D01*
X55323448Y-73708729D01*
X55240186Y-73810186D01*
X55152512Y-73882137D01*
X55102991Y-73922778D01*
X54946466Y-74006443D01*
X54776627Y-74057963D01*
X54710443Y-74064481D01*
X54644260Y-74071000D01*
X54555740Y-74071000D01*
X54489557Y-74064481D01*
X54423373Y-74057963D01*
X54253534Y-74006443D01*
X54097009Y-73922778D01*
X54047488Y-73882137D01*
X53959814Y-73810186D01*
X53876552Y-73708729D01*
X53847222Y-73672991D01*
X53799804Y-73584278D01*
X53763558Y-73516468D01*
X53763557Y-73516466D01*
X53712037Y-73346627D01*
X53694641Y-73170000D01*
X53712037Y-72993373D01*
X53763557Y-72823534D01*
X53847222Y-72667009D01*
X53886242Y-72619463D01*
X53959814Y-72529814D01*
X54061271Y-72446552D01*
X54097009Y-72417222D01*
X54253534Y-72333557D01*
X54423373Y-72282037D01*
X54489558Y-72275518D01*
X54555740Y-72269000D01*
X54644260Y-72269000D01*
X54710442Y-72275518D01*
X54710442Y-72275518D01*
G37*
G36*
X59460268Y-72504365D02*
G01*
X59498938Y-72516096D01*
X59534577Y-72535146D01*
X59565817Y-72560783D01*
X59591454Y-72592023D01*
X59610504Y-72627662D01*
X59622235Y-72666332D01*
X59626800Y-72712688D01*
X59626800Y-73788912D01*
X59622235Y-73835268D01*
X59610504Y-73873938D01*
X59591454Y-73909577D01*
X59565817Y-73940817D01*
X59534577Y-73966454D01*
X59498938Y-73985504D01*
X59460268Y-73997235D01*
X59413912Y-74001800D01*
X58762688Y-74001800D01*
X58716332Y-73997235D01*
X58677662Y-73985504D01*
X58642023Y-73966454D01*
X58610783Y-73940817D01*
X58585146Y-73909577D01*
X58566096Y-73873938D01*
X58554365Y-73835268D01*
X58549800Y-73788912D01*
X58549800Y-72712688D01*
X58554365Y-72666332D01*
X58566096Y-72627662D01*
X58585146Y-72592023D01*
X58610783Y-72560783D01*
X58642023Y-72535146D01*
X58677662Y-72516096D01*
X58716332Y-72504365D01*
X58762688Y-72499800D01*
X59413912Y-72499800D01*
X59460268Y-72504365D01*
X59460268Y-72504365D01*
G37*
G36*
X57585268Y-72504365D02*
G01*
X57623938Y-72516096D01*
X57659577Y-72535146D01*
X57690817Y-72560783D01*
X57716454Y-72592023D01*
X57735504Y-72627662D01*
X57747235Y-72666332D01*
X57751800Y-72712688D01*
X57751800Y-73788912D01*
X57747235Y-73835268D01*
X57735504Y-73873938D01*
X57716454Y-73909577D01*
X57690817Y-73940817D01*
X57659577Y-73966454D01*
X57623938Y-73985504D01*
X57585268Y-73997235D01*
X57538912Y-74001800D01*
X56887688Y-74001800D01*
X56841332Y-73997235D01*
X56802662Y-73985504D01*
X56767023Y-73966454D01*
X56735783Y-73940817D01*
X56710146Y-73909577D01*
X56691096Y-73873938D01*
X56679365Y-73835268D01*
X56674800Y-73788912D01*
X56674800Y-72712688D01*
X56679365Y-72666332D01*
X56691096Y-72627662D01*
X56710146Y-72592023D01*
X56735783Y-72560783D01*
X56767023Y-72535146D01*
X56802662Y-72516096D01*
X56841332Y-72504365D01*
X56887688Y-72499800D01*
X57538912Y-72499800D01*
X57585268Y-72504365D01*
X57585268Y-72504365D01*
G37*
G36*
X47084468Y-72728565D02*
G01*
X47123138Y-72740296D01*
X47158777Y-72759346D01*
X47190017Y-72784983D01*
X47215654Y-72816223D01*
X47234704Y-72851862D01*
X47246435Y-72890532D01*
X47251000Y-72936888D01*
X47251000Y-73588112D01*
X47246435Y-73634468D01*
X47234704Y-73673138D01*
X47215654Y-73708777D01*
X47190017Y-73740017D01*
X47158777Y-73765654D01*
X47123138Y-73784704D01*
X47084468Y-73796435D01*
X47038112Y-73801000D01*
X45961888Y-73801000D01*
X45915532Y-73796435D01*
X45876862Y-73784704D01*
X45841223Y-73765654D01*
X45809983Y-73740017D01*
X45784346Y-73708777D01*
X45765296Y-73673138D01*
X45753565Y-73634468D01*
X45749000Y-73588112D01*
X45749000Y-72936888D01*
X45753565Y-72890532D01*
X45765296Y-72851862D01*
X45784346Y-72816223D01*
X45809983Y-72784983D01*
X45841223Y-72759346D01*
X45876862Y-72740296D01*
X45915532Y-72728565D01*
X45961888Y-72724000D01*
X47038112Y-72724000D01*
X47084468Y-72728565D01*
X47084468Y-72728565D01*
G37*
G36*
X42734468Y-70853565D02*
G01*
X42773138Y-70865296D01*
X42808777Y-70884346D01*
X42840017Y-70909983D01*
X42865654Y-70941223D01*
X42884704Y-70976862D01*
X42896435Y-71015532D01*
X42901000Y-71061888D01*
X42901000Y-72138112D01*
X42896435Y-72184468D01*
X42884704Y-72223138D01*
X42865654Y-72258777D01*
X42840017Y-72290017D01*
X42808777Y-72315654D01*
X42773138Y-72334704D01*
X42734468Y-72346435D01*
X42688112Y-72351000D01*
X42036888Y-72351000D01*
X41990532Y-72346435D01*
X41951862Y-72334704D01*
X41916223Y-72315654D01*
X41884983Y-72290017D01*
X41859346Y-72258777D01*
X41840296Y-72223138D01*
X41828565Y-72184468D01*
X41824000Y-72138112D01*
X41824000Y-71061888D01*
X41828565Y-71015532D01*
X41840296Y-70976862D01*
X41859346Y-70941223D01*
X41884983Y-70909983D01*
X41916223Y-70884346D01*
X41951862Y-70865296D01*
X41990532Y-70853565D01*
X42036888Y-70849000D01*
X42688112Y-70849000D01*
X42734468Y-70853565D01*
X42734468Y-70853565D01*
G37*
G36*
X44609468Y-70853565D02*
G01*
X44648138Y-70865296D01*
X44683777Y-70884346D01*
X44715017Y-70909983D01*
X44740654Y-70941223D01*
X44759704Y-70976862D01*
X44771435Y-71015532D01*
X44776000Y-71061888D01*
X44776000Y-72138112D01*
X44771435Y-72184468D01*
X44759704Y-72223138D01*
X44740654Y-72258777D01*
X44715017Y-72290017D01*
X44683777Y-72315654D01*
X44648138Y-72334704D01*
X44609468Y-72346435D01*
X44563112Y-72351000D01*
X43911888Y-72351000D01*
X43865532Y-72346435D01*
X43826862Y-72334704D01*
X43791223Y-72315654D01*
X43759983Y-72290017D01*
X43734346Y-72258777D01*
X43715296Y-72223138D01*
X43703565Y-72184468D01*
X43699000Y-72138112D01*
X43699000Y-71061888D01*
X43703565Y-71015532D01*
X43715296Y-70976862D01*
X43734346Y-70941223D01*
X43759983Y-70909983D01*
X43791223Y-70884346D01*
X43826862Y-70865296D01*
X43865532Y-70853565D01*
X43911888Y-70849000D01*
X44563112Y-70849000D01*
X44609468Y-70853565D01*
X44609468Y-70853565D01*
G37*
G36*
X59701000Y-71901000D02*
G01*
X58799000Y-71901000D01*
X58799000Y-70899000D01*
X59701000Y-70899000D01*
X59701000Y-71901000D01*
X59701000Y-71901000D01*
G37*
G36*
X57801000Y-71901000D02*
G01*
X56899000Y-71901000D01*
X56899000Y-70899000D01*
X57801000Y-70899000D01*
X57801000Y-71901000D01*
X57801000Y-71901000D01*
G37*
G36*
X56009468Y-69553565D02*
G01*
X56048138Y-69565296D01*
X56083777Y-69584346D01*
X56115017Y-69609983D01*
X56140654Y-69641223D01*
X56159704Y-69676862D01*
X56171435Y-69715532D01*
X56176000Y-69761888D01*
X56176000Y-70838112D01*
X56171435Y-70884468D01*
X56159704Y-70923138D01*
X56140654Y-70958777D01*
X56115017Y-70990017D01*
X56083777Y-71015654D01*
X56048138Y-71034704D01*
X56009468Y-71046435D01*
X55963112Y-71051000D01*
X55311888Y-71051000D01*
X55265532Y-71046435D01*
X55226862Y-71034704D01*
X55191223Y-71015654D01*
X55159983Y-70990017D01*
X55134346Y-70958777D01*
X55115296Y-70923138D01*
X55103565Y-70884468D01*
X55099000Y-70838112D01*
X55099000Y-69761888D01*
X55103565Y-69715532D01*
X55115296Y-69676862D01*
X55134346Y-69641223D01*
X55159983Y-69609983D01*
X55191223Y-69584346D01*
X55226862Y-69565296D01*
X55265532Y-69553565D01*
X55311888Y-69549000D01*
X55963112Y-69549000D01*
X56009468Y-69553565D01*
X56009468Y-69553565D01*
G37*
G36*
X54134468Y-69553565D02*
G01*
X54173138Y-69565296D01*
X54208777Y-69584346D01*
X54240017Y-69609983D01*
X54265654Y-69641223D01*
X54284704Y-69676862D01*
X54296435Y-69715532D01*
X54301000Y-69761888D01*
X54301000Y-70838112D01*
X54296435Y-70884468D01*
X54284704Y-70923138D01*
X54265654Y-70958777D01*
X54240017Y-70990017D01*
X54208777Y-71015654D01*
X54173138Y-71034704D01*
X54134468Y-71046435D01*
X54088112Y-71051000D01*
X53436888Y-71051000D01*
X53390532Y-71046435D01*
X53351862Y-71034704D01*
X53316223Y-71015654D01*
X53284983Y-70990017D01*
X53259346Y-70958777D01*
X53240296Y-70923138D01*
X53228565Y-70884468D01*
X53224000Y-70838112D01*
X53224000Y-69761888D01*
X53228565Y-69715532D01*
X53240296Y-69676862D01*
X53259346Y-69641223D01*
X53284983Y-69609983D01*
X53316223Y-69584346D01*
X53351862Y-69565296D01*
X53390532Y-69553565D01*
X53436888Y-69549000D01*
X54088112Y-69549000D01*
X54134468Y-69553565D01*
X54134468Y-69553565D01*
G37*
G36*
X46409468Y-68853565D02*
G01*
X46448138Y-68865296D01*
X46483777Y-68884346D01*
X46515017Y-68909983D01*
X46540654Y-68941223D01*
X46559704Y-68976862D01*
X46571435Y-69015532D01*
X46576000Y-69061888D01*
X46576000Y-70138112D01*
X46571435Y-70184468D01*
X46559704Y-70223138D01*
X46540654Y-70258777D01*
X46515017Y-70290017D01*
X46483777Y-70315654D01*
X46448138Y-70334704D01*
X46409468Y-70346435D01*
X46363112Y-70351000D01*
X45711888Y-70351000D01*
X45665532Y-70346435D01*
X45626862Y-70334704D01*
X45591223Y-70315654D01*
X45559983Y-70290017D01*
X45534346Y-70258777D01*
X45515296Y-70223138D01*
X45503565Y-70184468D01*
X45499000Y-70138112D01*
X45499000Y-69061888D01*
X45503565Y-69015532D01*
X45515296Y-68976862D01*
X45534346Y-68941223D01*
X45559983Y-68909983D01*
X45591223Y-68884346D01*
X45626862Y-68865296D01*
X45665532Y-68853565D01*
X45711888Y-68849000D01*
X46363112Y-68849000D01*
X46409468Y-68853565D01*
X46409468Y-68853565D01*
G37*
G36*
X44534468Y-68853565D02*
G01*
X44573138Y-68865296D01*
X44608777Y-68884346D01*
X44640017Y-68909983D01*
X44665654Y-68941223D01*
X44684704Y-68976862D01*
X44696435Y-69015532D01*
X44701000Y-69061888D01*
X44701000Y-70138112D01*
X44696435Y-70184468D01*
X44684704Y-70223138D01*
X44665654Y-70258777D01*
X44640017Y-70290017D01*
X44608777Y-70315654D01*
X44573138Y-70334704D01*
X44534468Y-70346435D01*
X44488112Y-70351000D01*
X43836888Y-70351000D01*
X43790532Y-70346435D01*
X43751862Y-70334704D01*
X43716223Y-70315654D01*
X43684983Y-70290017D01*
X43659346Y-70258777D01*
X43640296Y-70223138D01*
X43628565Y-70184468D01*
X43624000Y-70138112D01*
X43624000Y-69061888D01*
X43628565Y-69015532D01*
X43640296Y-68976862D01*
X43659346Y-68941223D01*
X43684983Y-68909983D01*
X43716223Y-68884346D01*
X43751862Y-68865296D01*
X43790532Y-68853565D01*
X43836888Y-68849000D01*
X44488112Y-68849000D01*
X44534468Y-68853565D01*
X44534468Y-68853565D01*
G37*
G36*
X42809468Y-68553565D02*
G01*
X42848138Y-68565296D01*
X42883777Y-68584346D01*
X42915017Y-68609983D01*
X42940654Y-68641223D01*
X42959704Y-68676862D01*
X42971435Y-68715532D01*
X42976000Y-68761888D01*
X42976000Y-69838112D01*
X42971435Y-69884468D01*
X42959704Y-69923138D01*
X42940654Y-69958777D01*
X42915017Y-69990017D01*
X42883777Y-70015654D01*
X42848138Y-70034704D01*
X42809468Y-70046435D01*
X42763112Y-70051000D01*
X42111888Y-70051000D01*
X42065532Y-70046435D01*
X42026862Y-70034704D01*
X41991223Y-70015654D01*
X41959983Y-69990017D01*
X41934346Y-69958777D01*
X41915296Y-69923138D01*
X41903565Y-69884468D01*
X41899000Y-69838112D01*
X41899000Y-68761888D01*
X41903565Y-68715532D01*
X41915296Y-68676862D01*
X41934346Y-68641223D01*
X41959983Y-68609983D01*
X41991223Y-68584346D01*
X42026862Y-68565296D01*
X42065532Y-68553565D01*
X42111888Y-68549000D01*
X42763112Y-68549000D01*
X42809468Y-68553565D01*
X42809468Y-68553565D01*
G37*
G36*
X40934468Y-68553565D02*
G01*
X40973138Y-68565296D01*
X41008777Y-68584346D01*
X41040017Y-68609983D01*
X41065654Y-68641223D01*
X41084704Y-68676862D01*
X41096435Y-68715532D01*
X41101000Y-68761888D01*
X41101000Y-69838112D01*
X41096435Y-69884468D01*
X41084704Y-69923138D01*
X41065654Y-69958777D01*
X41040017Y-69990017D01*
X41008777Y-70015654D01*
X40973138Y-70034704D01*
X40934468Y-70046435D01*
X40888112Y-70051000D01*
X40236888Y-70051000D01*
X40190532Y-70046435D01*
X40151862Y-70034704D01*
X40116223Y-70015654D01*
X40084983Y-69990017D01*
X40059346Y-69958777D01*
X40040296Y-69923138D01*
X40028565Y-69884468D01*
X40024000Y-69838112D01*
X40024000Y-68761888D01*
X40028565Y-68715532D01*
X40040296Y-68676862D01*
X40059346Y-68641223D01*
X40084983Y-68609983D01*
X40116223Y-68584346D01*
X40151862Y-68565296D01*
X40190532Y-68553565D01*
X40236888Y-68549000D01*
X40888112Y-68549000D01*
X40934468Y-68553565D01*
X40934468Y-68553565D01*
G37*
G36*
X58751000Y-69901000D02*
G01*
X57849000Y-69901000D01*
X57849000Y-68899000D01*
X58751000Y-68899000D01*
X58751000Y-69901000D01*
X58751000Y-69901000D01*
G37*
G36*
X63309468Y-67653565D02*
G01*
X63348138Y-67665296D01*
X63383777Y-67684346D01*
X63415017Y-67709983D01*
X63440654Y-67741223D01*
X63459704Y-67776862D01*
X63471435Y-67815532D01*
X63476000Y-67861888D01*
X63476000Y-68938112D01*
X63471435Y-68984468D01*
X63459704Y-69023138D01*
X63440654Y-69058777D01*
X63415017Y-69090017D01*
X63383777Y-69115654D01*
X63348138Y-69134704D01*
X63309468Y-69146435D01*
X63263112Y-69151000D01*
X62611888Y-69151000D01*
X62565532Y-69146435D01*
X62526862Y-69134704D01*
X62491223Y-69115654D01*
X62459983Y-69090017D01*
X62434346Y-69058777D01*
X62415296Y-69023138D01*
X62403565Y-68984468D01*
X62399000Y-68938112D01*
X62399000Y-67861888D01*
X62403565Y-67815532D01*
X62415296Y-67776862D01*
X62434346Y-67741223D01*
X62459983Y-67709983D01*
X62491223Y-67684346D01*
X62526862Y-67665296D01*
X62565532Y-67653565D01*
X62611888Y-67649000D01*
X63263112Y-67649000D01*
X63309468Y-67653565D01*
X63309468Y-67653565D01*
G37*
G36*
X61434468Y-67653565D02*
G01*
X61473138Y-67665296D01*
X61508777Y-67684346D01*
X61540017Y-67709983D01*
X61565654Y-67741223D01*
X61584704Y-67776862D01*
X61596435Y-67815532D01*
X61601000Y-67861888D01*
X61601000Y-68938112D01*
X61596435Y-68984468D01*
X61584704Y-69023138D01*
X61565654Y-69058777D01*
X61540017Y-69090017D01*
X61508777Y-69115654D01*
X61473138Y-69134704D01*
X61434468Y-69146435D01*
X61388112Y-69151000D01*
X60736888Y-69151000D01*
X60690532Y-69146435D01*
X60651862Y-69134704D01*
X60616223Y-69115654D01*
X60584983Y-69090017D01*
X60559346Y-69058777D01*
X60540296Y-69023138D01*
X60528565Y-68984468D01*
X60524000Y-68938112D01*
X60524000Y-67861888D01*
X60528565Y-67815532D01*
X60540296Y-67776862D01*
X60559346Y-67741223D01*
X60584983Y-67709983D01*
X60616223Y-67684346D01*
X60651862Y-67665296D01*
X60690532Y-67653565D01*
X60736888Y-67649000D01*
X61388112Y-67649000D01*
X61434468Y-67653565D01*
X61434468Y-67653565D01*
G37*
G36*
X41646000Y-68051000D02*
G01*
X40644000Y-68051000D01*
X40644000Y-65949000D01*
X41646000Y-65949000D01*
X41646000Y-68051000D01*
X41646000Y-68051000D01*
G37*
G36*
X42916000Y-68051000D02*
G01*
X41914000Y-68051000D01*
X41914000Y-65949000D01*
X42916000Y-65949000D01*
X42916000Y-68051000D01*
X42916000Y-68051000D01*
G37*
G36*
X58156000Y-68051000D02*
G01*
X57154000Y-68051000D01*
X57154000Y-65949000D01*
X58156000Y-65949000D01*
X58156000Y-68051000D01*
X58156000Y-68051000D01*
G37*
G36*
X56886000Y-68051000D02*
G01*
X55884000Y-68051000D01*
X55884000Y-65949000D01*
X56886000Y-65949000D01*
X56886000Y-68051000D01*
X56886000Y-68051000D01*
G37*
G36*
X55616000Y-68051000D02*
G01*
X54614000Y-68051000D01*
X54614000Y-65949000D01*
X55616000Y-65949000D01*
X55616000Y-68051000D01*
X55616000Y-68051000D01*
G37*
G36*
X54346000Y-68051000D02*
G01*
X53344000Y-68051000D01*
X53344000Y-65949000D01*
X54346000Y-65949000D01*
X54346000Y-68051000D01*
X54346000Y-68051000D01*
G37*
G36*
X53076000Y-68051000D02*
G01*
X52074000Y-68051000D01*
X52074000Y-65949000D01*
X53076000Y-65949000D01*
X53076000Y-68051000D01*
X53076000Y-68051000D01*
G37*
G36*
X50536000Y-68051000D02*
G01*
X49534000Y-68051000D01*
X49534000Y-65949000D01*
X50536000Y-65949000D01*
X50536000Y-68051000D01*
X50536000Y-68051000D01*
G37*
G36*
X49266000Y-68051000D02*
G01*
X48264000Y-68051000D01*
X48264000Y-65949000D01*
X49266000Y-65949000D01*
X49266000Y-68051000D01*
X49266000Y-68051000D01*
G37*
G36*
X47996000Y-68051000D02*
G01*
X46994000Y-68051000D01*
X46994000Y-65949000D01*
X47996000Y-65949000D01*
X47996000Y-68051000D01*
X47996000Y-68051000D01*
G37*
G36*
X46726000Y-68051000D02*
G01*
X45724000Y-68051000D01*
X45724000Y-65949000D01*
X46726000Y-65949000D01*
X46726000Y-68051000D01*
X46726000Y-68051000D01*
G37*
G36*
X45456000Y-68051000D02*
G01*
X44454000Y-68051000D01*
X44454000Y-65949000D01*
X45456000Y-65949000D01*
X45456000Y-68051000D01*
X45456000Y-68051000D01*
G37*
G36*
X44186000Y-68051000D02*
G01*
X43184000Y-68051000D01*
X43184000Y-65949000D01*
X44186000Y-65949000D01*
X44186000Y-68051000D01*
X44186000Y-68051000D01*
G37*
G36*
X51806000Y-68051000D02*
G01*
X50804000Y-68051000D01*
X50804000Y-65949000D01*
X51806000Y-65949000D01*
X51806000Y-68051000D01*
X51806000Y-68051000D01*
G37*
G36*
X61434468Y-65653565D02*
G01*
X61473138Y-65665296D01*
X61508777Y-65684346D01*
X61540017Y-65709983D01*
X61565654Y-65741223D01*
X61584704Y-65776862D01*
X61596435Y-65815532D01*
X61601000Y-65861888D01*
X61601000Y-66938112D01*
X61596435Y-66984468D01*
X61584704Y-67023138D01*
X61565654Y-67058777D01*
X61540017Y-67090017D01*
X61508777Y-67115654D01*
X61473138Y-67134704D01*
X61434468Y-67146435D01*
X61388112Y-67151000D01*
X60736888Y-67151000D01*
X60690532Y-67146435D01*
X60651862Y-67134704D01*
X60616223Y-67115654D01*
X60584983Y-67090017D01*
X60559346Y-67058777D01*
X60540296Y-67023138D01*
X60528565Y-66984468D01*
X60524000Y-66938112D01*
X60524000Y-65861888D01*
X60528565Y-65815532D01*
X60540296Y-65776862D01*
X60559346Y-65741223D01*
X60584983Y-65709983D01*
X60616223Y-65684346D01*
X60651862Y-65665296D01*
X60690532Y-65653565D01*
X60736888Y-65649000D01*
X61388112Y-65649000D01*
X61434468Y-65653565D01*
X61434468Y-65653565D01*
G37*
G36*
X63309468Y-65653565D02*
G01*
X63348138Y-65665296D01*
X63383777Y-65684346D01*
X63415017Y-65709983D01*
X63440654Y-65741223D01*
X63459704Y-65776862D01*
X63471435Y-65815532D01*
X63476000Y-65861888D01*
X63476000Y-66938112D01*
X63471435Y-66984468D01*
X63459704Y-67023138D01*
X63440654Y-67058777D01*
X63415017Y-67090017D01*
X63383777Y-67115654D01*
X63348138Y-67134704D01*
X63309468Y-67146435D01*
X63263112Y-67151000D01*
X62611888Y-67151000D01*
X62565532Y-67146435D01*
X62526862Y-67134704D01*
X62491223Y-67115654D01*
X62459983Y-67090017D01*
X62434346Y-67058777D01*
X62415296Y-67023138D01*
X62403565Y-66984468D01*
X62399000Y-66938112D01*
X62399000Y-65861888D01*
X62403565Y-65815532D01*
X62415296Y-65776862D01*
X62434346Y-65741223D01*
X62459983Y-65709983D01*
X62491223Y-65684346D01*
X62526862Y-65665296D01*
X62565532Y-65653565D01*
X62611888Y-65649000D01*
X63263112Y-65649000D01*
X63309468Y-65653565D01*
X63309468Y-65653565D01*
G37*
G36*
X59706000Y-64716000D02*
G01*
X57604000Y-64716000D01*
X57604000Y-63714000D01*
X59706000Y-63714000D01*
X59706000Y-64716000D01*
X59706000Y-64716000D01*
G37*
G36*
X62901000Y-64081000D02*
G01*
X61199000Y-64081000D01*
X61199000Y-61799000D01*
X62901000Y-61799000D01*
X62901000Y-64081000D01*
X62901000Y-64081000D01*
G37*
G36*
X59706000Y-63446000D02*
G01*
X57604000Y-63446000D01*
X57604000Y-62444000D01*
X59706000Y-62444000D01*
X59706000Y-63446000D01*
X59706000Y-63446000D01*
G37*
G36*
X59706000Y-62176000D02*
G01*
X57604000Y-62176000D01*
X57604000Y-61174000D01*
X59706000Y-61174000D01*
X59706000Y-62176000D01*
X59706000Y-62176000D01*
G37*
G36*
X51196000Y-62051000D02*
G01*
X46094000Y-62051000D01*
X46094000Y-56949000D01*
X51196000Y-56949000D01*
X51196000Y-62051000D01*
X51196000Y-62051000D01*
G37*
G36*
X59706000Y-60906000D02*
G01*
X57604000Y-60906000D01*
X57604000Y-59904000D01*
X59706000Y-59904000D01*
X59706000Y-60906000D01*
X59706000Y-60906000D01*
G37*
G36*
X59706000Y-59636000D02*
G01*
X57604000Y-59636000D01*
X57604000Y-58634000D01*
X59706000Y-58634000D01*
X59706000Y-59636000D01*
X59706000Y-59636000D01*
G37*
G36*
X59706000Y-58366000D02*
G01*
X57604000Y-58366000D01*
X57604000Y-57364000D01*
X59706000Y-57364000D01*
X59706000Y-58366000D01*
X59706000Y-58366000D01*
G37*
G36*
X59706000Y-57096000D02*
G01*
X57604000Y-57096000D01*
X57604000Y-56094000D01*
X59706000Y-56094000D01*
X59706000Y-57096000D01*
X59706000Y-57096000D01*
G37*
G36*
X59706000Y-55826000D02*
G01*
X57604000Y-55826000D01*
X57604000Y-54824000D01*
X59706000Y-54824000D01*
X59706000Y-55826000D01*
X59706000Y-55826000D01*
G37*
G36*
X62901000Y-54901000D02*
G01*
X61199000Y-54901000D01*
X61199000Y-52619000D01*
X62901000Y-52619000D01*
X62901000Y-54901000D01*
X62901000Y-54901000D01*
G37*
G36*
X59706000Y-54556000D02*
G01*
X57604000Y-54556000D01*
X57604000Y-53554000D01*
X59706000Y-53554000D01*
X59706000Y-54556000D01*
X59706000Y-54556000D01*
G37*
G36*
X59706000Y-53286000D02*
G01*
X57604000Y-53286000D01*
X57604000Y-52284000D01*
X59706000Y-52284000D01*
X59706000Y-53286000D01*
X59706000Y-53286000D01*
G37*
G36*
X63009468Y-50453565D02*
G01*
X63048138Y-50465296D01*
X63083777Y-50484346D01*
X63115017Y-50509983D01*
X63140654Y-50541223D01*
X63159704Y-50576862D01*
X63171435Y-50615532D01*
X63176000Y-50661888D01*
X63176000Y-51738112D01*
X63171435Y-51784468D01*
X63159704Y-51823138D01*
X63140654Y-51858777D01*
X63115017Y-51890017D01*
X63083777Y-51915654D01*
X63048138Y-51934704D01*
X63009468Y-51946435D01*
X62963112Y-51951000D01*
X62311888Y-51951000D01*
X62265532Y-51946435D01*
X62226862Y-51934704D01*
X62191223Y-51915654D01*
X62159983Y-51890017D01*
X62134346Y-51858777D01*
X62115296Y-51823138D01*
X62103565Y-51784468D01*
X62099000Y-51738112D01*
X62099000Y-50661888D01*
X62103565Y-50615532D01*
X62115296Y-50576862D01*
X62134346Y-50541223D01*
X62159983Y-50509983D01*
X62191223Y-50484346D01*
X62226862Y-50465296D01*
X62265532Y-50453565D01*
X62311888Y-50449000D01*
X62963112Y-50449000D01*
X63009468Y-50453565D01*
X63009468Y-50453565D01*
G37*
G36*
X61134468Y-50453565D02*
G01*
X61173138Y-50465296D01*
X61208777Y-50484346D01*
X61240017Y-50509983D01*
X61265654Y-50541223D01*
X61284704Y-50576862D01*
X61296435Y-50615532D01*
X61301000Y-50661888D01*
X61301000Y-51738112D01*
X61296435Y-51784468D01*
X61284704Y-51823138D01*
X61265654Y-51858777D01*
X61240017Y-51890017D01*
X61208777Y-51915654D01*
X61173138Y-51934704D01*
X61134468Y-51946435D01*
X61088112Y-51951000D01*
X60436888Y-51951000D01*
X60390532Y-51946435D01*
X60351862Y-51934704D01*
X60316223Y-51915654D01*
X60284983Y-51890017D01*
X60259346Y-51858777D01*
X60240296Y-51823138D01*
X60228565Y-51784468D01*
X60224000Y-51738112D01*
X60224000Y-50661888D01*
X60228565Y-50615532D01*
X60240296Y-50576862D01*
X60259346Y-50541223D01*
X60284983Y-50509983D01*
X60316223Y-50484346D01*
X60351862Y-50465296D01*
X60390532Y-50453565D01*
X60436888Y-50449000D01*
X61088112Y-50449000D01*
X61134468Y-50453565D01*
X61134468Y-50453565D01*
G37*
G36*
X50536000Y-51051000D02*
G01*
X49534000Y-51051000D01*
X49534000Y-48949000D01*
X50536000Y-48949000D01*
X50536000Y-51051000D01*
X50536000Y-51051000D01*
G37*
G36*
X51806000Y-51051000D02*
G01*
X50804000Y-51051000D01*
X50804000Y-48949000D01*
X51806000Y-48949000D01*
X51806000Y-51051000D01*
X51806000Y-51051000D01*
G37*
G36*
X47996000Y-51051000D02*
G01*
X46994000Y-51051000D01*
X46994000Y-48949000D01*
X47996000Y-48949000D01*
X47996000Y-51051000D01*
X47996000Y-51051000D01*
G37*
G36*
X53076000Y-51051000D02*
G01*
X52074000Y-51051000D01*
X52074000Y-48949000D01*
X53076000Y-48949000D01*
X53076000Y-51051000D01*
X53076000Y-51051000D01*
G37*
G36*
X45456000Y-51051000D02*
G01*
X44454000Y-51051000D01*
X44454000Y-48949000D01*
X45456000Y-48949000D01*
X45456000Y-51051000D01*
X45456000Y-51051000D01*
G37*
G36*
X49266000Y-51051000D02*
G01*
X48264000Y-51051000D01*
X48264000Y-48949000D01*
X49266000Y-48949000D01*
X49266000Y-51051000D01*
X49266000Y-51051000D01*
G37*
G36*
X44186000Y-51051000D02*
G01*
X43184000Y-51051000D01*
X43184000Y-48949000D01*
X44186000Y-48949000D01*
X44186000Y-51051000D01*
X44186000Y-51051000D01*
G37*
G36*
X54346000Y-51051000D02*
G01*
X53344000Y-51051000D01*
X53344000Y-48949000D01*
X54346000Y-48949000D01*
X54346000Y-51051000D01*
X54346000Y-51051000D01*
G37*
G36*
X55616000Y-51051000D02*
G01*
X54614000Y-51051000D01*
X54614000Y-48949000D01*
X55616000Y-48949000D01*
X55616000Y-51051000D01*
X55616000Y-51051000D01*
G37*
G36*
X56886000Y-51051000D02*
G01*
X55884000Y-51051000D01*
X55884000Y-48949000D01*
X56886000Y-48949000D01*
X56886000Y-51051000D01*
X56886000Y-51051000D01*
G37*
G36*
X58156000Y-51051000D02*
G01*
X57154000Y-51051000D01*
X57154000Y-48949000D01*
X58156000Y-48949000D01*
X58156000Y-51051000D01*
X58156000Y-51051000D01*
G37*
G36*
X46726000Y-51051000D02*
G01*
X45724000Y-51051000D01*
X45724000Y-48949000D01*
X46726000Y-48949000D01*
X46726000Y-51051000D01*
X46726000Y-51051000D01*
G37*
G36*
X41646000Y-51051000D02*
G01*
X40644000Y-51051000D01*
X40644000Y-48949000D01*
X41646000Y-48949000D01*
X41646000Y-51051000D01*
X41646000Y-51051000D01*
G37*
G36*
X42916000Y-51051000D02*
G01*
X41914000Y-51051000D01*
X41914000Y-48949000D01*
X42916000Y-48949000D01*
X42916000Y-51051000D01*
X42916000Y-51051000D01*
G37*
G36*
X54334468Y-47153565D02*
G01*
X54373138Y-47165296D01*
X54408777Y-47184346D01*
X54440017Y-47209983D01*
X54465654Y-47241223D01*
X54484704Y-47276862D01*
X54496435Y-47315532D01*
X54501000Y-47361888D01*
X54501000Y-48438112D01*
X54496435Y-48484468D01*
X54484704Y-48523138D01*
X54465654Y-48558777D01*
X54440017Y-48590017D01*
X54408777Y-48615654D01*
X54373138Y-48634704D01*
X54334468Y-48646435D01*
X54288112Y-48651000D01*
X53636888Y-48651000D01*
X53590532Y-48646435D01*
X53551862Y-48634704D01*
X53516223Y-48615654D01*
X53484983Y-48590017D01*
X53459346Y-48558777D01*
X53440296Y-48523138D01*
X53428565Y-48484468D01*
X53424000Y-48438112D01*
X53424000Y-47361888D01*
X53428565Y-47315532D01*
X53440296Y-47276862D01*
X53459346Y-47241223D01*
X53484983Y-47209983D01*
X53516223Y-47184346D01*
X53551862Y-47165296D01*
X53590532Y-47153565D01*
X53636888Y-47149000D01*
X54288112Y-47149000D01*
X54334468Y-47153565D01*
X54334468Y-47153565D01*
G37*
G36*
X56209468Y-47153565D02*
G01*
X56248138Y-47165296D01*
X56283777Y-47184346D01*
X56315017Y-47209983D01*
X56340654Y-47241223D01*
X56359704Y-47276862D01*
X56371435Y-47315532D01*
X56376000Y-47361888D01*
X56376000Y-48438112D01*
X56371435Y-48484468D01*
X56359704Y-48523138D01*
X56340654Y-48558777D01*
X56315017Y-48590017D01*
X56283777Y-48615654D01*
X56248138Y-48634704D01*
X56209468Y-48646435D01*
X56163112Y-48651000D01*
X55511888Y-48651000D01*
X55465532Y-48646435D01*
X55426862Y-48634704D01*
X55391223Y-48615654D01*
X55359983Y-48590017D01*
X55334346Y-48558777D01*
X55315296Y-48523138D01*
X55303565Y-48484468D01*
X55299000Y-48438112D01*
X55299000Y-47361888D01*
X55303565Y-47315532D01*
X55315296Y-47276862D01*
X55334346Y-47241223D01*
X55359983Y-47209983D01*
X55391223Y-47184346D01*
X55426862Y-47165296D01*
X55465532Y-47153565D01*
X55511888Y-47149000D01*
X56163112Y-47149000D01*
X56209468Y-47153565D01*
X56209468Y-47153565D01*
G37*
G36*
X64601000Y-48601000D02*
G01*
X62799000Y-48601000D01*
X62799000Y-46799000D01*
X64601000Y-46799000D01*
X64601000Y-48601000D01*
X64601000Y-48601000D01*
G37*
G36*
X44134468Y-46753565D02*
G01*
X44173138Y-46765296D01*
X44208777Y-46784346D01*
X44240017Y-46809983D01*
X44265654Y-46841223D01*
X44284704Y-46876862D01*
X44296435Y-46915532D01*
X44301000Y-46961888D01*
X44301000Y-48038112D01*
X44296435Y-48084468D01*
X44284704Y-48123138D01*
X44265654Y-48158777D01*
X44240017Y-48190017D01*
X44208777Y-48215654D01*
X44173138Y-48234704D01*
X44134468Y-48246435D01*
X44088112Y-48251000D01*
X43436888Y-48251000D01*
X43390532Y-48246435D01*
X43351862Y-48234704D01*
X43316223Y-48215654D01*
X43284983Y-48190017D01*
X43259346Y-48158777D01*
X43240296Y-48123138D01*
X43228565Y-48084468D01*
X43224000Y-48038112D01*
X43224000Y-46961888D01*
X43228565Y-46915532D01*
X43240296Y-46876862D01*
X43259346Y-46841223D01*
X43284983Y-46809983D01*
X43316223Y-46784346D01*
X43351862Y-46765296D01*
X43390532Y-46753565D01*
X43436888Y-46749000D01*
X44088112Y-46749000D01*
X44134468Y-46753565D01*
X44134468Y-46753565D01*
G37*
G36*
X47534468Y-46753565D02*
G01*
X47573138Y-46765296D01*
X47608777Y-46784346D01*
X47640017Y-46809983D01*
X47665654Y-46841223D01*
X47684704Y-46876862D01*
X47696435Y-46915532D01*
X47701000Y-46961888D01*
X47701000Y-48038112D01*
X47696435Y-48084468D01*
X47684704Y-48123138D01*
X47665654Y-48158777D01*
X47640017Y-48190017D01*
X47608777Y-48215654D01*
X47573138Y-48234704D01*
X47534468Y-48246435D01*
X47488112Y-48251000D01*
X46836888Y-48251000D01*
X46790532Y-48246435D01*
X46751862Y-48234704D01*
X46716223Y-48215654D01*
X46684983Y-48190017D01*
X46659346Y-48158777D01*
X46640296Y-48123138D01*
X46628565Y-48084468D01*
X46624000Y-48038112D01*
X46624000Y-46961888D01*
X46628565Y-46915532D01*
X46640296Y-46876862D01*
X46659346Y-46841223D01*
X46684983Y-46809983D01*
X46716223Y-46784346D01*
X46751862Y-46765296D01*
X46790532Y-46753565D01*
X46836888Y-46749000D01*
X47488112Y-46749000D01*
X47534468Y-46753565D01*
X47534468Y-46753565D01*
G37*
G36*
X49409468Y-46753565D02*
G01*
X49448138Y-46765296D01*
X49483777Y-46784346D01*
X49515017Y-46809983D01*
X49540654Y-46841223D01*
X49559704Y-46876862D01*
X49571435Y-46915532D01*
X49576000Y-46961888D01*
X49576000Y-48038112D01*
X49571435Y-48084468D01*
X49559704Y-48123138D01*
X49540654Y-48158777D01*
X49515017Y-48190017D01*
X49483777Y-48215654D01*
X49448138Y-48234704D01*
X49409468Y-48246435D01*
X49363112Y-48251000D01*
X48711888Y-48251000D01*
X48665532Y-48246435D01*
X48626862Y-48234704D01*
X48591223Y-48215654D01*
X48559983Y-48190017D01*
X48534346Y-48158777D01*
X48515296Y-48123138D01*
X48503565Y-48084468D01*
X48499000Y-48038112D01*
X48499000Y-46961888D01*
X48503565Y-46915532D01*
X48515296Y-46876862D01*
X48534346Y-46841223D01*
X48559983Y-46809983D01*
X48591223Y-46784346D01*
X48626862Y-46765296D01*
X48665532Y-46753565D01*
X48711888Y-46749000D01*
X49363112Y-46749000D01*
X49409468Y-46753565D01*
X49409468Y-46753565D01*
G37*
G36*
X46009468Y-46753565D02*
G01*
X46048138Y-46765296D01*
X46083777Y-46784346D01*
X46115017Y-46809983D01*
X46140654Y-46841223D01*
X46159704Y-46876862D01*
X46171435Y-46915532D01*
X46176000Y-46961888D01*
X46176000Y-48038112D01*
X46171435Y-48084468D01*
X46159704Y-48123138D01*
X46140654Y-48158777D01*
X46115017Y-48190017D01*
X46083777Y-48215654D01*
X46048138Y-48234704D01*
X46009468Y-48246435D01*
X45963112Y-48251000D01*
X45311888Y-48251000D01*
X45265532Y-48246435D01*
X45226862Y-48234704D01*
X45191223Y-48215654D01*
X45159983Y-48190017D01*
X45134346Y-48158777D01*
X45115296Y-48123138D01*
X45103565Y-48084468D01*
X45099000Y-48038112D01*
X45099000Y-46961888D01*
X45103565Y-46915532D01*
X45115296Y-46876862D01*
X45134346Y-46841223D01*
X45159983Y-46809983D01*
X45191223Y-46784346D01*
X45226862Y-46765296D01*
X45265532Y-46753565D01*
X45311888Y-46749000D01*
X45963112Y-46749000D01*
X46009468Y-46753565D01*
X46009468Y-46753565D01*
G37*
G36*
X61501000Y-48026000D02*
G01*
X59099000Y-48026000D01*
X59099000Y-47424000D01*
X61501000Y-47424000D01*
X61501000Y-48026000D01*
X61501000Y-48026000D01*
G37*
G36*
X52809468Y-46153565D02*
G01*
X52848138Y-46165296D01*
X52883777Y-46184346D01*
X52915017Y-46209983D01*
X52940654Y-46241223D01*
X52959704Y-46276862D01*
X52971435Y-46315532D01*
X52976000Y-46361888D01*
X52976000Y-47438112D01*
X52971435Y-47484468D01*
X52959704Y-47523138D01*
X52940654Y-47558777D01*
X52915017Y-47590017D01*
X52883777Y-47615654D01*
X52848138Y-47634704D01*
X52809468Y-47646435D01*
X52763112Y-47651000D01*
X52111888Y-47651000D01*
X52065532Y-47646435D01*
X52026862Y-47634704D01*
X51991223Y-47615654D01*
X51959983Y-47590017D01*
X51934346Y-47558777D01*
X51915296Y-47523138D01*
X51903565Y-47484468D01*
X51899000Y-47438112D01*
X51899000Y-46361888D01*
X51903565Y-46315532D01*
X51915296Y-46276862D01*
X51934346Y-46241223D01*
X51959983Y-46209983D01*
X51991223Y-46184346D01*
X52026862Y-46165296D01*
X52065532Y-46153565D01*
X52111888Y-46149000D01*
X52763112Y-46149000D01*
X52809468Y-46153565D01*
X52809468Y-46153565D01*
G37*
G36*
X50934468Y-46153565D02*
G01*
X50973138Y-46165296D01*
X51008777Y-46184346D01*
X51040017Y-46209983D01*
X51065654Y-46241223D01*
X51084704Y-46276862D01*
X51096435Y-46315532D01*
X51101000Y-46361888D01*
X51101000Y-47438112D01*
X51096435Y-47484468D01*
X51084704Y-47523138D01*
X51065654Y-47558777D01*
X51040017Y-47590017D01*
X51008777Y-47615654D01*
X50973138Y-47634704D01*
X50934468Y-47646435D01*
X50888112Y-47651000D01*
X50236888Y-47651000D01*
X50190532Y-47646435D01*
X50151862Y-47634704D01*
X50116223Y-47615654D01*
X50084983Y-47590017D01*
X50059346Y-47558777D01*
X50040296Y-47523138D01*
X50028565Y-47484468D01*
X50024000Y-47438112D01*
X50024000Y-46361888D01*
X50028565Y-46315532D01*
X50040296Y-46276862D01*
X50059346Y-46241223D01*
X50084983Y-46209983D01*
X50116223Y-46184346D01*
X50151862Y-46165296D01*
X50190532Y-46153565D01*
X50236888Y-46149000D01*
X50888112Y-46149000D01*
X50934468Y-46153565D01*
X50934468Y-46153565D01*
G37*
G36*
X58484468Y-46103565D02*
G01*
X58523138Y-46115296D01*
X58558777Y-46134346D01*
X58590017Y-46159983D01*
X58615654Y-46191223D01*
X58634704Y-46226862D01*
X58646435Y-46265532D01*
X58651000Y-46311888D01*
X58651000Y-46963112D01*
X58646435Y-47009468D01*
X58634704Y-47048138D01*
X58615654Y-47083777D01*
X58590017Y-47115017D01*
X58558777Y-47140654D01*
X58523138Y-47159704D01*
X58484468Y-47171435D01*
X58438112Y-47176000D01*
X57361888Y-47176000D01*
X57315532Y-47171435D01*
X57276862Y-47159704D01*
X57241223Y-47140654D01*
X57209983Y-47115017D01*
X57184346Y-47083777D01*
X57165296Y-47048138D01*
X57153565Y-47009468D01*
X57149000Y-46963112D01*
X57149000Y-46311888D01*
X57153565Y-46265532D01*
X57165296Y-46226862D01*
X57184346Y-46191223D01*
X57209983Y-46159983D01*
X57241223Y-46134346D01*
X57276862Y-46115296D01*
X57315532Y-46103565D01*
X57361888Y-46099000D01*
X58438112Y-46099000D01*
X58484468Y-46103565D01*
X58484468Y-46103565D01*
G37*
G36*
X48451000Y-46201000D02*
G01*
X47549000Y-46201000D01*
X47549000Y-45199000D01*
X48451000Y-45199000D01*
X48451000Y-46201000D01*
X48451000Y-46201000D01*
G37*
G36*
X63810442Y-44265518D02*
G01*
X63876627Y-44272037D01*
X64046466Y-44323557D01*
X64046468Y-44323558D01*
X64118178Y-44361888D01*
X64202991Y-44407222D01*
X64234913Y-44433420D01*
X64340186Y-44519814D01*
X64409417Y-44604174D01*
X64452778Y-44657009D01*
X64536443Y-44813534D01*
X64587963Y-44983373D01*
X64605359Y-45160000D01*
X64587963Y-45336627D01*
X64536443Y-45506466D01*
X64452778Y-45662991D01*
X64436193Y-45683200D01*
X64340186Y-45800186D01*
X64238729Y-45883448D01*
X64202991Y-45912778D01*
X64046466Y-45996443D01*
X63876627Y-46047963D01*
X63810443Y-46054481D01*
X63744260Y-46061000D01*
X63655740Y-46061000D01*
X63589557Y-46054481D01*
X63523373Y-46047963D01*
X63353534Y-45996443D01*
X63197009Y-45912778D01*
X63161271Y-45883448D01*
X63059814Y-45800186D01*
X62963807Y-45683200D01*
X62947222Y-45662991D01*
X62863557Y-45506466D01*
X62812037Y-45336627D01*
X62794641Y-45160000D01*
X62812037Y-44983373D01*
X62863557Y-44813534D01*
X62947222Y-44657009D01*
X62990583Y-44604174D01*
X63059814Y-44519814D01*
X63165087Y-44433420D01*
X63197009Y-44407222D01*
X63281822Y-44361888D01*
X63353532Y-44323558D01*
X63353534Y-44323557D01*
X63523373Y-44272037D01*
X63589558Y-44265518D01*
X63655740Y-44259000D01*
X63744260Y-44259000D01*
X63810442Y-44265518D01*
X63810442Y-44265518D01*
G37*
G36*
X61501000Y-45976000D02*
G01*
X59099000Y-45976000D01*
X59099000Y-45374000D01*
X61501000Y-45374000D01*
X61501000Y-45976000D01*
X61501000Y-45976000D01*
G37*
G36*
X44397066Y-43270762D02*
G01*
X44412611Y-43289704D01*
X44431553Y-43305249D01*
X44453164Y-43316800D01*
X44476613Y-43323913D01*
X44500999Y-43326315D01*
X44513253Y-43325713D01*
X44530643Y-43324000D01*
X45769359Y-43324000D01*
X45780355Y-43325083D01*
X45785029Y-43326501D01*
X45789331Y-43328800D01*
X45793104Y-43331896D01*
X45796200Y-43335669D01*
X45798499Y-43339971D01*
X45799917Y-43344645D01*
X45801000Y-43355641D01*
X45801000Y-43644359D01*
X45799917Y-43655355D01*
X45798499Y-43660029D01*
X45796200Y-43664330D01*
X45790971Y-43670702D01*
X45777357Y-43691076D01*
X45767980Y-43713715D01*
X45763200Y-43737749D01*
X45763200Y-43762253D01*
X45767981Y-43786286D01*
X45777358Y-43808925D01*
X45790971Y-43829298D01*
X45796200Y-43835670D01*
X45798499Y-43839971D01*
X45799917Y-43844645D01*
X45801000Y-43855641D01*
X45801000Y-44144359D01*
X45799917Y-44155355D01*
X45798499Y-44160029D01*
X45796200Y-44164330D01*
X45790971Y-44170702D01*
X45777357Y-44191076D01*
X45767980Y-44213715D01*
X45763200Y-44237749D01*
X45763200Y-44262253D01*
X45767981Y-44286286D01*
X45777358Y-44308925D01*
X45790971Y-44329298D01*
X45796200Y-44335670D01*
X45798499Y-44339971D01*
X45799917Y-44344645D01*
X45801000Y-44355641D01*
X45801000Y-44644359D01*
X45799917Y-44655355D01*
X45798499Y-44660029D01*
X45796200Y-44664330D01*
X45790971Y-44670702D01*
X45777357Y-44691076D01*
X45767980Y-44713715D01*
X45763200Y-44737749D01*
X45763200Y-44762253D01*
X45767981Y-44786286D01*
X45777358Y-44808925D01*
X45790971Y-44829298D01*
X45796200Y-44835670D01*
X45798499Y-44839971D01*
X45799917Y-44844645D01*
X45801000Y-44855641D01*
X45801000Y-45144359D01*
X45799917Y-45155355D01*
X45798499Y-45160029D01*
X45796200Y-45164330D01*
X45790971Y-45170702D01*
X45777357Y-45191076D01*
X45767980Y-45213715D01*
X45763200Y-45237749D01*
X45763200Y-45262253D01*
X45767981Y-45286286D01*
X45777358Y-45308925D01*
X45790971Y-45329298D01*
X45796200Y-45335670D01*
X45798499Y-45339971D01*
X45799917Y-45344645D01*
X45801000Y-45355641D01*
X45801000Y-45644359D01*
X45799917Y-45655355D01*
X45798499Y-45660029D01*
X45796200Y-45664331D01*
X45793104Y-45668104D01*
X45789331Y-45671200D01*
X45785029Y-45673499D01*
X45780355Y-45674917D01*
X45769359Y-45676000D01*
X44530643Y-45676000D01*
X44513253Y-45674287D01*
X44488749Y-45674287D01*
X44464715Y-45679067D01*
X44442077Y-45688444D01*
X44421702Y-45702057D01*
X44404375Y-45719384D01*
X44390761Y-45739758D01*
X44390247Y-45741000D01*
X42609221Y-45741000D01*
X42602934Y-45729238D01*
X42587389Y-45710296D01*
X42568447Y-45694751D01*
X42546836Y-45683200D01*
X42523387Y-45676087D01*
X42499001Y-45673685D01*
X42486747Y-45674287D01*
X42469357Y-45676000D01*
X41230641Y-45676000D01*
X41219645Y-45674917D01*
X41214971Y-45673499D01*
X41210669Y-45671200D01*
X41206896Y-45668104D01*
X41203800Y-45664331D01*
X41201501Y-45660029D01*
X41200083Y-45655355D01*
X41199000Y-45644359D01*
X41199000Y-45355641D01*
X41200083Y-45344645D01*
X41201501Y-45339971D01*
X41203800Y-45335670D01*
X41209029Y-45329298D01*
X41222643Y-45308924D01*
X41232020Y-45286285D01*
X41236800Y-45262251D01*
X41236800Y-45237747D01*
X41232019Y-45213714D01*
X41222642Y-45191075D01*
X41209029Y-45170702D01*
X41203800Y-45164330D01*
X41201501Y-45160029D01*
X41200083Y-45155355D01*
X41199000Y-45144359D01*
X41199000Y-44855641D01*
X41200083Y-44844645D01*
X41201501Y-44839971D01*
X41203800Y-44835670D01*
X41209029Y-44829298D01*
X41222643Y-44808924D01*
X41232020Y-44786285D01*
X41236800Y-44762251D01*
X41236800Y-44737747D01*
X41232019Y-44713714D01*
X41222642Y-44691075D01*
X41209029Y-44670702D01*
X41203800Y-44664330D01*
X41201501Y-44660029D01*
X41200083Y-44655355D01*
X41199000Y-44644359D01*
X41199000Y-44355641D01*
X41200083Y-44344645D01*
X41201501Y-44339971D01*
X41203800Y-44335670D01*
X41209029Y-44329298D01*
X41222643Y-44308924D01*
X41232020Y-44286285D01*
X41236800Y-44262251D01*
X41236800Y-44237747D01*
X41232019Y-44213714D01*
X41222642Y-44191075D01*
X41209029Y-44170702D01*
X41203800Y-44164330D01*
X41201501Y-44160029D01*
X41200083Y-44155355D01*
X41199000Y-44144359D01*
X41199000Y-43855641D01*
X41200083Y-43844645D01*
X41201501Y-43839971D01*
X41203800Y-43835670D01*
X41209029Y-43829298D01*
X41222643Y-43808924D01*
X41232020Y-43786285D01*
X41236800Y-43762251D01*
X41236800Y-43737747D01*
X41232019Y-43713714D01*
X41222642Y-43691075D01*
X41209029Y-43670702D01*
X41203800Y-43664330D01*
X41201501Y-43660029D01*
X41200083Y-43655355D01*
X41199000Y-43644359D01*
X41199000Y-43355641D01*
X41200083Y-43344645D01*
X41201501Y-43339971D01*
X41203800Y-43335669D01*
X41206896Y-43331896D01*
X41210669Y-43328800D01*
X41214971Y-43326501D01*
X41219645Y-43325083D01*
X41230641Y-43324000D01*
X42469357Y-43324000D01*
X42486747Y-43325713D01*
X42511251Y-43325713D01*
X42535285Y-43320933D01*
X42557923Y-43311556D01*
X42578298Y-43297943D01*
X42595625Y-43280616D01*
X42609239Y-43260242D01*
X42609753Y-43259000D01*
X44390779Y-43259000D01*
X44397066Y-43270762D01*
X44397066Y-43270762D01*
G37*
G36*
X51384468Y-44603565D02*
G01*
X51423138Y-44615296D01*
X51458777Y-44634346D01*
X51490017Y-44659983D01*
X51515654Y-44691223D01*
X51534704Y-44726862D01*
X51546435Y-44765532D01*
X51551000Y-44811888D01*
X51551000Y-45463112D01*
X51546435Y-45509468D01*
X51534704Y-45548138D01*
X51515654Y-45583777D01*
X51490017Y-45615017D01*
X51458777Y-45640654D01*
X51423138Y-45659704D01*
X51384468Y-45671435D01*
X51338112Y-45676000D01*
X50261888Y-45676000D01*
X50215532Y-45671435D01*
X50176862Y-45659704D01*
X50141223Y-45640654D01*
X50109983Y-45615017D01*
X50084346Y-45583777D01*
X50065296Y-45548138D01*
X50053565Y-45509468D01*
X50049000Y-45463112D01*
X50049000Y-44811888D01*
X50053565Y-44765532D01*
X50065296Y-44726862D01*
X50084346Y-44691223D01*
X50109983Y-44659983D01*
X50141223Y-44634346D01*
X50176862Y-44615296D01*
X50215532Y-44603565D01*
X50261888Y-44599000D01*
X51338112Y-44599000D01*
X51384468Y-44603565D01*
X51384468Y-44603565D01*
G37*
G36*
X53034468Y-44153565D02*
G01*
X53073138Y-44165296D01*
X53108777Y-44184346D01*
X53140017Y-44209983D01*
X53165654Y-44241223D01*
X53184704Y-44276862D01*
X53196435Y-44315532D01*
X53201000Y-44361888D01*
X53201000Y-45438112D01*
X53196435Y-45484468D01*
X53184704Y-45523138D01*
X53165654Y-45558777D01*
X53140017Y-45590017D01*
X53108777Y-45615654D01*
X53073138Y-45634704D01*
X53034468Y-45646435D01*
X52988112Y-45651000D01*
X52336888Y-45651000D01*
X52290532Y-45646435D01*
X52251862Y-45634704D01*
X52216223Y-45615654D01*
X52184983Y-45590017D01*
X52159346Y-45558777D01*
X52140296Y-45523138D01*
X52128565Y-45484468D01*
X52124000Y-45438112D01*
X52124000Y-44361888D01*
X52128565Y-44315532D01*
X52140296Y-44276862D01*
X52159346Y-44241223D01*
X52184983Y-44209983D01*
X52216223Y-44184346D01*
X52251862Y-44165296D01*
X52290532Y-44153565D01*
X52336888Y-44149000D01*
X52988112Y-44149000D01*
X53034468Y-44153565D01*
X53034468Y-44153565D01*
G37*
G36*
X54909468Y-44153565D02*
G01*
X54948138Y-44165296D01*
X54983777Y-44184346D01*
X55015017Y-44209983D01*
X55040654Y-44241223D01*
X55059704Y-44276862D01*
X55071435Y-44315532D01*
X55076000Y-44361888D01*
X55076000Y-45438112D01*
X55071435Y-45484468D01*
X55059704Y-45523138D01*
X55040654Y-45558777D01*
X55015017Y-45590017D01*
X54983777Y-45615654D01*
X54948138Y-45634704D01*
X54909468Y-45646435D01*
X54863112Y-45651000D01*
X54211888Y-45651000D01*
X54165532Y-45646435D01*
X54126862Y-45634704D01*
X54091223Y-45615654D01*
X54059983Y-45590017D01*
X54034346Y-45558777D01*
X54015296Y-45523138D01*
X54003565Y-45484468D01*
X53999000Y-45438112D01*
X53999000Y-44361888D01*
X54003565Y-44315532D01*
X54015296Y-44276862D01*
X54034346Y-44241223D01*
X54059983Y-44209983D01*
X54091223Y-44184346D01*
X54126862Y-44165296D01*
X54165532Y-44153565D01*
X54211888Y-44149000D01*
X54863112Y-44149000D01*
X54909468Y-44153565D01*
X54909468Y-44153565D01*
G37*
G36*
X58484468Y-44228565D02*
G01*
X58523138Y-44240296D01*
X58558777Y-44259346D01*
X58590017Y-44284983D01*
X58615654Y-44316223D01*
X58634704Y-44351862D01*
X58646435Y-44390532D01*
X58651000Y-44436888D01*
X58651000Y-45088112D01*
X58646435Y-45134468D01*
X58634704Y-45173138D01*
X58615654Y-45208777D01*
X58590017Y-45240017D01*
X58558777Y-45265654D01*
X58523138Y-45284704D01*
X58484468Y-45296435D01*
X58438112Y-45301000D01*
X57361888Y-45301000D01*
X57315532Y-45296435D01*
X57276862Y-45284704D01*
X57241223Y-45265654D01*
X57209983Y-45240017D01*
X57184346Y-45208777D01*
X57165296Y-45173138D01*
X57153565Y-45134468D01*
X57149000Y-45088112D01*
X57149000Y-44436888D01*
X57153565Y-44390532D01*
X57165296Y-44351862D01*
X57184346Y-44316223D01*
X57209983Y-44284983D01*
X57241223Y-44259346D01*
X57276862Y-44240296D01*
X57315532Y-44228565D01*
X57361888Y-44224000D01*
X58438112Y-44224000D01*
X58484468Y-44228565D01*
X58484468Y-44228565D01*
G37*
G36*
X40684468Y-43903565D02*
G01*
X40723138Y-43915296D01*
X40758777Y-43934346D01*
X40790017Y-43959983D01*
X40815654Y-43991223D01*
X40834704Y-44026862D01*
X40846435Y-44065532D01*
X40851000Y-44111888D01*
X40851000Y-44763112D01*
X40846435Y-44809468D01*
X40834704Y-44848138D01*
X40815654Y-44883777D01*
X40790017Y-44915017D01*
X40758777Y-44940654D01*
X40723138Y-44959704D01*
X40684468Y-44971435D01*
X40638112Y-44976000D01*
X39561888Y-44976000D01*
X39515532Y-44971435D01*
X39476862Y-44959704D01*
X39441223Y-44940654D01*
X39409983Y-44915017D01*
X39384346Y-44883777D01*
X39365296Y-44848138D01*
X39353565Y-44809468D01*
X39349000Y-44763112D01*
X39349000Y-44111888D01*
X39353565Y-44065532D01*
X39365296Y-44026862D01*
X39384346Y-43991223D01*
X39409983Y-43959983D01*
X39441223Y-43934346D01*
X39476862Y-43915296D01*
X39515532Y-43903565D01*
X39561888Y-43899000D01*
X40638112Y-43899000D01*
X40684468Y-43903565D01*
X40684468Y-43903565D01*
G37*
G36*
X47501000Y-44201000D02*
G01*
X46599000Y-44201000D01*
X46599000Y-43199000D01*
X47501000Y-43199000D01*
X47501000Y-44201000D01*
X47501000Y-44201000D01*
G37*
G36*
X49401000Y-44201000D02*
G01*
X48499000Y-44201000D01*
X48499000Y-43199000D01*
X49401000Y-43199000D01*
X49401000Y-44201000D01*
X49401000Y-44201000D01*
G37*
G36*
X51384468Y-42728565D02*
G01*
X51423138Y-42740296D01*
X51458777Y-42759346D01*
X51490017Y-42784983D01*
X51515654Y-42816223D01*
X51534704Y-42851862D01*
X51546435Y-42890532D01*
X51551000Y-42936888D01*
X51551000Y-43588112D01*
X51546435Y-43634468D01*
X51534704Y-43673138D01*
X51515654Y-43708777D01*
X51490017Y-43740017D01*
X51458777Y-43765654D01*
X51423138Y-43784704D01*
X51384468Y-43796435D01*
X51338112Y-43801000D01*
X50261888Y-43801000D01*
X50215532Y-43796435D01*
X50176862Y-43784704D01*
X50141223Y-43765654D01*
X50109983Y-43740017D01*
X50084346Y-43708777D01*
X50065296Y-43673138D01*
X50053565Y-43634468D01*
X50049000Y-43588112D01*
X50049000Y-42936888D01*
X50053565Y-42890532D01*
X50065296Y-42851862D01*
X50084346Y-42816223D01*
X50109983Y-42784983D01*
X50141223Y-42759346D01*
X50176862Y-42740296D01*
X50215532Y-42728565D01*
X50261888Y-42724000D01*
X51338112Y-42724000D01*
X51384468Y-42728565D01*
X51384468Y-42728565D01*
G37*
G36*
X58209468Y-42253565D02*
G01*
X58248138Y-42265296D01*
X58283777Y-42284346D01*
X58315017Y-42309983D01*
X58340654Y-42341223D01*
X58359704Y-42376862D01*
X58371435Y-42415532D01*
X58376000Y-42461888D01*
X58376000Y-43538112D01*
X58371435Y-43584468D01*
X58359704Y-43623138D01*
X58340654Y-43658777D01*
X58315017Y-43690017D01*
X58283777Y-43715654D01*
X58248138Y-43734704D01*
X58209468Y-43746435D01*
X58163112Y-43751000D01*
X57511888Y-43751000D01*
X57465532Y-43746435D01*
X57426862Y-43734704D01*
X57391223Y-43715654D01*
X57359983Y-43690017D01*
X57334346Y-43658777D01*
X57315296Y-43623138D01*
X57303565Y-43584468D01*
X57299000Y-43538112D01*
X57299000Y-42461888D01*
X57303565Y-42415532D01*
X57315296Y-42376862D01*
X57334346Y-42341223D01*
X57359983Y-42309983D01*
X57391223Y-42284346D01*
X57426862Y-42265296D01*
X57465532Y-42253565D01*
X57511888Y-42249000D01*
X58163112Y-42249000D01*
X58209468Y-42253565D01*
X58209468Y-42253565D01*
G37*
G36*
X56334468Y-42253565D02*
G01*
X56373138Y-42265296D01*
X56408777Y-42284346D01*
X56440017Y-42309983D01*
X56465654Y-42341223D01*
X56484704Y-42376862D01*
X56496435Y-42415532D01*
X56501000Y-42461888D01*
X56501000Y-43538112D01*
X56496435Y-43584468D01*
X56484704Y-43623138D01*
X56465654Y-43658777D01*
X56440017Y-43690017D01*
X56408777Y-43715654D01*
X56373138Y-43734704D01*
X56334468Y-43746435D01*
X56288112Y-43751000D01*
X55636888Y-43751000D01*
X55590532Y-43746435D01*
X55551862Y-43734704D01*
X55516223Y-43715654D01*
X55484983Y-43690017D01*
X55459346Y-43658777D01*
X55440296Y-43623138D01*
X55428565Y-43584468D01*
X55424000Y-43538112D01*
X55424000Y-42461888D01*
X55428565Y-42415532D01*
X55440296Y-42376862D01*
X55459346Y-42341223D01*
X55484983Y-42309983D01*
X55516223Y-42284346D01*
X55551862Y-42265296D01*
X55590532Y-42253565D01*
X55636888Y-42249000D01*
X56288112Y-42249000D01*
X56334468Y-42253565D01*
X56334468Y-42253565D01*
G37*
G36*
X59734468Y-42253565D02*
G01*
X59773138Y-42265296D01*
X59808777Y-42284346D01*
X59840017Y-42309983D01*
X59865654Y-42341223D01*
X59884704Y-42376862D01*
X59896435Y-42415532D01*
X59901000Y-42461888D01*
X59901000Y-43538112D01*
X59896435Y-43584468D01*
X59884704Y-43623138D01*
X59865654Y-43658777D01*
X59840017Y-43690017D01*
X59808777Y-43715654D01*
X59773138Y-43734704D01*
X59734468Y-43746435D01*
X59688112Y-43751000D01*
X59036888Y-43751000D01*
X58990532Y-43746435D01*
X58951862Y-43734704D01*
X58916223Y-43715654D01*
X58884983Y-43690017D01*
X58859346Y-43658777D01*
X58840296Y-43623138D01*
X58828565Y-43584468D01*
X58824000Y-43538112D01*
X58824000Y-42461888D01*
X58828565Y-42415532D01*
X58840296Y-42376862D01*
X58859346Y-42341223D01*
X58884983Y-42309983D01*
X58916223Y-42284346D01*
X58951862Y-42265296D01*
X58990532Y-42253565D01*
X59036888Y-42249000D01*
X59688112Y-42249000D01*
X59734468Y-42253565D01*
X59734468Y-42253565D01*
G37*
G36*
X61609468Y-42253565D02*
G01*
X61648138Y-42265296D01*
X61683777Y-42284346D01*
X61715017Y-42309983D01*
X61740654Y-42341223D01*
X61759704Y-42376862D01*
X61771435Y-42415532D01*
X61776000Y-42461888D01*
X61776000Y-43538112D01*
X61771435Y-43584468D01*
X61759704Y-43623138D01*
X61740654Y-43658777D01*
X61715017Y-43690017D01*
X61683777Y-43715654D01*
X61648138Y-43734704D01*
X61609468Y-43746435D01*
X61563112Y-43751000D01*
X60911888Y-43751000D01*
X60865532Y-43746435D01*
X60826862Y-43734704D01*
X60791223Y-43715654D01*
X60759983Y-43690017D01*
X60734346Y-43658777D01*
X60715296Y-43623138D01*
X60703565Y-43584468D01*
X60699000Y-43538112D01*
X60699000Y-42461888D01*
X60703565Y-42415532D01*
X60715296Y-42376862D01*
X60734346Y-42341223D01*
X60759983Y-42309983D01*
X60791223Y-42284346D01*
X60826862Y-42265296D01*
X60865532Y-42253565D01*
X60911888Y-42249000D01*
X61563112Y-42249000D01*
X61609468Y-42253565D01*
X61609468Y-42253565D01*
G37*
G36*
X63810443Y-41725519D02*
G01*
X63876627Y-41732037D01*
X64046466Y-41783557D01*
X64046468Y-41783558D01*
X64070119Y-41796200D01*
X64202991Y-41867222D01*
X64238729Y-41896552D01*
X64340186Y-41979814D01*
X64405455Y-42059346D01*
X64452778Y-42117009D01*
X64452779Y-42117011D01*
X64518905Y-42240722D01*
X64536443Y-42273534D01*
X64587963Y-42443373D01*
X64605359Y-42620000D01*
X64587963Y-42796627D01*
X64536443Y-42966466D01*
X64452778Y-43122991D01*
X64423448Y-43158729D01*
X64340186Y-43260186D01*
X64256578Y-43328800D01*
X64202991Y-43372778D01*
X64046466Y-43456443D01*
X63876627Y-43507963D01*
X63810443Y-43514481D01*
X63744260Y-43521000D01*
X63655740Y-43521000D01*
X63589557Y-43514481D01*
X63523373Y-43507963D01*
X63353534Y-43456443D01*
X63197009Y-43372778D01*
X63143422Y-43328800D01*
X63059814Y-43260186D01*
X62976552Y-43158729D01*
X62947222Y-43122991D01*
X62863557Y-42966466D01*
X62812037Y-42796627D01*
X62794641Y-42620000D01*
X62812037Y-42443373D01*
X62863557Y-42273534D01*
X62881096Y-42240722D01*
X62947221Y-42117011D01*
X62947222Y-42117009D01*
X62994545Y-42059346D01*
X63059814Y-41979814D01*
X63161271Y-41896552D01*
X63197009Y-41867222D01*
X63329881Y-41796200D01*
X63353532Y-41783558D01*
X63353534Y-41783557D01*
X63523373Y-41732037D01*
X63589557Y-41725519D01*
X63655740Y-41719000D01*
X63744260Y-41719000D01*
X63810443Y-41725519D01*
X63810443Y-41725519D01*
G37*
G36*
X40684468Y-42028565D02*
G01*
X40723138Y-42040296D01*
X40758777Y-42059346D01*
X40790017Y-42084983D01*
X40815654Y-42116223D01*
X40834704Y-42151862D01*
X40846435Y-42190532D01*
X40851000Y-42236888D01*
X40851000Y-42888112D01*
X40846435Y-42934468D01*
X40834704Y-42973138D01*
X40815654Y-43008777D01*
X40790017Y-43040017D01*
X40758777Y-43065654D01*
X40723138Y-43084704D01*
X40684468Y-43096435D01*
X40638112Y-43101000D01*
X39561888Y-43101000D01*
X39515532Y-43096435D01*
X39476862Y-43084704D01*
X39441223Y-43065654D01*
X39409983Y-43040017D01*
X39384346Y-43008777D01*
X39365296Y-42973138D01*
X39353565Y-42934468D01*
X39349000Y-42888112D01*
X39349000Y-42236888D01*
X39353565Y-42190532D01*
X39365296Y-42151862D01*
X39384346Y-42116223D01*
X39409983Y-42084983D01*
X39441223Y-42059346D01*
X39476862Y-42040296D01*
X39515532Y-42028565D01*
X39561888Y-42024000D01*
X40638112Y-42024000D01*
X40684468Y-42028565D01*
X40684468Y-42028565D01*
G37*
G36*
X52926000Y-42901000D02*
G01*
X52174000Y-42901000D01*
X52174000Y-41099000D01*
X52926000Y-41099000D01*
X52926000Y-42901000D01*
X52926000Y-42901000D01*
G37*
G36*
X54826000Y-42901000D02*
G01*
X54074000Y-42901000D01*
X54074000Y-41099000D01*
X54826000Y-41099000D01*
X54826000Y-42901000D01*
X54826000Y-42901000D01*
G37*
G36*
X44209468Y-40353565D02*
G01*
X44248138Y-40365296D01*
X44283777Y-40384346D01*
X44315017Y-40409983D01*
X44340654Y-40441223D01*
X44359704Y-40476862D01*
X44371435Y-40515532D01*
X44376000Y-40561888D01*
X44376000Y-41638112D01*
X44371435Y-41684468D01*
X44359704Y-41723138D01*
X44340654Y-41758777D01*
X44315017Y-41790017D01*
X44283777Y-41815654D01*
X44248138Y-41834704D01*
X44209468Y-41846435D01*
X44163112Y-41851000D01*
X43511888Y-41851000D01*
X43465532Y-41846435D01*
X43426862Y-41834704D01*
X43391223Y-41815654D01*
X43359983Y-41790017D01*
X43334346Y-41758777D01*
X43315296Y-41723138D01*
X43303565Y-41684468D01*
X43299000Y-41638112D01*
X43299000Y-40561888D01*
X43303565Y-40515532D01*
X43315296Y-40476862D01*
X43334346Y-40441223D01*
X43359983Y-40409983D01*
X43391223Y-40384346D01*
X43426862Y-40365296D01*
X43465532Y-40353565D01*
X43511888Y-40349000D01*
X44163112Y-40349000D01*
X44209468Y-40353565D01*
X44209468Y-40353565D01*
G37*
G36*
X59734468Y-40353565D02*
G01*
X59773138Y-40365296D01*
X59808777Y-40384346D01*
X59840017Y-40409983D01*
X59865654Y-40441223D01*
X59884704Y-40476862D01*
X59896435Y-40515532D01*
X59901000Y-40561888D01*
X59901000Y-41638112D01*
X59896435Y-41684468D01*
X59884704Y-41723138D01*
X59865654Y-41758777D01*
X59840017Y-41790017D01*
X59808777Y-41815654D01*
X59773138Y-41834704D01*
X59734468Y-41846435D01*
X59688112Y-41851000D01*
X59036888Y-41851000D01*
X58990532Y-41846435D01*
X58951862Y-41834704D01*
X58916223Y-41815654D01*
X58884983Y-41790017D01*
X58859346Y-41758777D01*
X58840296Y-41723138D01*
X58828565Y-41684468D01*
X58824000Y-41638112D01*
X58824000Y-40561888D01*
X58828565Y-40515532D01*
X58840296Y-40476862D01*
X58859346Y-40441223D01*
X58884983Y-40409983D01*
X58916223Y-40384346D01*
X58951862Y-40365296D01*
X58990532Y-40353565D01*
X59036888Y-40349000D01*
X59688112Y-40349000D01*
X59734468Y-40353565D01*
X59734468Y-40353565D01*
G37*
G36*
X42334468Y-40353565D02*
G01*
X42373138Y-40365296D01*
X42408777Y-40384346D01*
X42440017Y-40409983D01*
X42465654Y-40441223D01*
X42484704Y-40476862D01*
X42496435Y-40515532D01*
X42501000Y-40561888D01*
X42501000Y-41638112D01*
X42496435Y-41684468D01*
X42484704Y-41723138D01*
X42465654Y-41758777D01*
X42440017Y-41790017D01*
X42408777Y-41815654D01*
X42373138Y-41834704D01*
X42334468Y-41846435D01*
X42288112Y-41851000D01*
X41636888Y-41851000D01*
X41590532Y-41846435D01*
X41551862Y-41834704D01*
X41516223Y-41815654D01*
X41484983Y-41790017D01*
X41459346Y-41758777D01*
X41440296Y-41723138D01*
X41428565Y-41684468D01*
X41424000Y-41638112D01*
X41424000Y-40561888D01*
X41428565Y-40515532D01*
X41440296Y-40476862D01*
X41459346Y-40441223D01*
X41484983Y-40409983D01*
X41516223Y-40384346D01*
X41551862Y-40365296D01*
X41590532Y-40353565D01*
X41636888Y-40349000D01*
X42288112Y-40349000D01*
X42334468Y-40353565D01*
X42334468Y-40353565D01*
G37*
G36*
X61609468Y-40353565D02*
G01*
X61648138Y-40365296D01*
X61683777Y-40384346D01*
X61715017Y-40409983D01*
X61740654Y-40441223D01*
X61759704Y-40476862D01*
X61771435Y-40515532D01*
X61776000Y-40561888D01*
X61776000Y-41638112D01*
X61771435Y-41684468D01*
X61759704Y-41723138D01*
X61740654Y-41758777D01*
X61715017Y-41790017D01*
X61683777Y-41815654D01*
X61648138Y-41834704D01*
X61609468Y-41846435D01*
X61563112Y-41851000D01*
X60911888Y-41851000D01*
X60865532Y-41846435D01*
X60826862Y-41834704D01*
X60791223Y-41815654D01*
X60759983Y-41790017D01*
X60734346Y-41758777D01*
X60715296Y-41723138D01*
X60703565Y-41684468D01*
X60699000Y-41638112D01*
X60699000Y-40561888D01*
X60703565Y-40515532D01*
X60715296Y-40476862D01*
X60734346Y-40441223D01*
X60759983Y-40409983D01*
X60791223Y-40384346D01*
X60826862Y-40365296D01*
X60865532Y-40353565D01*
X60911888Y-40349000D01*
X61563112Y-40349000D01*
X61609468Y-40353565D01*
X61609468Y-40353565D01*
G37*
G36*
X46955355Y-40500083D02*
G01*
X46960029Y-40501501D01*
X46964330Y-40503800D01*
X46970702Y-40509029D01*
X46991076Y-40522643D01*
X47013715Y-40532020D01*
X47037749Y-40536800D01*
X47062253Y-40536800D01*
X47086286Y-40532019D01*
X47108925Y-40522642D01*
X47129298Y-40509029D01*
X47135670Y-40503800D01*
X47139971Y-40501501D01*
X47144645Y-40500083D01*
X47155641Y-40499000D01*
X47444359Y-40499000D01*
X47455355Y-40500083D01*
X47460029Y-40501501D01*
X47464330Y-40503800D01*
X47470702Y-40509029D01*
X47491076Y-40522643D01*
X47513715Y-40532020D01*
X47537749Y-40536800D01*
X47562253Y-40536800D01*
X47586286Y-40532019D01*
X47608925Y-40522642D01*
X47629298Y-40509029D01*
X47635670Y-40503800D01*
X47639971Y-40501501D01*
X47644645Y-40500083D01*
X47655641Y-40499000D01*
X47944359Y-40499000D01*
X47955355Y-40500083D01*
X47960029Y-40501501D01*
X47964330Y-40503800D01*
X47970702Y-40509029D01*
X47991076Y-40522643D01*
X48013715Y-40532020D01*
X48037749Y-40536800D01*
X48062253Y-40536800D01*
X48086286Y-40532019D01*
X48108925Y-40522642D01*
X48129298Y-40509029D01*
X48135670Y-40503800D01*
X48139971Y-40501501D01*
X48144645Y-40500083D01*
X48155641Y-40499000D01*
X48444359Y-40499000D01*
X48455355Y-40500083D01*
X48460029Y-40501501D01*
X48464330Y-40503800D01*
X48470702Y-40509029D01*
X48491076Y-40522643D01*
X48513715Y-40532020D01*
X48537749Y-40536800D01*
X48562253Y-40536800D01*
X48586286Y-40532019D01*
X48608925Y-40522642D01*
X48629298Y-40509029D01*
X48635670Y-40503800D01*
X48639971Y-40501501D01*
X48644645Y-40500083D01*
X48655641Y-40499000D01*
X48944359Y-40499000D01*
X48955355Y-40500083D01*
X48960029Y-40501501D01*
X48964330Y-40503800D01*
X48970702Y-40509029D01*
X48991076Y-40522643D01*
X49013715Y-40532020D01*
X49037749Y-40536800D01*
X49062253Y-40536800D01*
X49086286Y-40532019D01*
X49108925Y-40522642D01*
X49129298Y-40509029D01*
X49135670Y-40503800D01*
X49139971Y-40501501D01*
X49144645Y-40500083D01*
X49155641Y-40499000D01*
X49444359Y-40499000D01*
X49455355Y-40500083D01*
X49460029Y-40501501D01*
X49464330Y-40503800D01*
X49470702Y-40509029D01*
X49491076Y-40522643D01*
X49513715Y-40532020D01*
X49537749Y-40536800D01*
X49562253Y-40536800D01*
X49586286Y-40532019D01*
X49608925Y-40522642D01*
X49629298Y-40509029D01*
X49635670Y-40503800D01*
X49639971Y-40501501D01*
X49644645Y-40500083D01*
X49655641Y-40499000D01*
X49944359Y-40499000D01*
X49955355Y-40500083D01*
X49960029Y-40501501D01*
X49964331Y-40503800D01*
X49968104Y-40506896D01*
X49971200Y-40510669D01*
X49973499Y-40514971D01*
X49974917Y-40519645D01*
X49976000Y-40530641D01*
X49976000Y-41769359D01*
X49974917Y-41780355D01*
X49973499Y-41785029D01*
X49971200Y-41789331D01*
X49968104Y-41793104D01*
X49964331Y-41796200D01*
X49960029Y-41798499D01*
X49955355Y-41799917D01*
X49944359Y-41801000D01*
X49655641Y-41801000D01*
X49644645Y-41799917D01*
X49639971Y-41798499D01*
X49635670Y-41796200D01*
X49629298Y-41790971D01*
X49608924Y-41777357D01*
X49586285Y-41767980D01*
X49562251Y-41763200D01*
X49537747Y-41763200D01*
X49513714Y-41767981D01*
X49491075Y-41777358D01*
X49470702Y-41790971D01*
X49464330Y-41796200D01*
X49460029Y-41798499D01*
X49455355Y-41799917D01*
X49444359Y-41801000D01*
X49155641Y-41801000D01*
X49144645Y-41799917D01*
X49139971Y-41798499D01*
X49135670Y-41796200D01*
X49129298Y-41790971D01*
X49108924Y-41777357D01*
X49086285Y-41767980D01*
X49062251Y-41763200D01*
X49037747Y-41763200D01*
X49013714Y-41767981D01*
X48991075Y-41777358D01*
X48970702Y-41790971D01*
X48964330Y-41796200D01*
X48960029Y-41798499D01*
X48955355Y-41799917D01*
X48944359Y-41801000D01*
X48655641Y-41801000D01*
X48644645Y-41799917D01*
X48639971Y-41798499D01*
X48635670Y-41796200D01*
X48629298Y-41790971D01*
X48608924Y-41777357D01*
X48586285Y-41767980D01*
X48562251Y-41763200D01*
X48537747Y-41763200D01*
X48513714Y-41767981D01*
X48491075Y-41777358D01*
X48470702Y-41790971D01*
X48464330Y-41796200D01*
X48460029Y-41798499D01*
X48455355Y-41799917D01*
X48444359Y-41801000D01*
X48155641Y-41801000D01*
X48144645Y-41799917D01*
X48139971Y-41798499D01*
X48135670Y-41796200D01*
X48129298Y-41790971D01*
X48108924Y-41777357D01*
X48086285Y-41767980D01*
X48062251Y-41763200D01*
X48037747Y-41763200D01*
X48013714Y-41767981D01*
X47991075Y-41777358D01*
X47970702Y-41790971D01*
X47964330Y-41796200D01*
X47960029Y-41798499D01*
X47955355Y-41799917D01*
X47944359Y-41801000D01*
X47655641Y-41801000D01*
X47644645Y-41799917D01*
X47639971Y-41798499D01*
X47635670Y-41796200D01*
X47629298Y-41790971D01*
X47608924Y-41777357D01*
X47586285Y-41767980D01*
X47562251Y-41763200D01*
X47537747Y-41763200D01*
X47513714Y-41767981D01*
X47491075Y-41777358D01*
X47470702Y-41790971D01*
X47464330Y-41796200D01*
X47460029Y-41798499D01*
X47455355Y-41799917D01*
X47444359Y-41801000D01*
X47155641Y-41801000D01*
X47144645Y-41799917D01*
X47139971Y-41798499D01*
X47135670Y-41796200D01*
X47129298Y-41790971D01*
X47108924Y-41777357D01*
X47086285Y-41767980D01*
X47062251Y-41763200D01*
X47037747Y-41763200D01*
X47013714Y-41767981D01*
X46991075Y-41777358D01*
X46970702Y-41790971D01*
X46964330Y-41796200D01*
X46960029Y-41798499D01*
X46955355Y-41799917D01*
X46944359Y-41801000D01*
X46655641Y-41801000D01*
X46644645Y-41799917D01*
X46639971Y-41798499D01*
X46635669Y-41796200D01*
X46631896Y-41793104D01*
X46628800Y-41789331D01*
X46626501Y-41785029D01*
X46625083Y-41780355D01*
X46624000Y-41769359D01*
X46624000Y-40530641D01*
X46625083Y-40519645D01*
X46626501Y-40514971D01*
X46628800Y-40510669D01*
X46631896Y-40506896D01*
X46635669Y-40503800D01*
X46639971Y-40501501D01*
X46644645Y-40500083D01*
X46655641Y-40499000D01*
X46944359Y-40499000D01*
X46955355Y-40500083D01*
X46955355Y-40500083D01*
G37*
G36*
X63810442Y-39185518D02*
G01*
X63876627Y-39192037D01*
X64046466Y-39243557D01*
X64046468Y-39243558D01*
X64094992Y-39269495D01*
X64202991Y-39327222D01*
X64220051Y-39341223D01*
X64340186Y-39439814D01*
X64423448Y-39541271D01*
X64452778Y-39577009D01*
X64536443Y-39733534D01*
X64587963Y-39903373D01*
X64605359Y-40080000D01*
X64587963Y-40256627D01*
X64536443Y-40426466D01*
X64452778Y-40582991D01*
X64423841Y-40618250D01*
X64340186Y-40720186D01*
X64238729Y-40803448D01*
X64202991Y-40832778D01*
X64046466Y-40916443D01*
X63876627Y-40967963D01*
X63810443Y-40974481D01*
X63744260Y-40981000D01*
X63655740Y-40981000D01*
X63589557Y-40974481D01*
X63523373Y-40967963D01*
X63353534Y-40916443D01*
X63197009Y-40832778D01*
X63161271Y-40803448D01*
X63059814Y-40720186D01*
X62976159Y-40618250D01*
X62947222Y-40582991D01*
X62863557Y-40426466D01*
X62812037Y-40256627D01*
X62794641Y-40080000D01*
X62812037Y-39903373D01*
X62863557Y-39733534D01*
X62947222Y-39577009D01*
X62976552Y-39541271D01*
X63059814Y-39439814D01*
X63179949Y-39341223D01*
X63197009Y-39327222D01*
X63305008Y-39269495D01*
X63353532Y-39243558D01*
X63353534Y-39243557D01*
X63523373Y-39192037D01*
X63589558Y-39185518D01*
X63655740Y-39179000D01*
X63744260Y-39179000D01*
X63810442Y-39185518D01*
X63810442Y-39185518D01*
G37*
G36*
X56334468Y-39253565D02*
G01*
X56373138Y-39265296D01*
X56408777Y-39284346D01*
X56440017Y-39309983D01*
X56465654Y-39341223D01*
X56484704Y-39376862D01*
X56496435Y-39415532D01*
X56501000Y-39461888D01*
X56501000Y-40538112D01*
X56496435Y-40584468D01*
X56484704Y-40623138D01*
X56465654Y-40658777D01*
X56440017Y-40690017D01*
X56408777Y-40715654D01*
X56373138Y-40734704D01*
X56334468Y-40746435D01*
X56288112Y-40751000D01*
X55636888Y-40751000D01*
X55590532Y-40746435D01*
X55551862Y-40734704D01*
X55516223Y-40715654D01*
X55484983Y-40690017D01*
X55459346Y-40658777D01*
X55440296Y-40623138D01*
X55428565Y-40584468D01*
X55424000Y-40538112D01*
X55424000Y-39461888D01*
X55428565Y-39415532D01*
X55440296Y-39376862D01*
X55459346Y-39341223D01*
X55484983Y-39309983D01*
X55516223Y-39284346D01*
X55551862Y-39265296D01*
X55590532Y-39253565D01*
X55636888Y-39249000D01*
X56288112Y-39249000D01*
X56334468Y-39253565D01*
X56334468Y-39253565D01*
G37*
G36*
X58209468Y-39253565D02*
G01*
X58248138Y-39265296D01*
X58283777Y-39284346D01*
X58315017Y-39309983D01*
X58340654Y-39341223D01*
X58359704Y-39376862D01*
X58371435Y-39415532D01*
X58376000Y-39461888D01*
X58376000Y-40538112D01*
X58371435Y-40584468D01*
X58359704Y-40623138D01*
X58340654Y-40658777D01*
X58315017Y-40690017D01*
X58283777Y-40715654D01*
X58248138Y-40734704D01*
X58209468Y-40746435D01*
X58163112Y-40751000D01*
X57511888Y-40751000D01*
X57465532Y-40746435D01*
X57426862Y-40734704D01*
X57391223Y-40715654D01*
X57359983Y-40690017D01*
X57334346Y-40658777D01*
X57315296Y-40623138D01*
X57303565Y-40584468D01*
X57299000Y-40538112D01*
X57299000Y-39461888D01*
X57303565Y-39415532D01*
X57315296Y-39376862D01*
X57334346Y-39341223D01*
X57359983Y-39309983D01*
X57391223Y-39284346D01*
X57426862Y-39265296D01*
X57465532Y-39253565D01*
X57511888Y-39249000D01*
X58163112Y-39249000D01*
X58209468Y-39253565D01*
X58209468Y-39253565D01*
G37*
G36*
X50026000Y-40226000D02*
G01*
X46574000Y-40226000D01*
X46574000Y-36774000D01*
X50026000Y-36774000D01*
X50026000Y-40226000D01*
X50026000Y-40226000D01*
G37*
G36*
X46280355Y-36825083D02*
G01*
X46285029Y-36826501D01*
X46289331Y-36828800D01*
X46293104Y-36831896D01*
X46296200Y-36835669D01*
X46298499Y-36839971D01*
X46299917Y-36844645D01*
X46301000Y-36855641D01*
X46301000Y-37144359D01*
X46299917Y-37155355D01*
X46298499Y-37160029D01*
X46296200Y-37164330D01*
X46290971Y-37170702D01*
X46277357Y-37191076D01*
X46267980Y-37213715D01*
X46263200Y-37237749D01*
X46263200Y-37262253D01*
X46267981Y-37286286D01*
X46277358Y-37308925D01*
X46290971Y-37329298D01*
X46296200Y-37335670D01*
X46298499Y-37339971D01*
X46299917Y-37344645D01*
X46301000Y-37355641D01*
X46301000Y-37644359D01*
X46299917Y-37655355D01*
X46298499Y-37660029D01*
X46296200Y-37664330D01*
X46290971Y-37670702D01*
X46277357Y-37691076D01*
X46267980Y-37713715D01*
X46263200Y-37737749D01*
X46263200Y-37762253D01*
X46267981Y-37786286D01*
X46277358Y-37808925D01*
X46290971Y-37829298D01*
X46296200Y-37835670D01*
X46298499Y-37839971D01*
X46299917Y-37844645D01*
X46301000Y-37855641D01*
X46301000Y-38144359D01*
X46299917Y-38155355D01*
X46298499Y-38160029D01*
X46296200Y-38164330D01*
X46290971Y-38170702D01*
X46277357Y-38191076D01*
X46267980Y-38213715D01*
X46263200Y-38237749D01*
X46263200Y-38262253D01*
X46267981Y-38286286D01*
X46277358Y-38308925D01*
X46290971Y-38329298D01*
X46296200Y-38335670D01*
X46298499Y-38339971D01*
X46299917Y-38344645D01*
X46301000Y-38355641D01*
X46301000Y-38644359D01*
X46299917Y-38655355D01*
X46298499Y-38660029D01*
X46296200Y-38664330D01*
X46290971Y-38670702D01*
X46277357Y-38691076D01*
X46267980Y-38713715D01*
X46263200Y-38737749D01*
X46263200Y-38762253D01*
X46267981Y-38786286D01*
X46277358Y-38808925D01*
X46290971Y-38829298D01*
X46296200Y-38835670D01*
X46298499Y-38839971D01*
X46299917Y-38844645D01*
X46301000Y-38855641D01*
X46301000Y-39144359D01*
X46299917Y-39155355D01*
X46298499Y-39160029D01*
X46296200Y-39164330D01*
X46290971Y-39170702D01*
X46277357Y-39191076D01*
X46267980Y-39213715D01*
X46263200Y-39237749D01*
X46263200Y-39262253D01*
X46267981Y-39286286D01*
X46277358Y-39308925D01*
X46290971Y-39329298D01*
X46296200Y-39335670D01*
X46298499Y-39339971D01*
X46299917Y-39344645D01*
X46301000Y-39355641D01*
X46301000Y-39644359D01*
X46299917Y-39655355D01*
X46298499Y-39660029D01*
X46296200Y-39664330D01*
X46290971Y-39670702D01*
X46277357Y-39691076D01*
X46267980Y-39713715D01*
X46263200Y-39737749D01*
X46263200Y-39762253D01*
X46267981Y-39786286D01*
X46277358Y-39808925D01*
X46290971Y-39829298D01*
X46296200Y-39835670D01*
X46298499Y-39839971D01*
X46299917Y-39844645D01*
X46301000Y-39855641D01*
X46301000Y-40144359D01*
X46299917Y-40155355D01*
X46298499Y-40160029D01*
X46296200Y-40164331D01*
X46293104Y-40168104D01*
X46289331Y-40171200D01*
X46285029Y-40173499D01*
X46280355Y-40174917D01*
X46269359Y-40176000D01*
X45030641Y-40176000D01*
X45019645Y-40174917D01*
X45014971Y-40173499D01*
X45010669Y-40171200D01*
X45006896Y-40168104D01*
X45003800Y-40164331D01*
X45001501Y-40160029D01*
X45000083Y-40155355D01*
X44999000Y-40144359D01*
X44999000Y-39855641D01*
X45000083Y-39844645D01*
X45001501Y-39839971D01*
X45003800Y-39835670D01*
X45009029Y-39829298D01*
X45022643Y-39808924D01*
X45032020Y-39786285D01*
X45036800Y-39762251D01*
X45036800Y-39737747D01*
X45032019Y-39713714D01*
X45022642Y-39691075D01*
X45009029Y-39670702D01*
X45003800Y-39664330D01*
X45001501Y-39660029D01*
X45000083Y-39655355D01*
X44999000Y-39644359D01*
X44999000Y-39355641D01*
X45000083Y-39344645D01*
X45001501Y-39339971D01*
X45003800Y-39335670D01*
X45009029Y-39329298D01*
X45022643Y-39308924D01*
X45032020Y-39286285D01*
X45036800Y-39262251D01*
X45036800Y-39237747D01*
X45032019Y-39213714D01*
X45022642Y-39191075D01*
X45009029Y-39170702D01*
X45003800Y-39164330D01*
X45001501Y-39160029D01*
X45000083Y-39155355D01*
X44999000Y-39144359D01*
X44999000Y-38855641D01*
X45000083Y-38844645D01*
X45001501Y-38839971D01*
X45003800Y-38835670D01*
X45009029Y-38829298D01*
X45022643Y-38808924D01*
X45032020Y-38786285D01*
X45036800Y-38762251D01*
X45036800Y-38737747D01*
X45032019Y-38713714D01*
X45022642Y-38691075D01*
X45009029Y-38670702D01*
X45003800Y-38664330D01*
X45001501Y-38660029D01*
X45000083Y-38655355D01*
X44999000Y-38644359D01*
X44999000Y-38355641D01*
X45000083Y-38344645D01*
X45001501Y-38339971D01*
X45003800Y-38335670D01*
X45009029Y-38329298D01*
X45022643Y-38308924D01*
X45032020Y-38286285D01*
X45036800Y-38262251D01*
X45036800Y-38237747D01*
X45032019Y-38213714D01*
X45022642Y-38191075D01*
X45009029Y-38170702D01*
X45003800Y-38164330D01*
X45001501Y-38160029D01*
X45000083Y-38155355D01*
X44999000Y-38144359D01*
X44999000Y-37855641D01*
X45000083Y-37844645D01*
X45001501Y-37839971D01*
X45003800Y-37835670D01*
X45009029Y-37829298D01*
X45022643Y-37808924D01*
X45032020Y-37786285D01*
X45036800Y-37762251D01*
X45036800Y-37737747D01*
X45032019Y-37713714D01*
X45022642Y-37691075D01*
X45009029Y-37670702D01*
X45003800Y-37664330D01*
X45001501Y-37660029D01*
X45000083Y-37655355D01*
X44999000Y-37644359D01*
X44999000Y-37355641D01*
X45000083Y-37344645D01*
X45001501Y-37339971D01*
X45003800Y-37335670D01*
X45009029Y-37329298D01*
X45022643Y-37308924D01*
X45032020Y-37286285D01*
X45036800Y-37262251D01*
X45036800Y-37237747D01*
X45032019Y-37213714D01*
X45022642Y-37191075D01*
X45009029Y-37170702D01*
X45003800Y-37164330D01*
X45001501Y-37160029D01*
X45000083Y-37155355D01*
X44999000Y-37144359D01*
X44999000Y-36855641D01*
X45000083Y-36844645D01*
X45001501Y-36839971D01*
X45003800Y-36835669D01*
X45006896Y-36831896D01*
X45010669Y-36828800D01*
X45014971Y-36826501D01*
X45019645Y-36825083D01*
X45030641Y-36824000D01*
X46269359Y-36824000D01*
X46280355Y-36825083D01*
X46280355Y-36825083D01*
G37*
G36*
X51580355Y-36825083D02*
G01*
X51585029Y-36826501D01*
X51589331Y-36828800D01*
X51593104Y-36831896D01*
X51596200Y-36835669D01*
X51598499Y-36839971D01*
X51599917Y-36844645D01*
X51601000Y-36855641D01*
X51601000Y-37144359D01*
X51599917Y-37155355D01*
X51598499Y-37160029D01*
X51596200Y-37164330D01*
X51590971Y-37170702D01*
X51577357Y-37191076D01*
X51567980Y-37213715D01*
X51563200Y-37237749D01*
X51563200Y-37262253D01*
X51567981Y-37286286D01*
X51577358Y-37308925D01*
X51590971Y-37329298D01*
X51596200Y-37335670D01*
X51598499Y-37339971D01*
X51599917Y-37344645D01*
X51601000Y-37355641D01*
X51601000Y-37644359D01*
X51599917Y-37655355D01*
X51598499Y-37660029D01*
X51596200Y-37664330D01*
X51590971Y-37670702D01*
X51577357Y-37691076D01*
X51567980Y-37713715D01*
X51563200Y-37737749D01*
X51563200Y-37762253D01*
X51567981Y-37786286D01*
X51577358Y-37808925D01*
X51590971Y-37829298D01*
X51596200Y-37835670D01*
X51598499Y-37839971D01*
X51599917Y-37844645D01*
X51601000Y-37855641D01*
X51601000Y-38144359D01*
X51599917Y-38155355D01*
X51598499Y-38160029D01*
X51596200Y-38164330D01*
X51590971Y-38170702D01*
X51577357Y-38191076D01*
X51567980Y-38213715D01*
X51563200Y-38237749D01*
X51563200Y-38262253D01*
X51567981Y-38286286D01*
X51577358Y-38308925D01*
X51590971Y-38329298D01*
X51596200Y-38335670D01*
X51598499Y-38339971D01*
X51599917Y-38344645D01*
X51601000Y-38355641D01*
X51601000Y-38644359D01*
X51599917Y-38655355D01*
X51598499Y-38660029D01*
X51596200Y-38664330D01*
X51590971Y-38670702D01*
X51577357Y-38691076D01*
X51567980Y-38713715D01*
X51563200Y-38737749D01*
X51563200Y-38762253D01*
X51567981Y-38786286D01*
X51577358Y-38808925D01*
X51590971Y-38829298D01*
X51596200Y-38835670D01*
X51598499Y-38839971D01*
X51599917Y-38844645D01*
X51601000Y-38855641D01*
X51601000Y-39144359D01*
X51599917Y-39155355D01*
X51598499Y-39160029D01*
X51596200Y-39164330D01*
X51590971Y-39170702D01*
X51577357Y-39191076D01*
X51567980Y-39213715D01*
X51563200Y-39237749D01*
X51563200Y-39262253D01*
X51567981Y-39286286D01*
X51577358Y-39308925D01*
X51590971Y-39329298D01*
X51596200Y-39335670D01*
X51598499Y-39339971D01*
X51599917Y-39344645D01*
X51601000Y-39355641D01*
X51601000Y-39644359D01*
X51599917Y-39655355D01*
X51598499Y-39660029D01*
X51596200Y-39664330D01*
X51590971Y-39670702D01*
X51577357Y-39691076D01*
X51567980Y-39713715D01*
X51563200Y-39737749D01*
X51563200Y-39762253D01*
X51567981Y-39786286D01*
X51577358Y-39808925D01*
X51590971Y-39829298D01*
X51596200Y-39835670D01*
X51598499Y-39839971D01*
X51599917Y-39844645D01*
X51601000Y-39855641D01*
X51601000Y-40144359D01*
X51599917Y-40155355D01*
X51598499Y-40160029D01*
X51596200Y-40164331D01*
X51593104Y-40168104D01*
X51589331Y-40171200D01*
X51585029Y-40173499D01*
X51580355Y-40174917D01*
X51569359Y-40176000D01*
X50330641Y-40176000D01*
X50319645Y-40174917D01*
X50314971Y-40173499D01*
X50310669Y-40171200D01*
X50306896Y-40168104D01*
X50303800Y-40164331D01*
X50301501Y-40160029D01*
X50300083Y-40155355D01*
X50299000Y-40144359D01*
X50299000Y-39855641D01*
X50300083Y-39844645D01*
X50301501Y-39839971D01*
X50303800Y-39835670D01*
X50309029Y-39829298D01*
X50322643Y-39808924D01*
X50332020Y-39786285D01*
X50336800Y-39762251D01*
X50336800Y-39737747D01*
X50332019Y-39713714D01*
X50322642Y-39691075D01*
X50309029Y-39670702D01*
X50303800Y-39664330D01*
X50301501Y-39660029D01*
X50300083Y-39655355D01*
X50299000Y-39644359D01*
X50299000Y-39355641D01*
X50300083Y-39344645D01*
X50301501Y-39339971D01*
X50303800Y-39335670D01*
X50309029Y-39329298D01*
X50322643Y-39308924D01*
X50332020Y-39286285D01*
X50336800Y-39262251D01*
X50336800Y-39237747D01*
X50332019Y-39213714D01*
X50322642Y-39191075D01*
X50309029Y-39170702D01*
X50303800Y-39164330D01*
X50301501Y-39160029D01*
X50300083Y-39155355D01*
X50299000Y-39144359D01*
X50299000Y-38855641D01*
X50300083Y-38844645D01*
X50301501Y-38839971D01*
X50303800Y-38835670D01*
X50309029Y-38829298D01*
X50322643Y-38808924D01*
X50332020Y-38786285D01*
X50336800Y-38762251D01*
X50336800Y-38737747D01*
X50332019Y-38713714D01*
X50322642Y-38691075D01*
X50309029Y-38670702D01*
X50303800Y-38664330D01*
X50301501Y-38660029D01*
X50300083Y-38655355D01*
X50299000Y-38644359D01*
X50299000Y-38355641D01*
X50300083Y-38344645D01*
X50301501Y-38339971D01*
X50303800Y-38335670D01*
X50309029Y-38329298D01*
X50322643Y-38308924D01*
X50332020Y-38286285D01*
X50336800Y-38262251D01*
X50336800Y-38237747D01*
X50332019Y-38213714D01*
X50322642Y-38191075D01*
X50309029Y-38170702D01*
X50303800Y-38164330D01*
X50301501Y-38160029D01*
X50300083Y-38155355D01*
X50299000Y-38144359D01*
X50299000Y-37855641D01*
X50300083Y-37844645D01*
X50301501Y-37839971D01*
X50303800Y-37835670D01*
X50309029Y-37829298D01*
X50322643Y-37808924D01*
X50332020Y-37786285D01*
X50336800Y-37762251D01*
X50336800Y-37737747D01*
X50332019Y-37713714D01*
X50322642Y-37691075D01*
X50309029Y-37670702D01*
X50303800Y-37664330D01*
X50301501Y-37660029D01*
X50300083Y-37655355D01*
X50299000Y-37644359D01*
X50299000Y-37355641D01*
X50300083Y-37344645D01*
X50301501Y-37339971D01*
X50303800Y-37335670D01*
X50309029Y-37329298D01*
X50322643Y-37308924D01*
X50332020Y-37286285D01*
X50336800Y-37262251D01*
X50336800Y-37237747D01*
X50332019Y-37213714D01*
X50322642Y-37191075D01*
X50309029Y-37170702D01*
X50303800Y-37164330D01*
X50301501Y-37160029D01*
X50300083Y-37155355D01*
X50299000Y-37144359D01*
X50299000Y-36855641D01*
X50300083Y-36844645D01*
X50301501Y-36839971D01*
X50303800Y-36835669D01*
X50306896Y-36831896D01*
X50310669Y-36828800D01*
X50314971Y-36826501D01*
X50319645Y-36825083D01*
X50330641Y-36824000D01*
X51569359Y-36824000D01*
X51580355Y-36825083D01*
X51580355Y-36825083D01*
G37*
G36*
X44209468Y-38453565D02*
G01*
X44248138Y-38465296D01*
X44283777Y-38484346D01*
X44315017Y-38509983D01*
X44340654Y-38541223D01*
X44359704Y-38576862D01*
X44371435Y-38615532D01*
X44376000Y-38661888D01*
X44376000Y-39738112D01*
X44371435Y-39784468D01*
X44359704Y-39823138D01*
X44340654Y-39858777D01*
X44315017Y-39890017D01*
X44283777Y-39915654D01*
X44248138Y-39934704D01*
X44209468Y-39946435D01*
X44163112Y-39951000D01*
X43511888Y-39951000D01*
X43465532Y-39946435D01*
X43426862Y-39934704D01*
X43391223Y-39915654D01*
X43359983Y-39890017D01*
X43334346Y-39858777D01*
X43315296Y-39823138D01*
X43303565Y-39784468D01*
X43299000Y-39738112D01*
X43299000Y-38661888D01*
X43303565Y-38615532D01*
X43315296Y-38576862D01*
X43334346Y-38541223D01*
X43359983Y-38509983D01*
X43391223Y-38484346D01*
X43426862Y-38465296D01*
X43465532Y-38453565D01*
X43511888Y-38449000D01*
X44163112Y-38449000D01*
X44209468Y-38453565D01*
X44209468Y-38453565D01*
G37*
G36*
X42334468Y-38453565D02*
G01*
X42373138Y-38465296D01*
X42408777Y-38484346D01*
X42440017Y-38509983D01*
X42465654Y-38541223D01*
X42484704Y-38576862D01*
X42496435Y-38615532D01*
X42501000Y-38661888D01*
X42501000Y-39738112D01*
X42496435Y-39784468D01*
X42484704Y-39823138D01*
X42465654Y-39858777D01*
X42440017Y-39890017D01*
X42408777Y-39915654D01*
X42373138Y-39934704D01*
X42334468Y-39946435D01*
X42288112Y-39951000D01*
X41636888Y-39951000D01*
X41590532Y-39946435D01*
X41551862Y-39934704D01*
X41516223Y-39915654D01*
X41484983Y-39890017D01*
X41459346Y-39858777D01*
X41440296Y-39823138D01*
X41428565Y-39784468D01*
X41424000Y-39738112D01*
X41424000Y-38661888D01*
X41428565Y-38615532D01*
X41440296Y-38576862D01*
X41459346Y-38541223D01*
X41484983Y-38509983D01*
X41516223Y-38484346D01*
X41551862Y-38465296D01*
X41590532Y-38453565D01*
X41636888Y-38449000D01*
X42288112Y-38449000D01*
X42334468Y-38453565D01*
X42334468Y-38453565D01*
G37*
G36*
X56209468Y-37253565D02*
G01*
X56248138Y-37265296D01*
X56283777Y-37284346D01*
X56315017Y-37309983D01*
X56340654Y-37341223D01*
X56359704Y-37376862D01*
X56371435Y-37415532D01*
X56376000Y-37461888D01*
X56376000Y-38538112D01*
X56371435Y-38584468D01*
X56359704Y-38623138D01*
X56340654Y-38658777D01*
X56315017Y-38690017D01*
X56283777Y-38715654D01*
X56248138Y-38734704D01*
X56209468Y-38746435D01*
X56163112Y-38751000D01*
X55511888Y-38751000D01*
X55465532Y-38746435D01*
X55426862Y-38734704D01*
X55391223Y-38715654D01*
X55359983Y-38690017D01*
X55334346Y-38658777D01*
X55315296Y-38623138D01*
X55303565Y-38584468D01*
X55299000Y-38538112D01*
X55299000Y-37461888D01*
X55303565Y-37415532D01*
X55315296Y-37376862D01*
X55334346Y-37341223D01*
X55359983Y-37309983D01*
X55391223Y-37284346D01*
X55426862Y-37265296D01*
X55465532Y-37253565D01*
X55511888Y-37249000D01*
X56163112Y-37249000D01*
X56209468Y-37253565D01*
X56209468Y-37253565D01*
G37*
G36*
X54334468Y-37253565D02*
G01*
X54373138Y-37265296D01*
X54408777Y-37284346D01*
X54440017Y-37309983D01*
X54465654Y-37341223D01*
X54484704Y-37376862D01*
X54496435Y-37415532D01*
X54501000Y-37461888D01*
X54501000Y-38538112D01*
X54496435Y-38584468D01*
X54484704Y-38623138D01*
X54465654Y-38658777D01*
X54440017Y-38690017D01*
X54408777Y-38715654D01*
X54373138Y-38734704D01*
X54334468Y-38746435D01*
X54288112Y-38751000D01*
X53636888Y-38751000D01*
X53590532Y-38746435D01*
X53551862Y-38734704D01*
X53516223Y-38715654D01*
X53484983Y-38690017D01*
X53459346Y-38658777D01*
X53440296Y-38623138D01*
X53428565Y-38584468D01*
X53424000Y-38538112D01*
X53424000Y-37461888D01*
X53428565Y-37415532D01*
X53440296Y-37376862D01*
X53459346Y-37341223D01*
X53484983Y-37309983D01*
X53516223Y-37284346D01*
X53551862Y-37265296D01*
X53590532Y-37253565D01*
X53636888Y-37249000D01*
X54288112Y-37249000D01*
X54334468Y-37253565D01*
X54334468Y-37253565D01*
G37*
G36*
X44209468Y-36553565D02*
G01*
X44248138Y-36565296D01*
X44283777Y-36584346D01*
X44315017Y-36609983D01*
X44340654Y-36641223D01*
X44359704Y-36676862D01*
X44371435Y-36715532D01*
X44376000Y-36761888D01*
X44376000Y-37838112D01*
X44371435Y-37884468D01*
X44359704Y-37923138D01*
X44340654Y-37958777D01*
X44315017Y-37990017D01*
X44283777Y-38015654D01*
X44248138Y-38034704D01*
X44209468Y-38046435D01*
X44163112Y-38051000D01*
X43511888Y-38051000D01*
X43465532Y-38046435D01*
X43426862Y-38034704D01*
X43391223Y-38015654D01*
X43359983Y-37990017D01*
X43334346Y-37958777D01*
X43315296Y-37923138D01*
X43303565Y-37884468D01*
X43299000Y-37838112D01*
X43299000Y-36761888D01*
X43303565Y-36715532D01*
X43315296Y-36676862D01*
X43334346Y-36641223D01*
X43359983Y-36609983D01*
X43391223Y-36584346D01*
X43426862Y-36565296D01*
X43465532Y-36553565D01*
X43511888Y-36549000D01*
X44163112Y-36549000D01*
X44209468Y-36553565D01*
X44209468Y-36553565D01*
G37*
G36*
X42334468Y-36553565D02*
G01*
X42373138Y-36565296D01*
X42408777Y-36584346D01*
X42440017Y-36609983D01*
X42465654Y-36641223D01*
X42484704Y-36676862D01*
X42496435Y-36715532D01*
X42501000Y-36761888D01*
X42501000Y-37838112D01*
X42496435Y-37884468D01*
X42484704Y-37923138D01*
X42465654Y-37958777D01*
X42440017Y-37990017D01*
X42408777Y-38015654D01*
X42373138Y-38034704D01*
X42334468Y-38046435D01*
X42288112Y-38051000D01*
X41636888Y-38051000D01*
X41590532Y-38046435D01*
X41551862Y-38034704D01*
X41516223Y-38015654D01*
X41484983Y-37990017D01*
X41459346Y-37958777D01*
X41440296Y-37923138D01*
X41428565Y-37884468D01*
X41424000Y-37838112D01*
X41424000Y-36761888D01*
X41428565Y-36715532D01*
X41440296Y-36676862D01*
X41459346Y-36641223D01*
X41484983Y-36609983D01*
X41516223Y-36584346D01*
X41551862Y-36565296D01*
X41590532Y-36553565D01*
X41636888Y-36549000D01*
X42288112Y-36549000D01*
X42334468Y-36553565D01*
X42334468Y-36553565D01*
G37*
G36*
X60734468Y-35953565D02*
G01*
X60773138Y-35965296D01*
X60808777Y-35984346D01*
X60840017Y-36009983D01*
X60865654Y-36041223D01*
X60884704Y-36076862D01*
X60896435Y-36115532D01*
X60901000Y-36161888D01*
X60901000Y-37238112D01*
X60896435Y-37284468D01*
X60884704Y-37323138D01*
X60865654Y-37358777D01*
X60840017Y-37390017D01*
X60808777Y-37415654D01*
X60773138Y-37434704D01*
X60734468Y-37446435D01*
X60688112Y-37451000D01*
X60036888Y-37451000D01*
X59990532Y-37446435D01*
X59951862Y-37434704D01*
X59916223Y-37415654D01*
X59884983Y-37390017D01*
X59859346Y-37358777D01*
X59840296Y-37323138D01*
X59828565Y-37284468D01*
X59824000Y-37238112D01*
X59824000Y-36161888D01*
X59828565Y-36115532D01*
X59840296Y-36076862D01*
X59859346Y-36041223D01*
X59884983Y-36009983D01*
X59916223Y-35984346D01*
X59951862Y-35965296D01*
X59990532Y-35953565D01*
X60036888Y-35949000D01*
X60688112Y-35949000D01*
X60734468Y-35953565D01*
X60734468Y-35953565D01*
G37*
G36*
X62609468Y-35953565D02*
G01*
X62648138Y-35965296D01*
X62683777Y-35984346D01*
X62715017Y-36009983D01*
X62740654Y-36041223D01*
X62759704Y-36076862D01*
X62771435Y-36115532D01*
X62776000Y-36161888D01*
X62776000Y-37238112D01*
X62771435Y-37284468D01*
X62759704Y-37323138D01*
X62740654Y-37358777D01*
X62715017Y-37390017D01*
X62683777Y-37415654D01*
X62648138Y-37434704D01*
X62609468Y-37446435D01*
X62563112Y-37451000D01*
X61911888Y-37451000D01*
X61865532Y-37446435D01*
X61826862Y-37434704D01*
X61791223Y-37415654D01*
X61759983Y-37390017D01*
X61734346Y-37358777D01*
X61715296Y-37323138D01*
X61703565Y-37284468D01*
X61699000Y-37238112D01*
X61699000Y-36161888D01*
X61703565Y-36115532D01*
X61715296Y-36076862D01*
X61734346Y-36041223D01*
X61759983Y-36009983D01*
X61791223Y-35984346D01*
X61826862Y-35965296D01*
X61865532Y-35953565D01*
X61911888Y-35949000D01*
X62563112Y-35949000D01*
X62609468Y-35953565D01*
X62609468Y-35953565D01*
G37*
G36*
X54234468Y-35253565D02*
G01*
X54273138Y-35265296D01*
X54308777Y-35284346D01*
X54340017Y-35309983D01*
X54365654Y-35341223D01*
X54384704Y-35376862D01*
X54396435Y-35415532D01*
X54401000Y-35461888D01*
X54401000Y-36538112D01*
X54396435Y-36584468D01*
X54384704Y-36623138D01*
X54365654Y-36658777D01*
X54340017Y-36690017D01*
X54308777Y-36715654D01*
X54273138Y-36734704D01*
X54234468Y-36746435D01*
X54188112Y-36751000D01*
X53536888Y-36751000D01*
X53490532Y-36746435D01*
X53451862Y-36734704D01*
X53416223Y-36715654D01*
X53384983Y-36690017D01*
X53359346Y-36658777D01*
X53340296Y-36623138D01*
X53328565Y-36584468D01*
X53324000Y-36538112D01*
X53324000Y-35461888D01*
X53328565Y-35415532D01*
X53340296Y-35376862D01*
X53359346Y-35341223D01*
X53384983Y-35309983D01*
X53416223Y-35284346D01*
X53451862Y-35265296D01*
X53490532Y-35253565D01*
X53536888Y-35249000D01*
X54188112Y-35249000D01*
X54234468Y-35253565D01*
X54234468Y-35253565D01*
G37*
G36*
X56109468Y-35253565D02*
G01*
X56148138Y-35265296D01*
X56183777Y-35284346D01*
X56215017Y-35309983D01*
X56240654Y-35341223D01*
X56259704Y-35376862D01*
X56271435Y-35415532D01*
X56276000Y-35461888D01*
X56276000Y-36538112D01*
X56271435Y-36584468D01*
X56259704Y-36623138D01*
X56240654Y-36658777D01*
X56215017Y-36690017D01*
X56183777Y-36715654D01*
X56148138Y-36734704D01*
X56109468Y-36746435D01*
X56063112Y-36751000D01*
X55411888Y-36751000D01*
X55365532Y-36746435D01*
X55326862Y-36734704D01*
X55291223Y-36715654D01*
X55259983Y-36690017D01*
X55234346Y-36658777D01*
X55215296Y-36623138D01*
X55203565Y-36584468D01*
X55199000Y-36538112D01*
X55199000Y-35461888D01*
X55203565Y-35415532D01*
X55215296Y-35376862D01*
X55234346Y-35341223D01*
X55259983Y-35309983D01*
X55291223Y-35284346D01*
X55326862Y-35265296D01*
X55365532Y-35253565D01*
X55411888Y-35249000D01*
X56063112Y-35249000D01*
X56109468Y-35253565D01*
X56109468Y-35253565D01*
G37*
G36*
X46955355Y-35200083D02*
G01*
X46960029Y-35201501D01*
X46964330Y-35203800D01*
X46970702Y-35209029D01*
X46991076Y-35222643D01*
X47013715Y-35232020D01*
X47037749Y-35236800D01*
X47062253Y-35236800D01*
X47086286Y-35232019D01*
X47108925Y-35222642D01*
X47129298Y-35209029D01*
X47135670Y-35203800D01*
X47139971Y-35201501D01*
X47144645Y-35200083D01*
X47155641Y-35199000D01*
X47444359Y-35199000D01*
X47455355Y-35200083D01*
X47460029Y-35201501D01*
X47464330Y-35203800D01*
X47470702Y-35209029D01*
X47491076Y-35222643D01*
X47513715Y-35232020D01*
X47537749Y-35236800D01*
X47562253Y-35236800D01*
X47586286Y-35232019D01*
X47608925Y-35222642D01*
X47629298Y-35209029D01*
X47635670Y-35203800D01*
X47639971Y-35201501D01*
X47644645Y-35200083D01*
X47655641Y-35199000D01*
X47944359Y-35199000D01*
X47955355Y-35200083D01*
X47960029Y-35201501D01*
X47964330Y-35203800D01*
X47970702Y-35209029D01*
X47991076Y-35222643D01*
X48013715Y-35232020D01*
X48037749Y-35236800D01*
X48062253Y-35236800D01*
X48086286Y-35232019D01*
X48108925Y-35222642D01*
X48129298Y-35209029D01*
X48135670Y-35203800D01*
X48139971Y-35201501D01*
X48144645Y-35200083D01*
X48155641Y-35199000D01*
X48444359Y-35199000D01*
X48455355Y-35200083D01*
X48460029Y-35201501D01*
X48464330Y-35203800D01*
X48470702Y-35209029D01*
X48491076Y-35222643D01*
X48513715Y-35232020D01*
X48537749Y-35236800D01*
X48562253Y-35236800D01*
X48586286Y-35232019D01*
X48608925Y-35222642D01*
X48629298Y-35209029D01*
X48635670Y-35203800D01*
X48639971Y-35201501D01*
X48644645Y-35200083D01*
X48655641Y-35199000D01*
X48944359Y-35199000D01*
X48955355Y-35200083D01*
X48960029Y-35201501D01*
X48964330Y-35203800D01*
X48970702Y-35209029D01*
X48991076Y-35222643D01*
X49013715Y-35232020D01*
X49037749Y-35236800D01*
X49062253Y-35236800D01*
X49086286Y-35232019D01*
X49108925Y-35222642D01*
X49129298Y-35209029D01*
X49135670Y-35203800D01*
X49139971Y-35201501D01*
X49144645Y-35200083D01*
X49155641Y-35199000D01*
X49444359Y-35199000D01*
X49455355Y-35200083D01*
X49460029Y-35201501D01*
X49464330Y-35203800D01*
X49470702Y-35209029D01*
X49491076Y-35222643D01*
X49513715Y-35232020D01*
X49537749Y-35236800D01*
X49562253Y-35236800D01*
X49586286Y-35232019D01*
X49608925Y-35222642D01*
X49629298Y-35209029D01*
X49635670Y-35203800D01*
X49639971Y-35201501D01*
X49644645Y-35200083D01*
X49655641Y-35199000D01*
X49944359Y-35199000D01*
X49955355Y-35200083D01*
X49960029Y-35201501D01*
X49964331Y-35203800D01*
X49968104Y-35206896D01*
X49971200Y-35210669D01*
X49973499Y-35214971D01*
X49974917Y-35219645D01*
X49976000Y-35230641D01*
X49976000Y-36469359D01*
X49974917Y-36480355D01*
X49973499Y-36485029D01*
X49971200Y-36489331D01*
X49968104Y-36493104D01*
X49964331Y-36496200D01*
X49960029Y-36498499D01*
X49955355Y-36499917D01*
X49944359Y-36501000D01*
X49655641Y-36501000D01*
X49644645Y-36499917D01*
X49639971Y-36498499D01*
X49635670Y-36496200D01*
X49629298Y-36490971D01*
X49608924Y-36477357D01*
X49586285Y-36467980D01*
X49562251Y-36463200D01*
X49537747Y-36463200D01*
X49513714Y-36467981D01*
X49491075Y-36477358D01*
X49470702Y-36490971D01*
X49464330Y-36496200D01*
X49460029Y-36498499D01*
X49455355Y-36499917D01*
X49444359Y-36501000D01*
X49155641Y-36501000D01*
X49144645Y-36499917D01*
X49139971Y-36498499D01*
X49135670Y-36496200D01*
X49129298Y-36490971D01*
X49108924Y-36477357D01*
X49086285Y-36467980D01*
X49062251Y-36463200D01*
X49037747Y-36463200D01*
X49013714Y-36467981D01*
X48991075Y-36477358D01*
X48970702Y-36490971D01*
X48964330Y-36496200D01*
X48960029Y-36498499D01*
X48955355Y-36499917D01*
X48944359Y-36501000D01*
X48655641Y-36501000D01*
X48644645Y-36499917D01*
X48639971Y-36498499D01*
X48635670Y-36496200D01*
X48629298Y-36490971D01*
X48608924Y-36477357D01*
X48586285Y-36467980D01*
X48562251Y-36463200D01*
X48537747Y-36463200D01*
X48513714Y-36467981D01*
X48491075Y-36477358D01*
X48470702Y-36490971D01*
X48464330Y-36496200D01*
X48460029Y-36498499D01*
X48455355Y-36499917D01*
X48444359Y-36501000D01*
X48155641Y-36501000D01*
X48144645Y-36499917D01*
X48139971Y-36498499D01*
X48135670Y-36496200D01*
X48129298Y-36490971D01*
X48108924Y-36477357D01*
X48086285Y-36467980D01*
X48062251Y-36463200D01*
X48037747Y-36463200D01*
X48013714Y-36467981D01*
X47991075Y-36477358D01*
X47970702Y-36490971D01*
X47964330Y-36496200D01*
X47960029Y-36498499D01*
X47955355Y-36499917D01*
X47944359Y-36501000D01*
X47655641Y-36501000D01*
X47644645Y-36499917D01*
X47639971Y-36498499D01*
X47635670Y-36496200D01*
X47629298Y-36490971D01*
X47608924Y-36477357D01*
X47586285Y-36467980D01*
X47562251Y-36463200D01*
X47537747Y-36463200D01*
X47513714Y-36467981D01*
X47491075Y-36477358D01*
X47470702Y-36490971D01*
X47464330Y-36496200D01*
X47460029Y-36498499D01*
X47455355Y-36499917D01*
X47444359Y-36501000D01*
X47155641Y-36501000D01*
X47144645Y-36499917D01*
X47139971Y-36498499D01*
X47135670Y-36496200D01*
X47129298Y-36490971D01*
X47108924Y-36477357D01*
X47086285Y-36467980D01*
X47062251Y-36463200D01*
X47037747Y-36463200D01*
X47013714Y-36467981D01*
X46991075Y-36477358D01*
X46970702Y-36490971D01*
X46964330Y-36496200D01*
X46960029Y-36498499D01*
X46955355Y-36499917D01*
X46944359Y-36501000D01*
X46655641Y-36501000D01*
X46644645Y-36499917D01*
X46639971Y-36498499D01*
X46635669Y-36496200D01*
X46631896Y-36493104D01*
X46628800Y-36489331D01*
X46626501Y-36485029D01*
X46625083Y-36480355D01*
X46624000Y-36469359D01*
X46624000Y-35230641D01*
X46625083Y-35219645D01*
X46626501Y-35214971D01*
X46628800Y-35210669D01*
X46631896Y-35206896D01*
X46635669Y-35203800D01*
X46639971Y-35201501D01*
X46644645Y-35200083D01*
X46655641Y-35199000D01*
X46944359Y-35199000D01*
X46955355Y-35200083D01*
X46955355Y-35200083D01*
G37*
G36*
X44209468Y-34653565D02*
G01*
X44248138Y-34665296D01*
X44283777Y-34684346D01*
X44315017Y-34709983D01*
X44340654Y-34741223D01*
X44359704Y-34776862D01*
X44371435Y-34815532D01*
X44376000Y-34861888D01*
X44376000Y-35938112D01*
X44371435Y-35984468D01*
X44359704Y-36023138D01*
X44340654Y-36058777D01*
X44315017Y-36090017D01*
X44283777Y-36115654D01*
X44248138Y-36134704D01*
X44209468Y-36146435D01*
X44163112Y-36151000D01*
X43511888Y-36151000D01*
X43465532Y-36146435D01*
X43426862Y-36134704D01*
X43391223Y-36115654D01*
X43359983Y-36090017D01*
X43334346Y-36058777D01*
X43315296Y-36023138D01*
X43303565Y-35984468D01*
X43299000Y-35938112D01*
X43299000Y-34861888D01*
X43303565Y-34815532D01*
X43315296Y-34776862D01*
X43334346Y-34741223D01*
X43359983Y-34709983D01*
X43391223Y-34684346D01*
X43426862Y-34665296D01*
X43465532Y-34653565D01*
X43511888Y-34649000D01*
X44163112Y-34649000D01*
X44209468Y-34653565D01*
X44209468Y-34653565D01*
G37*
G36*
X42334468Y-34653565D02*
G01*
X42373138Y-34665296D01*
X42408777Y-34684346D01*
X42440017Y-34709983D01*
X42465654Y-34741223D01*
X42484704Y-34776862D01*
X42496435Y-34815532D01*
X42501000Y-34861888D01*
X42501000Y-35938112D01*
X42496435Y-35984468D01*
X42484704Y-36023138D01*
X42465654Y-36058777D01*
X42440017Y-36090017D01*
X42408777Y-36115654D01*
X42373138Y-36134704D01*
X42334468Y-36146435D01*
X42288112Y-36151000D01*
X41636888Y-36151000D01*
X41590532Y-36146435D01*
X41551862Y-36134704D01*
X41516223Y-36115654D01*
X41484983Y-36090017D01*
X41459346Y-36058777D01*
X41440296Y-36023138D01*
X41428565Y-35984468D01*
X41424000Y-35938112D01*
X41424000Y-34861888D01*
X41428565Y-34815532D01*
X41440296Y-34776862D01*
X41459346Y-34741223D01*
X41484983Y-34709983D01*
X41516223Y-34684346D01*
X41551862Y-34665296D01*
X41590532Y-34653565D01*
X41636888Y-34649000D01*
X42288112Y-34649000D01*
X42334468Y-34653565D01*
X42334468Y-34653565D01*
G37*
G36*
X62609468Y-34053565D02*
G01*
X62648138Y-34065296D01*
X62683777Y-34084346D01*
X62715017Y-34109983D01*
X62740654Y-34141223D01*
X62759704Y-34176862D01*
X62771435Y-34215532D01*
X62776000Y-34261888D01*
X62776000Y-35338112D01*
X62771435Y-35384468D01*
X62759704Y-35423138D01*
X62740654Y-35458777D01*
X62715017Y-35490017D01*
X62683777Y-35515654D01*
X62648138Y-35534704D01*
X62609468Y-35546435D01*
X62563112Y-35551000D01*
X61911888Y-35551000D01*
X61865532Y-35546435D01*
X61826862Y-35534704D01*
X61791223Y-35515654D01*
X61759983Y-35490017D01*
X61734346Y-35458777D01*
X61715296Y-35423138D01*
X61703565Y-35384468D01*
X61699000Y-35338112D01*
X61699000Y-34261888D01*
X61703565Y-34215532D01*
X61715296Y-34176862D01*
X61734346Y-34141223D01*
X61759983Y-34109983D01*
X61791223Y-34084346D01*
X61826862Y-34065296D01*
X61865532Y-34053565D01*
X61911888Y-34049000D01*
X62563112Y-34049000D01*
X62609468Y-34053565D01*
X62609468Y-34053565D01*
G37*
G36*
X60734468Y-34053565D02*
G01*
X60773138Y-34065296D01*
X60808777Y-34084346D01*
X60840017Y-34109983D01*
X60865654Y-34141223D01*
X60884704Y-34176862D01*
X60896435Y-34215532D01*
X60901000Y-34261888D01*
X60901000Y-35338112D01*
X60896435Y-35384468D01*
X60884704Y-35423138D01*
X60865654Y-35458777D01*
X60840017Y-35490017D01*
X60808777Y-35515654D01*
X60773138Y-35534704D01*
X60734468Y-35546435D01*
X60688112Y-35551000D01*
X60036888Y-35551000D01*
X59990532Y-35546435D01*
X59951862Y-35534704D01*
X59916223Y-35515654D01*
X59884983Y-35490017D01*
X59859346Y-35458777D01*
X59840296Y-35423138D01*
X59828565Y-35384468D01*
X59824000Y-35338112D01*
X59824000Y-34261888D01*
X59828565Y-34215532D01*
X59840296Y-34176862D01*
X59859346Y-34141223D01*
X59884983Y-34109983D01*
X59916223Y-34084346D01*
X59951862Y-34065296D01*
X59990532Y-34053565D01*
X60036888Y-34049000D01*
X60688112Y-34049000D01*
X60734468Y-34053565D01*
X60734468Y-34053565D01*
G37*
G36*
X51234468Y-33253565D02*
G01*
X51273138Y-33265296D01*
X51308777Y-33284346D01*
X51340017Y-33309983D01*
X51365654Y-33341223D01*
X51384704Y-33376862D01*
X51396435Y-33415532D01*
X51401000Y-33461888D01*
X51401000Y-34538112D01*
X51396435Y-34584468D01*
X51384704Y-34623138D01*
X51365654Y-34658777D01*
X51340017Y-34690017D01*
X51308777Y-34715654D01*
X51273138Y-34734704D01*
X51234468Y-34746435D01*
X51188112Y-34751000D01*
X50536888Y-34751000D01*
X50490532Y-34746435D01*
X50451862Y-34734704D01*
X50416223Y-34715654D01*
X50384983Y-34690017D01*
X50359346Y-34658777D01*
X50340296Y-34623138D01*
X50328565Y-34584468D01*
X50324000Y-34538112D01*
X50324000Y-33461888D01*
X50328565Y-33415532D01*
X50340296Y-33376862D01*
X50359346Y-33341223D01*
X50384983Y-33309983D01*
X50416223Y-33284346D01*
X50451862Y-33265296D01*
X50490532Y-33253565D01*
X50536888Y-33249000D01*
X51188112Y-33249000D01*
X51234468Y-33253565D01*
X51234468Y-33253565D01*
G37*
G36*
X54687321Y-28794505D02*
G01*
X54824172Y-28836019D01*
X54824175Y-28836020D01*
X54950294Y-28903432D01*
X55060843Y-28994157D01*
X55151568Y-29104706D01*
X55218980Y-29230824D01*
X55218981Y-29230828D01*
X55260495Y-29367680D01*
X55260495Y-29367682D01*
X55271000Y-29474341D01*
X55271000Y-29895660D01*
X55260495Y-30002322D01*
X55256383Y-30015876D01*
X55251602Y-30039909D01*
X55251000Y-30052162D01*
X55251000Y-31759001D01*
X55253402Y-31783387D01*
X55260515Y-31806836D01*
X55272066Y-31828447D01*
X55287611Y-31847389D01*
X55306553Y-31862934D01*
X55328164Y-31874485D01*
X55351613Y-31881598D01*
X55375999Y-31884000D01*
X55426000Y-31884000D01*
X55426000Y-32278414D01*
X55428402Y-32302800D01*
X55431383Y-32314700D01*
X55447304Y-32367182D01*
X55456000Y-32455482D01*
X55456000Y-32914519D01*
X55447304Y-33002818D01*
X55431383Y-33055300D01*
X55426602Y-33079333D01*
X55426000Y-33091586D01*
X55426000Y-33486000D01*
X54890659Y-33486000D01*
X54878407Y-33486602D01*
X54855000Y-33488907D01*
X54831593Y-33486602D01*
X54819341Y-33486000D01*
X53400999Y-33486000D01*
X53376613Y-33488402D01*
X53353164Y-33495515D01*
X53331553Y-33507066D01*
X53312611Y-33522611D01*
X53297066Y-33541553D01*
X53285515Y-33563164D01*
X53278402Y-33586613D01*
X53276000Y-33610999D01*
X53276000Y-34538112D01*
X53271435Y-34584468D01*
X53259704Y-34623138D01*
X53240654Y-34658777D01*
X53215017Y-34690017D01*
X53183777Y-34715654D01*
X53148138Y-34734704D01*
X53109468Y-34746435D01*
X53063112Y-34751000D01*
X52411888Y-34751000D01*
X52365532Y-34746435D01*
X52326862Y-34734704D01*
X52291223Y-34715654D01*
X52259983Y-34690017D01*
X52234346Y-34658777D01*
X52215296Y-34623138D01*
X52203565Y-34584468D01*
X52199000Y-34538112D01*
X52199000Y-33461888D01*
X52203565Y-33415532D01*
X52215296Y-33376862D01*
X52234346Y-33341223D01*
X52259983Y-33309983D01*
X52291223Y-33284346D01*
X52326862Y-33265296D01*
X52365532Y-33253565D01*
X52411888Y-33249000D01*
X53063112Y-33249000D01*
X53109468Y-33253565D01*
X53156892Y-33267952D01*
X53162732Y-33270370D01*
X53186766Y-33275147D01*
X53211270Y-33275143D01*
X53235303Y-33270360D01*
X53257940Y-33260979D01*
X53278313Y-33247363D01*
X53295637Y-33230033D01*
X53309248Y-33209657D01*
X53318623Y-33187017D01*
X53324000Y-33150748D01*
X53324000Y-32224773D01*
X53321598Y-32200387D01*
X53314485Y-32176938D01*
X53302934Y-32155327D01*
X53287389Y-32136385D01*
X53268447Y-32120840D01*
X53246836Y-32109289D01*
X53223387Y-32102176D01*
X53199001Y-32099774D01*
X53174615Y-32102176D01*
X53151166Y-32109289D01*
X53129555Y-32120840D01*
X53110613Y-32136385D01*
X53098070Y-32148928D01*
X52803092Y-32346026D01*
X52475331Y-32481789D01*
X52127384Y-32551000D01*
X51772616Y-32551000D01*
X51424669Y-32481789D01*
X51096908Y-32346026D01*
X50801930Y-32148928D01*
X50551072Y-31898070D01*
X50353974Y-31603092D01*
X50218211Y-31275331D01*
X50149000Y-30927384D01*
X50149000Y-30572616D01*
X50218211Y-30224669D01*
X50353974Y-29896908D01*
X50551072Y-29601930D01*
X50801930Y-29351072D01*
X51096908Y-29153974D01*
X51424669Y-29018211D01*
X51772616Y-28949000D01*
X52127384Y-28949000D01*
X52475331Y-29018211D01*
X52803092Y-29153974D01*
X53098070Y-29351072D01*
X53348928Y-29601930D01*
X53546026Y-29896907D01*
X53558517Y-29927064D01*
X53570068Y-29948674D01*
X53585613Y-29967616D01*
X53604555Y-29983162D01*
X53626166Y-29994713D01*
X53649615Y-30001826D01*
X53674001Y-30004228D01*
X53698387Y-30001826D01*
X53721836Y-29994713D01*
X53743446Y-29983162D01*
X53762388Y-29967617D01*
X53777934Y-29948675D01*
X53789485Y-29927064D01*
X53796598Y-29903615D01*
X53799000Y-29879229D01*
X53799000Y-29510653D01*
X53800810Y-29508447D01*
X53812361Y-29486836D01*
X53819474Y-29463387D01*
X53821274Y-29451253D01*
X53829505Y-29367681D01*
X53829505Y-29367679D01*
X53871019Y-29230828D01*
X53871020Y-29230825D01*
X53938432Y-29104706D01*
X54029158Y-28994157D01*
X54139707Y-28903432D01*
X54265826Y-28836020D01*
X54265829Y-28836019D01*
X54402680Y-28794505D01*
X54545000Y-28780488D01*
X54687321Y-28794505D01*
X54687321Y-28794505D01*
G37*
G36*
X49801000Y-34026000D02*
G01*
X47999000Y-34026000D01*
X47999000Y-33274000D01*
X49801000Y-33274000D01*
X49801000Y-34026000D01*
X49801000Y-34026000D01*
G37*
G36*
X60147321Y-28794505D02*
G01*
X60284172Y-28836019D01*
X60284175Y-28836020D01*
X60410294Y-28903432D01*
X60520843Y-28994157D01*
X60611568Y-29104706D01*
X60678980Y-29230824D01*
X60678981Y-29230828D01*
X60720495Y-29367680D01*
X60728513Y-29449095D01*
X60728726Y-29451253D01*
X60731000Y-29462686D01*
X60731000Y-30048224D01*
X60733402Y-30072610D01*
X60740515Y-30096059D01*
X60752066Y-30117670D01*
X60767611Y-30136612D01*
X60786553Y-30152157D01*
X60808164Y-30163708D01*
X60831613Y-30170821D01*
X60855999Y-30173223D01*
X60880385Y-30170821D01*
X60903834Y-30163708D01*
X60925445Y-30152157D01*
X60944387Y-30136612D01*
X60959932Y-30117670D01*
X60971483Y-30096059D01*
X61053974Y-29896908D01*
X61251072Y-29601930D01*
X61501930Y-29351072D01*
X61796908Y-29153974D01*
X62124669Y-29018211D01*
X62472616Y-28949000D01*
X62827384Y-28949000D01*
X63175331Y-29018211D01*
X63503092Y-29153974D01*
X63798070Y-29351072D01*
X64048928Y-29601930D01*
X64246026Y-29896908D01*
X64381789Y-30224669D01*
X64451000Y-30572616D01*
X64451000Y-30927384D01*
X64381789Y-31275331D01*
X64246026Y-31603092D01*
X64048928Y-31898070D01*
X63798070Y-32148928D01*
X63503092Y-32346026D01*
X63175331Y-32481789D01*
X62827384Y-32551000D01*
X62472616Y-32551000D01*
X62124669Y-32481789D01*
X61796908Y-32346026D01*
X61501930Y-32148928D01*
X61389387Y-32036385D01*
X61370445Y-32020840D01*
X61348834Y-32009289D01*
X61325385Y-32002176D01*
X61300999Y-31999774D01*
X61276613Y-32002176D01*
X61253164Y-32009289D01*
X61231553Y-32020840D01*
X61212611Y-32036385D01*
X61197066Y-32055327D01*
X61185515Y-32076938D01*
X61178402Y-32100387D01*
X61176000Y-32124773D01*
X61176000Y-33466000D01*
X59868620Y-33466000D01*
X59844234Y-33468402D01*
X59832334Y-33471383D01*
X59812817Y-33477304D01*
X59695000Y-33488907D01*
X59577182Y-33477304D01*
X59557665Y-33471383D01*
X59533632Y-33466602D01*
X59521379Y-33466000D01*
X59023241Y-33466000D01*
X59018447Y-33462066D01*
X58996836Y-33450515D01*
X58973387Y-33443402D01*
X58949001Y-33441000D01*
X55724000Y-33441000D01*
X55724000Y-31689000D01*
X58826000Y-31689000D01*
X58826000Y-31739001D01*
X58828402Y-31763387D01*
X58835515Y-31786836D01*
X58847066Y-31808447D01*
X58862611Y-31827389D01*
X58881553Y-31842934D01*
X58903164Y-31854485D01*
X58926613Y-31861598D01*
X58950999Y-31864000D01*
X59136501Y-31864000D01*
X59160887Y-31861598D01*
X59184336Y-31854485D01*
X59205947Y-31842934D01*
X59224889Y-31827389D01*
X59240434Y-31808447D01*
X59251985Y-31786836D01*
X59259098Y-31763387D01*
X59261500Y-31739001D01*
X59261500Y-30901775D01*
X59269485Y-30886836D01*
X59276598Y-30863387D01*
X59279000Y-30839001D01*
X59279000Y-29464950D01*
X59279474Y-29463387D01*
X59281274Y-29451253D01*
X59289505Y-29367681D01*
X59289505Y-29367679D01*
X59331019Y-29230828D01*
X59331020Y-29230825D01*
X59398432Y-29104706D01*
X59489158Y-28994157D01*
X59599707Y-28903432D01*
X59725826Y-28836020D01*
X59725829Y-28836019D01*
X59862680Y-28794505D01*
X60005000Y-28780488D01*
X60147321Y-28794505D01*
X60147321Y-28794505D01*
G37*
G36*
X46709468Y-31253565D02*
G01*
X46748138Y-31265296D01*
X46783777Y-31284346D01*
X46815017Y-31309983D01*
X46840654Y-31341223D01*
X46859704Y-31376862D01*
X46871435Y-31415532D01*
X46876000Y-31461888D01*
X46876000Y-32538112D01*
X46871435Y-32584468D01*
X46859704Y-32623138D01*
X46840654Y-32658777D01*
X46815017Y-32690017D01*
X46783777Y-32715654D01*
X46748138Y-32734704D01*
X46709468Y-32746435D01*
X46663112Y-32751000D01*
X46011888Y-32751000D01*
X45965532Y-32746435D01*
X45926862Y-32734704D01*
X45891223Y-32715654D01*
X45859983Y-32690017D01*
X45834346Y-32658777D01*
X45815296Y-32623138D01*
X45803565Y-32584468D01*
X45799000Y-32538112D01*
X45799000Y-31461888D01*
X45803565Y-31415532D01*
X45815296Y-31376862D01*
X45834346Y-31341223D01*
X45859983Y-31309983D01*
X45891223Y-31284346D01*
X45926862Y-31265296D01*
X45965532Y-31253565D01*
X46011888Y-31249000D01*
X46663112Y-31249000D01*
X46709468Y-31253565D01*
X46709468Y-31253565D01*
G37*
G36*
X44834468Y-31253565D02*
G01*
X44873138Y-31265296D01*
X44908777Y-31284346D01*
X44940017Y-31309983D01*
X44965654Y-31341223D01*
X44984704Y-31376862D01*
X44996435Y-31415532D01*
X45001000Y-31461888D01*
X45001000Y-32538112D01*
X44996435Y-32584468D01*
X44984704Y-32623138D01*
X44965654Y-32658777D01*
X44940017Y-32690017D01*
X44908777Y-32715654D01*
X44873138Y-32734704D01*
X44834468Y-32746435D01*
X44788112Y-32751000D01*
X44136888Y-32751000D01*
X44090532Y-32746435D01*
X44051862Y-32734704D01*
X44016223Y-32715654D01*
X43984983Y-32690017D01*
X43959346Y-32658777D01*
X43940296Y-32623138D01*
X43928565Y-32584468D01*
X43924000Y-32538112D01*
X43924000Y-31461888D01*
X43928565Y-31415532D01*
X43940296Y-31376862D01*
X43959346Y-31341223D01*
X43984983Y-31309983D01*
X44016223Y-31284346D01*
X44051862Y-31265296D01*
X44090532Y-31253565D01*
X44136888Y-31249000D01*
X44788112Y-31249000D01*
X44834468Y-31253565D01*
X44834468Y-31253565D01*
G37*
G36*
X41975331Y-29018211D02*
G01*
X42303092Y-29153974D01*
X42598070Y-29351072D01*
X42848928Y-29601930D01*
X43046026Y-29896908D01*
X43181789Y-30224669D01*
X43251000Y-30572616D01*
X43251000Y-30927384D01*
X43181789Y-31275331D01*
X43046026Y-31603092D01*
X42848928Y-31898070D01*
X42598070Y-32148928D01*
X42303092Y-32346026D01*
X41975331Y-32481789D01*
X41627384Y-32551000D01*
X41272616Y-32551000D01*
X40924669Y-32481789D01*
X40596908Y-32346026D01*
X40301930Y-32148928D01*
X40051072Y-31898070D01*
X39853974Y-31603092D01*
X39718211Y-31275331D01*
X39649000Y-30927384D01*
X39649000Y-30572616D01*
X39718211Y-30224669D01*
X39853974Y-29896908D01*
X40051072Y-29601930D01*
X40301930Y-29351072D01*
X40596908Y-29153974D01*
X40924669Y-29018211D01*
X41272616Y-28949000D01*
X41627384Y-28949000D01*
X41975331Y-29018211D01*
X41975331Y-29018211D01*
G37*
G36*
X49801000Y-32126000D02*
G01*
X47999000Y-32126000D01*
X47999000Y-31374000D01*
X49801000Y-31374000D01*
X49801000Y-32126000D01*
X49801000Y-32126000D01*
G37*
G36*
X59001000Y-30716000D02*
G01*
X57469000Y-30716000D01*
X57469000Y-28114000D01*
X59001000Y-28114000D01*
X59001000Y-30716000D01*
X59001000Y-30716000D01*
G37*
G36*
X57081000Y-30716000D02*
G01*
X55549000Y-30716000D01*
X55549000Y-28114000D01*
X57081000Y-28114000D01*
X57081000Y-30716000D01*
X57081000Y-30716000D01*
G37*
G36*
X48909468Y-29153565D02*
G01*
X48948138Y-29165296D01*
X48983777Y-29184346D01*
X49015017Y-29209983D01*
X49040654Y-29241223D01*
X49059704Y-29276862D01*
X49071435Y-29315532D01*
X49076000Y-29361888D01*
X49076000Y-30438112D01*
X49071435Y-30484468D01*
X49059704Y-30523138D01*
X49040654Y-30558777D01*
X49015017Y-30590017D01*
X48983777Y-30615654D01*
X48948138Y-30634704D01*
X48909468Y-30646435D01*
X48863112Y-30651000D01*
X48211888Y-30651000D01*
X48165532Y-30646435D01*
X48126862Y-30634704D01*
X48091223Y-30615654D01*
X48059983Y-30590017D01*
X48034346Y-30558777D01*
X48015296Y-30523138D01*
X48003565Y-30484468D01*
X47999000Y-30438112D01*
X47999000Y-29361888D01*
X48003565Y-29315532D01*
X48015296Y-29276862D01*
X48034346Y-29241223D01*
X48059983Y-29209983D01*
X48091223Y-29184346D01*
X48126862Y-29165296D01*
X48165532Y-29153565D01*
X48211888Y-29149000D01*
X48863112Y-29149000D01*
X48909468Y-29153565D01*
X48909468Y-29153565D01*
G37*
G36*
X47034468Y-29153565D02*
G01*
X47073138Y-29165296D01*
X47108777Y-29184346D01*
X47140017Y-29209983D01*
X47165654Y-29241223D01*
X47184704Y-29276862D01*
X47196435Y-29315532D01*
X47201000Y-29361888D01*
X47201000Y-30438112D01*
X47196435Y-30484468D01*
X47184704Y-30523138D01*
X47165654Y-30558777D01*
X47140017Y-30590017D01*
X47108777Y-30615654D01*
X47073138Y-30634704D01*
X47034468Y-30646435D01*
X46988112Y-30651000D01*
X46336888Y-30651000D01*
X46290532Y-30646435D01*
X46251862Y-30634704D01*
X46216223Y-30615654D01*
X46184983Y-30590017D01*
X46159346Y-30558777D01*
X46140296Y-30523138D01*
X46128565Y-30484468D01*
X46124000Y-30438112D01*
X46124000Y-29361888D01*
X46128565Y-29315532D01*
X46140296Y-29276862D01*
X46159346Y-29241223D01*
X46184983Y-29209983D01*
X46216223Y-29184346D01*
X46251862Y-29165296D01*
X46290532Y-29153565D01*
X46336888Y-29149000D01*
X46988112Y-29149000D01*
X47034468Y-29153565D01*
X47034468Y-29153565D01*
G37*
M02*
