M48
; DRILL file {KiCad (5.1.4)-1} date 1/27/2021 11:02:36 AM
; FORMAT={-:-/ absolute / inch / decimal}
; #@! TF.CreationDate,2021-01-27T11:02:36-06:00
; #@! TF.GenerationSoftware,Kicad,Pcbnew,(5.1.4)-1
; #@! TF.FileFunction,Plated,1,2,PTH
FMAT,2
INCH
T1C0.0157
T2C0.0256
T3C0.0276
T4C0.0295
T5C0.0394
T6C0.0787
%
G90
G05
T1
X1.5787Y-1.7756
X1.6575Y-2.8858
X1.6575Y-2.9252
X1.6575Y-2.9646
X1.6603Y-1.6922
X1.6603Y-1.8966
X1.6919Y-1.3465
X1.7205Y-2.5591
X1.7441Y-1.1929
X1.7559Y-1.6575
X1.7598Y-1.2992
X1.7717Y-2.0394
X1.7756Y-1.3976
X1.7756Y-2.6969
X1.7913Y-1.1929
X1.8081Y-1.4331
X1.813Y-1.6358
X1.815Y-1.685
X1.8189Y-2.0394
X1.8232Y-1.3967
X1.8858Y-1.2874
X1.8926Y-2.9216
X1.8997Y-1.7073
X1.9055Y-1.3622
X1.937Y-1.6732
X1.9409Y-1.811
X1.9508Y-1.2185
X1.9532Y-1.3612
X1.9646Y-1.2953
X1.9921Y-1.9016
X2.0079Y-1.622
X2.0385Y-1.3029
X2.0512Y-1.4055
X2.0523Y-1.4493
X2.093Y-1.9016
X2.1053Y-1.6297
X2.1063Y-1.6811
X2.1299Y-1.3622
X2.1575Y-1.5433
X2.2165Y-1.748
X2.2441Y-1.3465
X2.2699Y-1.9685
X2.2992Y-1.3701
X2.3268Y-2.6732
X2.3425Y-1.752
X2.3488Y-1.915
X2.374Y-1.5748
X2.3799Y-2.4783
X2.3898Y-1.9409
X2.4016Y-2.7913
X2.4252Y-1.7559
T4
X1.9016Y-1.5157
X1.9055Y-2.3425
X1.7126Y-1.752
T5
X1.9488Y-3.2795
X1.9488Y-3.3795
X1.9488Y-3.4795
X2.1496Y-3.676
X2.1496Y-3.776
X2.1496Y-3.876
X2.1496Y-2.8807
X2.1496Y-2.9807
X2.1496Y-3.0807
X1.9488Y-2.8819
X1.9488Y-2.9819
X1.9488Y-3.0819
X2.5079Y-1.578
X2.5079Y-1.678
X2.5079Y-1.778
X2.5079Y-1.878
X2.1496Y-3.2784
X2.1496Y-3.3784
X2.1496Y-3.4784
X1.9488Y-3.6772
X1.9488Y-3.7772
X1.9488Y-3.8772
T6
X1.6319Y-1.2106
X1.6319Y-4.0217
X2.0453Y-1.2106
X2.0453Y-4.0217
X2.4665Y-1.2106
X2.4665Y-4.0217
T2
G00X2.1596Y-1.2789
M15
G01X2.1596Y-1.2947
M16
G05
G00X2.3502Y-1.2789
M15
G01X2.3502Y-1.2947
M16
G05
T3
G00X2.1474Y-1.1589
M15
G01X2.1474Y-1.1785
M16
G05
G00X2.3624Y-1.1589
M15
G01X2.3624Y-1.1785
M16
G05
T0
M30
