G04 #@! TF.GenerationSoftware,KiCad,Pcbnew,(5.1.4)-1*
G04 #@! TF.CreationDate,2021-01-27T11:02:31-06:00*
G04 #@! TF.ProjectId,ULPSoilMonitor,554c5053-6f69-46c4-9d6f-6e69746f722e,v2.2*
G04 #@! TF.SameCoordinates,Original*
G04 #@! TF.FileFunction,Copper,L2,Bot*
G04 #@! TF.FilePolarity,Positive*
%FSLAX46Y46*%
G04 Gerber Fmt 4.6, Leading zero omitted, Abs format (unit mm)*
G04 Created by KiCad (PCBNEW (5.1.4)-1) date 2021-01-27 11:02:31*
%MOMM*%
%LPD*%
G04 APERTURE LIST*
%ADD10C,1.250000*%
%ADD11C,3.500000*%
%ADD12R,3.500000X3.500000*%
%ADD13R,1.700000X1.700000*%
%ADD14O,1.700000X1.700000*%
%ADD15O,1.100000X1.500000*%
%ADD16O,1.350000X1.700000*%
%ADD17C,0.800000*%
%ADD18C,0.250000*%
%ADD19C,0.200000*%
G04 APERTURE END LIST*
D10*
X48400000Y-59500000D03*
X43500000Y-44500000D03*
X48300000Y-38500000D03*
D11*
X51950000Y-30750000D03*
D12*
X51950000Y-102150000D03*
D11*
X62650000Y-30750000D03*
D12*
X62650000Y-102150000D03*
D11*
X41450000Y-30750000D03*
D12*
X41450000Y-102150000D03*
D13*
X54600000Y-98450000D03*
D14*
X54600000Y-95910000D03*
X54600000Y-93370000D03*
D13*
X49500000Y-93400000D03*
D14*
X49500000Y-95940000D03*
X49500000Y-98480000D03*
D13*
X54600000Y-88350800D03*
D14*
X54600000Y-85810800D03*
X54600000Y-83270800D03*
X49500000Y-88380000D03*
X49500000Y-85840000D03*
D13*
X49500000Y-83300000D03*
D14*
X54600000Y-73170000D03*
X54600000Y-75710000D03*
D13*
X54600000Y-78250000D03*
D14*
X49500000Y-78280000D03*
X49500000Y-75740000D03*
D13*
X49500000Y-73200000D03*
D15*
X59695000Y-32685000D03*
X54855000Y-32685000D03*
D16*
X60005000Y-29685000D03*
X54545000Y-29685000D03*
D13*
X63700000Y-47700000D03*
D14*
X63700000Y-45160000D03*
X63700000Y-42620000D03*
X63700000Y-40080000D03*
D17*
X50600000Y-48300000D03*
X59500000Y-44500000D03*
X61600000Y-44600000D03*
X60700000Y-49300000D03*
X61000000Y-70900000D03*
X53162510Y-48300000D03*
X42100000Y-73300000D03*
X42100000Y-74300000D03*
X42100000Y-75300000D03*
X40100000Y-45100000D03*
X43700000Y-65000000D03*
X60450000Y-62950000D03*
X44300016Y-30300004D03*
X59099976Y-67900000D03*
X42172538Y-42982077D03*
X52129265Y-36812204D03*
X49299994Y-46000000D03*
X42172538Y-48172542D03*
X49550000Y-30950000D03*
X51000000Y-41200000D03*
X45500000Y-30300000D03*
X47900024Y-32700000D03*
X49900000Y-32900000D03*
X57655000Y-50000000D03*
X44700000Y-33000000D03*
X46050012Y-41550000D03*
X45100000Y-68500000D03*
X48071126Y-74207875D03*
X46200000Y-51800000D03*
X49200000Y-42500000D03*
X45000000Y-51800000D03*
X46100000Y-42799982D03*
X56300000Y-44400000D03*
X57000000Y-34200000D03*
X58400000Y-34800000D03*
X60300000Y-40000000D03*
X59660001Y-48639999D03*
X48252900Y-43366130D03*
X45100000Y-35500000D03*
X45925000Y-36400000D03*
X53500000Y-42700000D03*
X53475001Y-41395330D03*
X46309616Y-35476921D03*
X49610398Y-34575002D03*
X52100000Y-35699990D03*
X48400000Y-34600000D03*
X42975000Y-34200000D03*
X44600000Y-42100000D03*
X54800000Y-39200006D03*
X54099988Y-34600000D03*
X51778506Y-33093752D03*
D18*
X63700000Y-45160000D02*
X63700000Y-44900000D01*
X43700000Y-65000000D02*
X45750000Y-62950000D01*
X45750000Y-62950000D02*
X60450000Y-62950000D01*
X43700000Y-30900020D02*
X44300016Y-30300004D01*
X43700000Y-42600000D02*
X43700000Y-30900020D01*
X44700000Y-43600000D02*
X43700000Y-42600000D01*
X44700000Y-45800000D02*
X44700000Y-43600000D01*
X43700000Y-46800000D02*
X44700000Y-45800000D01*
X43700000Y-65000000D02*
X43700000Y-46800000D01*
X54521600Y-85840000D02*
X54550800Y-85810800D01*
X52100000Y-74200000D02*
X52100000Y-84200000D01*
X52100000Y-84200000D02*
X51170000Y-84200000D01*
X49600000Y-85770000D02*
X49600000Y-85840000D01*
X51170000Y-84200000D02*
X49600000Y-85770000D01*
X54550800Y-85750800D02*
X54550800Y-85810800D01*
X52100000Y-84200000D02*
X53000000Y-84200000D01*
X53000000Y-84200000D02*
X54550800Y-85750800D01*
X52100000Y-84200000D02*
X52100000Y-94200000D01*
X52100000Y-69300000D02*
X53500000Y-67900000D01*
X53500000Y-67900000D02*
X59099976Y-67900000D01*
X52100000Y-74200000D02*
X52100000Y-69300000D01*
X51240000Y-94200000D02*
X49600000Y-95840000D01*
X52100000Y-94200000D02*
X51240000Y-94200000D01*
X54550800Y-95810800D02*
X54521600Y-95840000D01*
X54500800Y-95810800D02*
X54550800Y-95810800D01*
X52890000Y-94200000D02*
X54500800Y-95810800D01*
X52100000Y-94200000D02*
X52890000Y-94200000D01*
X51040000Y-74200000D02*
X49500000Y-75740000D01*
X52100000Y-74200000D02*
X51040000Y-74200000D01*
X53090000Y-74200000D02*
X54600000Y-75710000D01*
X52100000Y-74200000D02*
X53090000Y-74200000D01*
X52129265Y-36812204D02*
X52129265Y-38976592D01*
X52129265Y-38976592D02*
X54225001Y-41072328D01*
X54225001Y-41072328D02*
X54225001Y-43048001D01*
X54225001Y-43048001D02*
X51273002Y-46000000D01*
X51273002Y-46000000D02*
X49299994Y-46000000D01*
X42172538Y-42982077D02*
X42172538Y-48172542D01*
X51000000Y-38500000D02*
X47400000Y-34900000D01*
X49550000Y-32143959D02*
X49550000Y-30950000D01*
X47400000Y-34293959D02*
X49550000Y-32143959D01*
X47400000Y-34900000D02*
X47400000Y-34293959D01*
X51000000Y-41200000D02*
X51000000Y-38500000D01*
X47900000Y-32700000D02*
X47900024Y-32700000D01*
X45500000Y-30300000D02*
X47900000Y-32700000D01*
X55525001Y-37388591D02*
X55525001Y-47870001D01*
X55525001Y-47870001D02*
X57655000Y-50000000D01*
X52586401Y-34449991D02*
X55525001Y-37388591D01*
X52015676Y-34449991D02*
X52586401Y-34449991D01*
X50465685Y-32900000D02*
X52015676Y-34449991D01*
X49900000Y-32900000D02*
X50465685Y-32900000D01*
X44200000Y-39699988D02*
X46050012Y-41550000D01*
X44200000Y-33500000D02*
X44200000Y-39699988D01*
X44700000Y-33000000D02*
X44200000Y-33500000D01*
X45100000Y-71236749D02*
X48071126Y-74207875D01*
X45100000Y-68500000D02*
X45100000Y-71236749D01*
X49200000Y-44800000D02*
X49200000Y-42500000D01*
X46200000Y-47800000D02*
X49200000Y-44800000D01*
X46200000Y-51800000D02*
X46200000Y-47800000D01*
X46100000Y-46800000D02*
X46100000Y-42799982D01*
X45000000Y-47900000D02*
X46100000Y-46800000D01*
X45000000Y-51800000D02*
X45000000Y-47900000D01*
X56300000Y-44400000D02*
X56300000Y-34900000D01*
X56300000Y-34900000D02*
X57000000Y-34200000D01*
X60300000Y-36700000D02*
X60300000Y-40000000D01*
X58400000Y-34800000D02*
X60300000Y-36700000D01*
X62920000Y-40080000D02*
X63700000Y-40080000D01*
X60060000Y-48240000D02*
X60060000Y-47340000D01*
X62400000Y-40600000D02*
X62920000Y-40080000D01*
X62400000Y-46100000D02*
X62400000Y-40600000D01*
X59660001Y-48639999D02*
X60060000Y-48240000D01*
X60060000Y-47340000D02*
X60300932Y-47099068D01*
X60300932Y-47099068D02*
X61400932Y-47099068D01*
X61400932Y-47099068D02*
X62400000Y-46100000D01*
X48252900Y-43366130D02*
X48252900Y-41452900D01*
X48252900Y-41452900D02*
X45100000Y-38300000D01*
X45100000Y-38300000D02*
X45100000Y-35500000D01*
X45925000Y-38025000D02*
X50600000Y-42700000D01*
X45925000Y-36400000D02*
X45925000Y-38025000D01*
X50600000Y-42700000D02*
X53500000Y-42700000D01*
X46976921Y-35476921D02*
X46309616Y-35476921D01*
X50100000Y-41373002D02*
X50100000Y-38600000D01*
X52620341Y-42249990D02*
X50976988Y-42249990D01*
X50100000Y-38600000D02*
X46976921Y-35476921D01*
X50976988Y-42249990D02*
X50100000Y-41373002D01*
X53475001Y-41395330D02*
X52620341Y-42249990D01*
X49610398Y-34575002D02*
X50735386Y-35699990D01*
X50735386Y-35699990D02*
X52100000Y-35699990D01*
X51300000Y-34900000D02*
X52400000Y-34900000D01*
X54800000Y-37300000D02*
X54800000Y-39200006D01*
X52400000Y-34900000D02*
X54800000Y-37300000D01*
X49246050Y-33753950D02*
X50153950Y-33753950D01*
X48400000Y-34600000D02*
X49246050Y-33753950D01*
X50153950Y-33753950D02*
X51300000Y-34900000D01*
X54099988Y-34600000D02*
X52593740Y-33093752D01*
X52593740Y-33093752D02*
X51778506Y-33093752D01*
D19*
G36*
X39983835Y-28963473D02*
G01*
X39663473Y-29283835D01*
X39411766Y-29660541D01*
X39238387Y-30079115D01*
X39150000Y-30523470D01*
X39150000Y-30976530D01*
X39238387Y-31420885D01*
X39411766Y-31839459D01*
X39663473Y-32216165D01*
X39983835Y-32536527D01*
X40360541Y-32788234D01*
X40779115Y-32961613D01*
X41223470Y-33050000D01*
X41676530Y-33050000D01*
X42120885Y-32961613D01*
X42539459Y-32788234D01*
X42916165Y-32536527D01*
X43025001Y-32427691D01*
X43025001Y-33250000D01*
X42881433Y-33250000D01*
X42697895Y-33286508D01*
X42525006Y-33358121D01*
X42369410Y-33462087D01*
X42237087Y-33594410D01*
X42133121Y-33750006D01*
X42061508Y-33922895D01*
X42025000Y-34106433D01*
X42025000Y-34293567D01*
X42061508Y-34477105D01*
X42133121Y-34649994D01*
X42237087Y-34805590D01*
X42369410Y-34937913D01*
X42525006Y-35041879D01*
X42697895Y-35113492D01*
X42881433Y-35150000D01*
X43025001Y-35150000D01*
X43025000Y-42557633D01*
X43014417Y-42532083D01*
X42910451Y-42376487D01*
X42778128Y-42244164D01*
X42622532Y-42140198D01*
X42449643Y-42068585D01*
X42266105Y-42032077D01*
X42078971Y-42032077D01*
X41895433Y-42068585D01*
X41722544Y-42140198D01*
X41566948Y-42244164D01*
X41434625Y-42376487D01*
X41330659Y-42532083D01*
X41259046Y-42704972D01*
X41222538Y-42888510D01*
X41222538Y-43075644D01*
X41259046Y-43259182D01*
X41330659Y-43432071D01*
X41434625Y-43587667D01*
X41497538Y-43650580D01*
X41497539Y-47504038D01*
X41434625Y-47566952D01*
X41330659Y-47722548D01*
X41259046Y-47895437D01*
X41222538Y-48078975D01*
X41222538Y-48266109D01*
X41259046Y-48449647D01*
X41330659Y-48622536D01*
X41434625Y-48778132D01*
X41566948Y-48910455D01*
X41722544Y-49014421D01*
X41895433Y-49086034D01*
X42078971Y-49122542D01*
X42266105Y-49122542D01*
X42449643Y-49086034D01*
X42622532Y-49014421D01*
X42778128Y-48910455D01*
X42910451Y-48778132D01*
X43014417Y-48622536D01*
X43025001Y-48596984D01*
X43025000Y-64331497D01*
X42962087Y-64394410D01*
X42858121Y-64550006D01*
X42786508Y-64722895D01*
X42750000Y-64906433D01*
X42750000Y-65093567D01*
X42786508Y-65277105D01*
X42858121Y-65449994D01*
X42962087Y-65605590D01*
X43094410Y-65737913D01*
X43250006Y-65841879D01*
X43422895Y-65913492D01*
X43606433Y-65950000D01*
X43793567Y-65950000D01*
X43977105Y-65913492D01*
X44149994Y-65841879D01*
X44305590Y-65737913D01*
X44437913Y-65605590D01*
X44541879Y-65449994D01*
X44613492Y-65277105D01*
X44650000Y-65093567D01*
X44650000Y-65004594D01*
X46029594Y-63625000D01*
X59781497Y-63625000D01*
X59844410Y-63687913D01*
X60000006Y-63791879D01*
X60172895Y-63863492D01*
X60356433Y-63900000D01*
X60543567Y-63900000D01*
X60727105Y-63863492D01*
X60899994Y-63791879D01*
X61055590Y-63687913D01*
X61187913Y-63555590D01*
X61291879Y-63399994D01*
X61363492Y-63227105D01*
X61400000Y-63043567D01*
X61400000Y-62856433D01*
X61363492Y-62672895D01*
X61291879Y-62500006D01*
X61187913Y-62344410D01*
X61055590Y-62212087D01*
X60899994Y-62108121D01*
X60727105Y-62036508D01*
X60543567Y-62000000D01*
X60356433Y-62000000D01*
X60172895Y-62036508D01*
X60000006Y-62108121D01*
X59844410Y-62212087D01*
X59781497Y-62275000D01*
X45783152Y-62275000D01*
X45750000Y-62271735D01*
X45716848Y-62275000D01*
X45716841Y-62275000D01*
X45630192Y-62283534D01*
X45617676Y-62284767D01*
X45490438Y-62323364D01*
X45451064Y-62344410D01*
X45373176Y-62386042D01*
X45270394Y-62470394D01*
X45249258Y-62496148D01*
X44375000Y-63370406D01*
X44375000Y-59384273D01*
X47225000Y-59384273D01*
X47225000Y-59615727D01*
X47270155Y-59842735D01*
X47358729Y-60056571D01*
X47487318Y-60249019D01*
X47650981Y-60412682D01*
X47843429Y-60541271D01*
X48057265Y-60629845D01*
X48284273Y-60675000D01*
X48515727Y-60675000D01*
X48742735Y-60629845D01*
X48956571Y-60541271D01*
X49149019Y-60412682D01*
X49312682Y-60249019D01*
X49441271Y-60056571D01*
X49529845Y-59842735D01*
X49575000Y-59615727D01*
X49575000Y-59384273D01*
X49529845Y-59157265D01*
X49441271Y-58943429D01*
X49312682Y-58750981D01*
X49149019Y-58587318D01*
X48956571Y-58458729D01*
X48742735Y-58370155D01*
X48515727Y-58325000D01*
X48284273Y-58325000D01*
X48057265Y-58370155D01*
X47843429Y-58458729D01*
X47650981Y-58587318D01*
X47487318Y-58750981D01*
X47358729Y-58943429D01*
X47270155Y-59157265D01*
X47225000Y-59384273D01*
X44375000Y-59384273D01*
X44375000Y-52518503D01*
X44394410Y-52537913D01*
X44550006Y-52641879D01*
X44722895Y-52713492D01*
X44906433Y-52750000D01*
X45093567Y-52750000D01*
X45277105Y-52713492D01*
X45449994Y-52641879D01*
X45600000Y-52541648D01*
X45750006Y-52641879D01*
X45922895Y-52713492D01*
X46106433Y-52750000D01*
X46293567Y-52750000D01*
X46477105Y-52713492D01*
X46649994Y-52641879D01*
X46805590Y-52537913D01*
X46937913Y-52405590D01*
X47041879Y-52249994D01*
X47113492Y-52077105D01*
X47150000Y-51893567D01*
X47150000Y-51706433D01*
X47113492Y-51522895D01*
X47041879Y-51350006D01*
X46937913Y-51194410D01*
X46875000Y-51131497D01*
X46875000Y-48079594D01*
X48476734Y-46477860D01*
X48562081Y-46605590D01*
X48694404Y-46737913D01*
X48850000Y-46841879D01*
X49022889Y-46913492D01*
X49206427Y-46950000D01*
X49393561Y-46950000D01*
X49577099Y-46913492D01*
X49749988Y-46841879D01*
X49905584Y-46737913D01*
X49968497Y-46675000D01*
X51239850Y-46675000D01*
X51273002Y-46678265D01*
X51306154Y-46675000D01*
X51306161Y-46675000D01*
X51405325Y-46665233D01*
X51532563Y-46626636D01*
X51649826Y-46563958D01*
X51752608Y-46479606D01*
X51773744Y-46453852D01*
X54678858Y-43548739D01*
X54704607Y-43527607D01*
X54725738Y-43501859D01*
X54725745Y-43501852D01*
X54788958Y-43424826D01*
X54788959Y-43424825D01*
X54850002Y-43310622D01*
X54850002Y-47836839D01*
X54846736Y-47870001D01*
X54859768Y-48002324D01*
X54898366Y-48129562D01*
X54961044Y-48246825D01*
X55024257Y-48323851D01*
X55024265Y-48323859D01*
X55045396Y-48349607D01*
X55071144Y-48370738D01*
X56705000Y-50004594D01*
X56705000Y-50093567D01*
X56741508Y-50277105D01*
X56813121Y-50449994D01*
X56917087Y-50605590D01*
X57049410Y-50737913D01*
X57205006Y-50841879D01*
X57377895Y-50913492D01*
X57561433Y-50950000D01*
X57748567Y-50950000D01*
X57932105Y-50913492D01*
X58104994Y-50841879D01*
X58260590Y-50737913D01*
X58392913Y-50605590D01*
X58496879Y-50449994D01*
X58568492Y-50277105D01*
X58605000Y-50093567D01*
X58605000Y-49906433D01*
X58568492Y-49722895D01*
X58496879Y-49550006D01*
X58392913Y-49394410D01*
X58260590Y-49262087D01*
X58104994Y-49158121D01*
X57932105Y-49086508D01*
X57748567Y-49050000D01*
X57659594Y-49050000D01*
X56200001Y-47590407D01*
X56200001Y-45348721D01*
X56206433Y-45350000D01*
X56393567Y-45350000D01*
X56577105Y-45313492D01*
X56749994Y-45241879D01*
X56905590Y-45137913D01*
X57037913Y-45005590D01*
X57141879Y-44849994D01*
X57213492Y-44677105D01*
X57250000Y-44493567D01*
X57250000Y-44306433D01*
X57213492Y-44122895D01*
X57141879Y-43950006D01*
X57037913Y-43794410D01*
X56975000Y-43731497D01*
X56975000Y-35179594D01*
X57004594Y-35150000D01*
X57093567Y-35150000D01*
X57277105Y-35113492D01*
X57449994Y-35041879D01*
X57476039Y-35024476D01*
X57486508Y-35077105D01*
X57558121Y-35249994D01*
X57662087Y-35405590D01*
X57794410Y-35537913D01*
X57950006Y-35641879D01*
X58122895Y-35713492D01*
X58306433Y-35750000D01*
X58395406Y-35750000D01*
X59625000Y-36979594D01*
X59625001Y-39331496D01*
X59562087Y-39394410D01*
X59458121Y-39550006D01*
X59386508Y-39722895D01*
X59350000Y-39906433D01*
X59350000Y-40093567D01*
X59386508Y-40277105D01*
X59458121Y-40449994D01*
X59562087Y-40605590D01*
X59694410Y-40737913D01*
X59850006Y-40841879D01*
X60022895Y-40913492D01*
X60206433Y-40950000D01*
X60393567Y-40950000D01*
X60577105Y-40913492D01*
X60749994Y-40841879D01*
X60905590Y-40737913D01*
X61037913Y-40605590D01*
X61141879Y-40449994D01*
X61213492Y-40277105D01*
X61250000Y-40093567D01*
X61250000Y-39906433D01*
X61213492Y-39722895D01*
X61141879Y-39550006D01*
X61037913Y-39394410D01*
X60975000Y-39331497D01*
X60975000Y-36733152D01*
X60978265Y-36700000D01*
X60975000Y-36666848D01*
X60975000Y-36666841D01*
X60965233Y-36567677D01*
X60960673Y-36552643D01*
X60926636Y-36440438D01*
X60873955Y-36341879D01*
X60863958Y-36323176D01*
X60849517Y-36305580D01*
X60800744Y-36246150D01*
X60800738Y-36246144D01*
X60779605Y-36220394D01*
X60753857Y-36199263D01*
X59350000Y-34795406D01*
X59350000Y-34706433D01*
X59313492Y-34522895D01*
X59241879Y-34350006D01*
X59137913Y-34194410D01*
X59005590Y-34062087D01*
X58849994Y-33958121D01*
X58677105Y-33886508D01*
X58493567Y-33850000D01*
X58306433Y-33850000D01*
X58122895Y-33886508D01*
X57950006Y-33958121D01*
X57923961Y-33975524D01*
X57913492Y-33922895D01*
X57841879Y-33750006D01*
X57737913Y-33594410D01*
X57605590Y-33462087D01*
X57449994Y-33358121D01*
X57277105Y-33286508D01*
X57093567Y-33250000D01*
X56906433Y-33250000D01*
X56722895Y-33286508D01*
X56550006Y-33358121D01*
X56394410Y-33462087D01*
X56262087Y-33594410D01*
X56158121Y-33750006D01*
X56086508Y-33922895D01*
X56050000Y-34106433D01*
X56050000Y-34195406D01*
X55846143Y-34399263D01*
X55820395Y-34420394D01*
X55799264Y-34446142D01*
X55799256Y-34446150D01*
X55736043Y-34523176D01*
X55673365Y-34640439D01*
X55634767Y-34767677D01*
X55621735Y-34900000D01*
X55625001Y-34933158D01*
X55625001Y-36533996D01*
X54537892Y-35446887D01*
X54549982Y-35441879D01*
X54705578Y-35337913D01*
X54837901Y-35205590D01*
X54941867Y-35049994D01*
X55013480Y-34877105D01*
X55049988Y-34693567D01*
X55049988Y-34506433D01*
X55013480Y-34322895D01*
X54941867Y-34150006D01*
X54837901Y-33994410D01*
X54831498Y-33988007D01*
X54855000Y-33990322D01*
X55070637Y-33969084D01*
X55277987Y-33906184D01*
X55469084Y-33804042D01*
X55636581Y-33666581D01*
X55774042Y-33499084D01*
X55876184Y-33307988D01*
X55939084Y-33100638D01*
X55955000Y-32939036D01*
X55955000Y-32430965D01*
X55955000Y-32430964D01*
X58595000Y-32430964D01*
X58595000Y-32939035D01*
X58610916Y-33100637D01*
X58673816Y-33307987D01*
X58775958Y-33499084D01*
X58913419Y-33666581D01*
X59080916Y-33804042D01*
X59272012Y-33906184D01*
X59479362Y-33969084D01*
X59695000Y-33990322D01*
X59910637Y-33969084D01*
X60117987Y-33906184D01*
X60309084Y-33804042D01*
X60476581Y-33666581D01*
X60614042Y-33499084D01*
X60716184Y-33307988D01*
X60779084Y-33100638D01*
X60795000Y-32939036D01*
X60795000Y-32430965D01*
X60779084Y-32269363D01*
X60716184Y-32062013D01*
X60614042Y-31870916D01*
X60476581Y-31703419D01*
X60309084Y-31565958D01*
X60117988Y-31463816D01*
X59910638Y-31400916D01*
X59695000Y-31379678D01*
X59479363Y-31400916D01*
X59272013Y-31463816D01*
X59080917Y-31565958D01*
X58913420Y-31703419D01*
X58775959Y-31870916D01*
X58673816Y-32062012D01*
X58610916Y-32269362D01*
X58595000Y-32430964D01*
X55955000Y-32430964D01*
X55939084Y-32269363D01*
X55876184Y-32062013D01*
X55774042Y-31870916D01*
X55636581Y-31703419D01*
X55469084Y-31565958D01*
X55277988Y-31463816D01*
X55070638Y-31400916D01*
X54855000Y-31379678D01*
X54639363Y-31400916D01*
X54432013Y-31463816D01*
X54240917Y-31565958D01*
X54073420Y-31703419D01*
X54015197Y-31774364D01*
X54161613Y-31420885D01*
X54236099Y-31046417D01*
X54304858Y-31067275D01*
X54545000Y-31090927D01*
X54785141Y-31067275D01*
X55016054Y-30997228D01*
X55228865Y-30883478D01*
X55415397Y-30730397D01*
X55568478Y-30543866D01*
X55682228Y-30331055D01*
X55752275Y-30100142D01*
X55770000Y-29920178D01*
X55770000Y-29449823D01*
X55752275Y-29269859D01*
X55682228Y-29038946D01*
X55568478Y-28826135D01*
X55567547Y-28825000D01*
X58982454Y-28825000D01*
X58981523Y-28826134D01*
X58867772Y-29038945D01*
X58797725Y-29269858D01*
X58780000Y-29449822D01*
X58780000Y-29920177D01*
X58797725Y-30100141D01*
X58867772Y-30331054D01*
X58981522Y-30543865D01*
X59134603Y-30730397D01*
X59321134Y-30883478D01*
X59533945Y-30997228D01*
X59764858Y-31067275D01*
X60005000Y-31090927D01*
X60245141Y-31067275D01*
X60361056Y-31032112D01*
X60438387Y-31420885D01*
X60611766Y-31839459D01*
X60863473Y-32216165D01*
X61183835Y-32536527D01*
X61560541Y-32788234D01*
X61979115Y-32961613D01*
X62423470Y-33050000D01*
X62876530Y-33050000D01*
X63320885Y-32961613D01*
X63739459Y-32788234D01*
X64116165Y-32536527D01*
X64436527Y-32216165D01*
X64688234Y-31839459D01*
X64861613Y-31420885D01*
X64950000Y-30976530D01*
X64950000Y-30523470D01*
X64861613Y-30079115D01*
X64688234Y-29660541D01*
X64436527Y-29283835D01*
X64116165Y-28963473D01*
X63908926Y-28825000D01*
X65025001Y-28825000D01*
X65025001Y-39625090D01*
X64999690Y-39541651D01*
X64869690Y-39298438D01*
X64694739Y-39085261D01*
X64481562Y-38910310D01*
X64238349Y-38780310D01*
X63974448Y-38700257D01*
X63768777Y-38680000D01*
X63631223Y-38680000D01*
X63425552Y-38700257D01*
X63161651Y-38780310D01*
X62918438Y-38910310D01*
X62705261Y-39085261D01*
X62530310Y-39298438D01*
X62400310Y-39541651D01*
X62355267Y-39690139D01*
X61946143Y-40099263D01*
X61920395Y-40120394D01*
X61899264Y-40146142D01*
X61899256Y-40146150D01*
X61836043Y-40223176D01*
X61773365Y-40340439D01*
X61734767Y-40467677D01*
X61721735Y-40600000D01*
X61725001Y-40633162D01*
X61725000Y-45820406D01*
X61121338Y-46424068D01*
X60334083Y-46424068D01*
X60300931Y-46420803D01*
X60267779Y-46424068D01*
X60267773Y-46424068D01*
X60182431Y-46432474D01*
X60168608Y-46433835D01*
X60138994Y-46442818D01*
X60041371Y-46472432D01*
X59924108Y-46535110D01*
X59821326Y-46619462D01*
X59800186Y-46645221D01*
X59606144Y-46839262D01*
X59580395Y-46860394D01*
X59559264Y-46886142D01*
X59559256Y-46886150D01*
X59496043Y-46963176D01*
X59433365Y-47080439D01*
X59394767Y-47207677D01*
X59389044Y-47265785D01*
X59385000Y-47306841D01*
X59385000Y-47306848D01*
X59381735Y-47340000D01*
X59385000Y-47373152D01*
X59385000Y-47726088D01*
X59382896Y-47726507D01*
X59210007Y-47798120D01*
X59054411Y-47902086D01*
X58922088Y-48034409D01*
X58818122Y-48190005D01*
X58746509Y-48362894D01*
X58710001Y-48546432D01*
X58710001Y-48733566D01*
X58746509Y-48917104D01*
X58818122Y-49089993D01*
X58922088Y-49245589D01*
X59054411Y-49377912D01*
X59210007Y-49481878D01*
X59382896Y-49553491D01*
X59566434Y-49589999D01*
X59753568Y-49589999D01*
X59937106Y-49553491D01*
X60109995Y-49481878D01*
X60265591Y-49377912D01*
X60397914Y-49245589D01*
X60501880Y-49089993D01*
X60573493Y-48917104D01*
X60610001Y-48733566D01*
X60610001Y-48633830D01*
X60623957Y-48616825D01*
X60623958Y-48616824D01*
X60659675Y-48550000D01*
X62297339Y-48550000D01*
X62307958Y-48657819D01*
X62339408Y-48761494D01*
X62390479Y-48857042D01*
X62459210Y-48940790D01*
X62542958Y-49009521D01*
X62638506Y-49060592D01*
X62742181Y-49092042D01*
X62850000Y-49102661D01*
X63437500Y-49100000D01*
X63575000Y-48962500D01*
X63575000Y-47825000D01*
X62437500Y-47825000D01*
X62300000Y-47962500D01*
X62297339Y-48550000D01*
X60659675Y-48550000D01*
X60686636Y-48499561D01*
X60716612Y-48400744D01*
X60725233Y-48372324D01*
X60732283Y-48300744D01*
X60735000Y-48273159D01*
X60735000Y-48273153D01*
X60738265Y-48240001D01*
X60735000Y-48206849D01*
X60735000Y-47774068D01*
X61367780Y-47774068D01*
X61400932Y-47777333D01*
X61434084Y-47774068D01*
X61434091Y-47774068D01*
X61533255Y-47764301D01*
X61660493Y-47725704D01*
X61777756Y-47663026D01*
X61838267Y-47613365D01*
X61854782Y-47599812D01*
X61854784Y-47599810D01*
X61880538Y-47578674D01*
X61901676Y-47552918D01*
X62298724Y-47155870D01*
X62300000Y-47437500D01*
X62437500Y-47575000D01*
X63575000Y-47575000D01*
X63575000Y-47555000D01*
X63825000Y-47555000D01*
X63825000Y-47575000D01*
X63845000Y-47575000D01*
X63845000Y-47825000D01*
X63825000Y-47825000D01*
X63825000Y-48962500D01*
X63962500Y-49100000D01*
X64550000Y-49102661D01*
X64657819Y-49092042D01*
X64761494Y-49060592D01*
X64857042Y-49009521D01*
X64940790Y-48940790D01*
X65009521Y-48857042D01*
X65025001Y-48828081D01*
X65025000Y-103925000D01*
X64950199Y-103925000D01*
X64952661Y-103900000D01*
X64950000Y-102412500D01*
X64812500Y-102275000D01*
X62775000Y-102275000D01*
X62775000Y-102295000D01*
X62525000Y-102295000D01*
X62525000Y-102275000D01*
X60487500Y-102275000D01*
X60350000Y-102412500D01*
X60347339Y-103900000D01*
X60349801Y-103925000D01*
X54250199Y-103925000D01*
X54252661Y-103900000D01*
X54250000Y-102412500D01*
X54112500Y-102275000D01*
X52075000Y-102275000D01*
X52075000Y-102295000D01*
X51825000Y-102295000D01*
X51825000Y-102275000D01*
X49787500Y-102275000D01*
X49650000Y-102412500D01*
X49647339Y-103900000D01*
X49649801Y-103925000D01*
X43750199Y-103925000D01*
X43752661Y-103900000D01*
X43750000Y-102412500D01*
X43612500Y-102275000D01*
X41575000Y-102275000D01*
X41575000Y-102295000D01*
X41325000Y-102295000D01*
X41325000Y-102275000D01*
X39287500Y-102275000D01*
X39150000Y-102412500D01*
X39147339Y-103900000D01*
X39149801Y-103925000D01*
X39075000Y-103925000D01*
X39075000Y-100400000D01*
X39147339Y-100400000D01*
X39150000Y-101887500D01*
X39287500Y-102025000D01*
X41325000Y-102025000D01*
X41325000Y-99987500D01*
X41575000Y-99987500D01*
X41575000Y-102025000D01*
X43612500Y-102025000D01*
X43750000Y-101887500D01*
X43752661Y-100400000D01*
X49647339Y-100400000D01*
X49650000Y-101887500D01*
X49787500Y-102025000D01*
X51825000Y-102025000D01*
X51825000Y-99987500D01*
X51687500Y-99850000D01*
X50200000Y-99847339D01*
X50092181Y-99857958D01*
X49988506Y-99889408D01*
X49892958Y-99940479D01*
X49809210Y-100009210D01*
X49740479Y-100092958D01*
X49689408Y-100188506D01*
X49657958Y-100292181D01*
X49647339Y-100400000D01*
X43752661Y-100400000D01*
X43742042Y-100292181D01*
X43710592Y-100188506D01*
X43659521Y-100092958D01*
X43590790Y-100009210D01*
X43507042Y-99940479D01*
X43411494Y-99889408D01*
X43307819Y-99857958D01*
X43200000Y-99847339D01*
X41712500Y-99850000D01*
X41575000Y-99987500D01*
X41325000Y-99987500D01*
X41187500Y-99850000D01*
X39700000Y-99847339D01*
X39592181Y-99857958D01*
X39488506Y-99889408D01*
X39392958Y-99940479D01*
X39309210Y-100009210D01*
X39240479Y-100092958D01*
X39189408Y-100188506D01*
X39157958Y-100292181D01*
X39147339Y-100400000D01*
X39075000Y-100400000D01*
X39075000Y-68406433D01*
X44150000Y-68406433D01*
X44150000Y-68593567D01*
X44186508Y-68777105D01*
X44258121Y-68949994D01*
X44362087Y-69105590D01*
X44425000Y-69168503D01*
X44425001Y-71203587D01*
X44421735Y-71236749D01*
X44434767Y-71369072D01*
X44473365Y-71496310D01*
X44536043Y-71613573D01*
X44599256Y-71690599D01*
X44599264Y-71690607D01*
X44620395Y-71716355D01*
X44646143Y-71737486D01*
X47121126Y-74212469D01*
X47121126Y-74301442D01*
X47157634Y-74484980D01*
X47229247Y-74657869D01*
X47333213Y-74813465D01*
X47465536Y-74945788D01*
X47621132Y-75049754D01*
X47794021Y-75121367D01*
X47977559Y-75157875D01*
X48164693Y-75157875D01*
X48230730Y-75144739D01*
X48200310Y-75201651D01*
X48120257Y-75465552D01*
X48093226Y-75740000D01*
X48120257Y-76014448D01*
X48200310Y-76278349D01*
X48330310Y-76521562D01*
X48505261Y-76734739D01*
X48718438Y-76909690D01*
X48906105Y-77010000D01*
X48718438Y-77110310D01*
X48505261Y-77285261D01*
X48330310Y-77498438D01*
X48200310Y-77741651D01*
X48120257Y-78005552D01*
X48093226Y-78280000D01*
X48120257Y-78554448D01*
X48200310Y-78818349D01*
X48330310Y-79061562D01*
X48505261Y-79274739D01*
X48718438Y-79449690D01*
X48961651Y-79579690D01*
X49225552Y-79659743D01*
X49431223Y-79680000D01*
X49568777Y-79680000D01*
X49774448Y-79659743D01*
X50038349Y-79579690D01*
X50281562Y-79449690D01*
X50494739Y-79274739D01*
X50669690Y-79061562D01*
X50799690Y-78818349D01*
X50879743Y-78554448D01*
X50906774Y-78280000D01*
X50879743Y-78005552D01*
X50799690Y-77741651D01*
X50669690Y-77498438D01*
X50494739Y-77285261D01*
X50281562Y-77110310D01*
X50093895Y-77010000D01*
X50281562Y-76909690D01*
X50494739Y-76734739D01*
X50669690Y-76521562D01*
X50799690Y-76278349D01*
X50879743Y-76014448D01*
X50906774Y-75740000D01*
X50879743Y-75465552D01*
X50844668Y-75349926D01*
X51319595Y-74875000D01*
X51425000Y-74875000D01*
X51425001Y-83525000D01*
X51203151Y-83525000D01*
X51169999Y-83521735D01*
X51136847Y-83525000D01*
X51136841Y-83525000D01*
X51051499Y-83533406D01*
X51037676Y-83534767D01*
X50999079Y-83546476D01*
X50910439Y-83573364D01*
X50902661Y-83577521D01*
X50902661Y-82450000D01*
X50892042Y-82342181D01*
X50860592Y-82238506D01*
X50809521Y-82142958D01*
X50740790Y-82059210D01*
X50657042Y-81990479D01*
X50561494Y-81939408D01*
X50457819Y-81907958D01*
X50350000Y-81897339D01*
X48650000Y-81897339D01*
X48542181Y-81907958D01*
X48438506Y-81939408D01*
X48342958Y-81990479D01*
X48259210Y-82059210D01*
X48190479Y-82142958D01*
X48139408Y-82238506D01*
X48107958Y-82342181D01*
X48097339Y-82450000D01*
X48097339Y-84150000D01*
X48107958Y-84257819D01*
X48139408Y-84361494D01*
X48190479Y-84457042D01*
X48259210Y-84540790D01*
X48342958Y-84609521D01*
X48438506Y-84660592D01*
X48542181Y-84692042D01*
X48650000Y-84702661D01*
X48679018Y-84702661D01*
X48505261Y-84845261D01*
X48330310Y-85058438D01*
X48200310Y-85301651D01*
X48120257Y-85565552D01*
X48093226Y-85840000D01*
X48120257Y-86114448D01*
X48200310Y-86378349D01*
X48330310Y-86621562D01*
X48505261Y-86834739D01*
X48718438Y-87009690D01*
X48906105Y-87110000D01*
X48718438Y-87210310D01*
X48505261Y-87385261D01*
X48330310Y-87598438D01*
X48200310Y-87841651D01*
X48120257Y-88105552D01*
X48093226Y-88380000D01*
X48120257Y-88654448D01*
X48200310Y-88918349D01*
X48330310Y-89161562D01*
X48505261Y-89374739D01*
X48718438Y-89549690D01*
X48961651Y-89679690D01*
X49225552Y-89759743D01*
X49431223Y-89780000D01*
X49568777Y-89780000D01*
X49774448Y-89759743D01*
X50038349Y-89679690D01*
X50281562Y-89549690D01*
X50494739Y-89374739D01*
X50669690Y-89161562D01*
X50799690Y-88918349D01*
X50879743Y-88654448D01*
X50906774Y-88380000D01*
X50879743Y-88105552D01*
X50799690Y-87841651D01*
X50669690Y-87598438D01*
X50494739Y-87385261D01*
X50281562Y-87210310D01*
X50093895Y-87110000D01*
X50281562Y-87009690D01*
X50494739Y-86834739D01*
X50669690Y-86621562D01*
X50799690Y-86378349D01*
X50879743Y-86114448D01*
X50906774Y-85840000D01*
X50879743Y-85565552D01*
X50851651Y-85472943D01*
X51425000Y-84899594D01*
X51425001Y-93525000D01*
X51273151Y-93525000D01*
X51239999Y-93521735D01*
X51206847Y-93525000D01*
X51206841Y-93525000D01*
X51121499Y-93533406D01*
X51107676Y-93534767D01*
X51069079Y-93546476D01*
X50980439Y-93573364D01*
X50902661Y-93614937D01*
X50902661Y-92550000D01*
X50892042Y-92442181D01*
X50860592Y-92338506D01*
X50809521Y-92242958D01*
X50740790Y-92159210D01*
X50657042Y-92090479D01*
X50561494Y-92039408D01*
X50457819Y-92007958D01*
X50350000Y-91997339D01*
X48650000Y-91997339D01*
X48542181Y-92007958D01*
X48438506Y-92039408D01*
X48342958Y-92090479D01*
X48259210Y-92159210D01*
X48190479Y-92242958D01*
X48139408Y-92338506D01*
X48107958Y-92442181D01*
X48097339Y-92550000D01*
X48097339Y-94250000D01*
X48107958Y-94357819D01*
X48139408Y-94461494D01*
X48190479Y-94557042D01*
X48259210Y-94640790D01*
X48342958Y-94709521D01*
X48438506Y-94760592D01*
X48542181Y-94792042D01*
X48650000Y-94802661D01*
X48679018Y-94802661D01*
X48505261Y-94945261D01*
X48330310Y-95158438D01*
X48200310Y-95401651D01*
X48120257Y-95665552D01*
X48093226Y-95940000D01*
X48120257Y-96214448D01*
X48200310Y-96478349D01*
X48330310Y-96721562D01*
X48505261Y-96934739D01*
X48718438Y-97109690D01*
X48906105Y-97210000D01*
X48718438Y-97310310D01*
X48505261Y-97485261D01*
X48330310Y-97698438D01*
X48200310Y-97941651D01*
X48120257Y-98205552D01*
X48093226Y-98480000D01*
X48120257Y-98754448D01*
X48200310Y-99018349D01*
X48330310Y-99261562D01*
X48505261Y-99474739D01*
X48718438Y-99649690D01*
X48961651Y-99779690D01*
X49225552Y-99859743D01*
X49431223Y-99880000D01*
X49568777Y-99880000D01*
X49774448Y-99859743D01*
X50038349Y-99779690D01*
X50281562Y-99649690D01*
X50494739Y-99474739D01*
X50669690Y-99261562D01*
X50799690Y-99018349D01*
X50879743Y-98754448D01*
X50906774Y-98480000D01*
X50879743Y-98205552D01*
X50799690Y-97941651D01*
X50669690Y-97698438D01*
X50494739Y-97485261D01*
X50281562Y-97310310D01*
X50093895Y-97210000D01*
X50281562Y-97109690D01*
X50494739Y-96934739D01*
X50669690Y-96721562D01*
X50799690Y-96478349D01*
X50879743Y-96214448D01*
X50906774Y-95940000D01*
X50879743Y-95665552D01*
X50844668Y-95549926D01*
X51519594Y-94875000D01*
X52066841Y-94875000D01*
X52100000Y-94878266D01*
X52133159Y-94875000D01*
X52610406Y-94875000D01*
X53255332Y-95519926D01*
X53220257Y-95635552D01*
X53193226Y-95910000D01*
X53220257Y-96184448D01*
X53300310Y-96448349D01*
X53430310Y-96691562D01*
X53605261Y-96904739D01*
X53779018Y-97047339D01*
X53750000Y-97047339D01*
X53642181Y-97057958D01*
X53538506Y-97089408D01*
X53442958Y-97140479D01*
X53359210Y-97209210D01*
X53290479Y-97292958D01*
X53239408Y-97388506D01*
X53207958Y-97492181D01*
X53197339Y-97600000D01*
X53197339Y-99300000D01*
X53207958Y-99407819D01*
X53239408Y-99511494D01*
X53290479Y-99607042D01*
X53359210Y-99690790D01*
X53442958Y-99759521D01*
X53538506Y-99810592D01*
X53642181Y-99842042D01*
X53696036Y-99847346D01*
X52212500Y-99850000D01*
X52075000Y-99987500D01*
X52075000Y-102025000D01*
X54112500Y-102025000D01*
X54250000Y-101887500D01*
X54252661Y-100400000D01*
X60347339Y-100400000D01*
X60350000Y-101887500D01*
X60487500Y-102025000D01*
X62525000Y-102025000D01*
X62525000Y-99987500D01*
X62775000Y-99987500D01*
X62775000Y-102025000D01*
X64812500Y-102025000D01*
X64950000Y-101887500D01*
X64952661Y-100400000D01*
X64942042Y-100292181D01*
X64910592Y-100188506D01*
X64859521Y-100092958D01*
X64790790Y-100009210D01*
X64707042Y-99940479D01*
X64611494Y-99889408D01*
X64507819Y-99857958D01*
X64400000Y-99847339D01*
X62912500Y-99850000D01*
X62775000Y-99987500D01*
X62525000Y-99987500D01*
X62387500Y-99850000D01*
X60900000Y-99847339D01*
X60792181Y-99857958D01*
X60688506Y-99889408D01*
X60592958Y-99940479D01*
X60509210Y-100009210D01*
X60440479Y-100092958D01*
X60389408Y-100188506D01*
X60357958Y-100292181D01*
X60347339Y-100400000D01*
X54252661Y-100400000D01*
X54242042Y-100292181D01*
X54210592Y-100188506D01*
X54159521Y-100092958D01*
X54090790Y-100009210D01*
X54007042Y-99940479D01*
X53911494Y-99889408D01*
X53807819Y-99857958D01*
X53754036Y-99852661D01*
X55450000Y-99852661D01*
X55557819Y-99842042D01*
X55661494Y-99810592D01*
X55757042Y-99759521D01*
X55840790Y-99690790D01*
X55909521Y-99607042D01*
X55960592Y-99511494D01*
X55992042Y-99407819D01*
X56002661Y-99300000D01*
X56002661Y-97600000D01*
X55992042Y-97492181D01*
X55960592Y-97388506D01*
X55909521Y-97292958D01*
X55840790Y-97209210D01*
X55757042Y-97140479D01*
X55661494Y-97089408D01*
X55557819Y-97057958D01*
X55450000Y-97047339D01*
X55420982Y-97047339D01*
X55594739Y-96904739D01*
X55769690Y-96691562D01*
X55899690Y-96448349D01*
X55979743Y-96184448D01*
X56006774Y-95910000D01*
X55979743Y-95635552D01*
X55899690Y-95371651D01*
X55769690Y-95128438D01*
X55594739Y-94915261D01*
X55381562Y-94740310D01*
X55193895Y-94640000D01*
X55381562Y-94539690D01*
X55594739Y-94364739D01*
X55769690Y-94151562D01*
X55899690Y-93908349D01*
X55979743Y-93644448D01*
X56006774Y-93370000D01*
X55979743Y-93095552D01*
X55899690Y-92831651D01*
X55769690Y-92588438D01*
X55594739Y-92375261D01*
X55381562Y-92200310D01*
X55138349Y-92070310D01*
X54874448Y-91990257D01*
X54668777Y-91970000D01*
X54531223Y-91970000D01*
X54325552Y-91990257D01*
X54061651Y-92070310D01*
X53818438Y-92200310D01*
X53605261Y-92375261D01*
X53430310Y-92588438D01*
X53300310Y-92831651D01*
X53220257Y-93095552D01*
X53193226Y-93370000D01*
X53216795Y-93609301D01*
X53149561Y-93573364D01*
X53022323Y-93534767D01*
X52923159Y-93525000D01*
X52923152Y-93525000D01*
X52890000Y-93521735D01*
X52856848Y-93525000D01*
X52775000Y-93525000D01*
X52775000Y-84929594D01*
X53257845Y-85412439D01*
X53220257Y-85536352D01*
X53193226Y-85810800D01*
X53220257Y-86085248D01*
X53300310Y-86349149D01*
X53430310Y-86592362D01*
X53605261Y-86805539D01*
X53779018Y-86948139D01*
X53750000Y-86948139D01*
X53642181Y-86958758D01*
X53538506Y-86990208D01*
X53442958Y-87041279D01*
X53359210Y-87110010D01*
X53290479Y-87193758D01*
X53239408Y-87289306D01*
X53207958Y-87392981D01*
X53197339Y-87500800D01*
X53197339Y-89200800D01*
X53207958Y-89308619D01*
X53239408Y-89412294D01*
X53290479Y-89507842D01*
X53359210Y-89591590D01*
X53442958Y-89660321D01*
X53538506Y-89711392D01*
X53642181Y-89742842D01*
X53750000Y-89753461D01*
X55450000Y-89753461D01*
X55557819Y-89742842D01*
X55661494Y-89711392D01*
X55757042Y-89660321D01*
X55840790Y-89591590D01*
X55909521Y-89507842D01*
X55960592Y-89412294D01*
X55992042Y-89308619D01*
X56002661Y-89200800D01*
X56002661Y-87500800D01*
X55992042Y-87392981D01*
X55960592Y-87289306D01*
X55909521Y-87193758D01*
X55840790Y-87110010D01*
X55757042Y-87041279D01*
X55661494Y-86990208D01*
X55557819Y-86958758D01*
X55450000Y-86948139D01*
X55420982Y-86948139D01*
X55594739Y-86805539D01*
X55769690Y-86592362D01*
X55899690Y-86349149D01*
X55979743Y-86085248D01*
X56006774Y-85810800D01*
X55979743Y-85536352D01*
X55899690Y-85272451D01*
X55769690Y-85029238D01*
X55594739Y-84816061D01*
X55381562Y-84641110D01*
X55193895Y-84540800D01*
X55381562Y-84440490D01*
X55594739Y-84265539D01*
X55769690Y-84052362D01*
X55899690Y-83809149D01*
X55979743Y-83545248D01*
X56006774Y-83270800D01*
X55979743Y-82996352D01*
X55899690Y-82732451D01*
X55769690Y-82489238D01*
X55594739Y-82276061D01*
X55381562Y-82101110D01*
X55138349Y-81971110D01*
X54874448Y-81891057D01*
X54668777Y-81870800D01*
X54531223Y-81870800D01*
X54325552Y-81891057D01*
X54061651Y-81971110D01*
X53818438Y-82101110D01*
X53605261Y-82276061D01*
X53430310Y-82489238D01*
X53300310Y-82732451D01*
X53220257Y-82996352D01*
X53193226Y-83270800D01*
X53220257Y-83545248D01*
X53225667Y-83563082D01*
X53132323Y-83534767D01*
X53033159Y-83525000D01*
X53033152Y-83525000D01*
X53000000Y-83521735D01*
X52966848Y-83525000D01*
X52775000Y-83525000D01*
X52775000Y-74875000D01*
X52810406Y-74875000D01*
X53255332Y-75319926D01*
X53220257Y-75435552D01*
X53193226Y-75710000D01*
X53220257Y-75984448D01*
X53300310Y-76248349D01*
X53430310Y-76491562D01*
X53605261Y-76704739D01*
X53779018Y-76847339D01*
X53750000Y-76847339D01*
X53642181Y-76857958D01*
X53538506Y-76889408D01*
X53442958Y-76940479D01*
X53359210Y-77009210D01*
X53290479Y-77092958D01*
X53239408Y-77188506D01*
X53207958Y-77292181D01*
X53197339Y-77400000D01*
X53197339Y-79100000D01*
X53207958Y-79207819D01*
X53239408Y-79311494D01*
X53290479Y-79407042D01*
X53359210Y-79490790D01*
X53442958Y-79559521D01*
X53538506Y-79610592D01*
X53642181Y-79642042D01*
X53750000Y-79652661D01*
X55450000Y-79652661D01*
X55557819Y-79642042D01*
X55661494Y-79610592D01*
X55757042Y-79559521D01*
X55840790Y-79490790D01*
X55909521Y-79407042D01*
X55960592Y-79311494D01*
X55992042Y-79207819D01*
X56002661Y-79100000D01*
X56002661Y-77400000D01*
X55992042Y-77292181D01*
X55960592Y-77188506D01*
X55909521Y-77092958D01*
X55840790Y-77009210D01*
X55757042Y-76940479D01*
X55661494Y-76889408D01*
X55557819Y-76857958D01*
X55450000Y-76847339D01*
X55420982Y-76847339D01*
X55594739Y-76704739D01*
X55769690Y-76491562D01*
X55899690Y-76248349D01*
X55979743Y-75984448D01*
X56006774Y-75710000D01*
X55979743Y-75435552D01*
X55899690Y-75171651D01*
X55769690Y-74928438D01*
X55594739Y-74715261D01*
X55381562Y-74540310D01*
X55193895Y-74440000D01*
X55381562Y-74339690D01*
X55594739Y-74164739D01*
X55769690Y-73951562D01*
X55899690Y-73708349D01*
X55979743Y-73444448D01*
X56006774Y-73170000D01*
X55979743Y-72895552D01*
X55899690Y-72631651D01*
X55769690Y-72388438D01*
X55594739Y-72175261D01*
X55381562Y-72000310D01*
X55138349Y-71870310D01*
X54874448Y-71790257D01*
X54668777Y-71770000D01*
X54531223Y-71770000D01*
X54325552Y-71790257D01*
X54061651Y-71870310D01*
X53818438Y-72000310D01*
X53605261Y-72175261D01*
X53430310Y-72388438D01*
X53300310Y-72631651D01*
X53220257Y-72895552D01*
X53193226Y-73170000D01*
X53220257Y-73444448D01*
X53250222Y-73543230D01*
X53222323Y-73534767D01*
X53123159Y-73525000D01*
X53123152Y-73525000D01*
X53090000Y-73521735D01*
X53056848Y-73525000D01*
X52775000Y-73525000D01*
X52775000Y-69579594D01*
X53779595Y-68575000D01*
X58431473Y-68575000D01*
X58494386Y-68637913D01*
X58649982Y-68741879D01*
X58822871Y-68813492D01*
X59006409Y-68850000D01*
X59193543Y-68850000D01*
X59377081Y-68813492D01*
X59549970Y-68741879D01*
X59705566Y-68637913D01*
X59837889Y-68505590D01*
X59941855Y-68349994D01*
X60013468Y-68177105D01*
X60049976Y-67993567D01*
X60049976Y-67806433D01*
X60013468Y-67622895D01*
X59941855Y-67450006D01*
X59837889Y-67294410D01*
X59705566Y-67162087D01*
X59549970Y-67058121D01*
X59377081Y-66986508D01*
X59193543Y-66950000D01*
X59006409Y-66950000D01*
X58822871Y-66986508D01*
X58649982Y-67058121D01*
X58494386Y-67162087D01*
X58431473Y-67225000D01*
X53533152Y-67225000D01*
X53500000Y-67221735D01*
X53466848Y-67225000D01*
X53466841Y-67225000D01*
X53380192Y-67233534D01*
X53367676Y-67234767D01*
X53329079Y-67246476D01*
X53240439Y-67273364D01*
X53123176Y-67336042D01*
X53123174Y-67336043D01*
X53123175Y-67336043D01*
X53046149Y-67399256D01*
X53046142Y-67399263D01*
X53020394Y-67420394D01*
X52999262Y-67446143D01*
X51646143Y-68799263D01*
X51620395Y-68820394D01*
X51599264Y-68846142D01*
X51599256Y-68846150D01*
X51536043Y-68923176D01*
X51473365Y-69040439D01*
X51434767Y-69167677D01*
X51421735Y-69300000D01*
X51425001Y-69333162D01*
X51425000Y-73525000D01*
X51073152Y-73525000D01*
X51040000Y-73521735D01*
X51006848Y-73525000D01*
X51006841Y-73525000D01*
X50920192Y-73533534D01*
X50907676Y-73534767D01*
X50902661Y-73536288D01*
X50902661Y-72350000D01*
X50892042Y-72242181D01*
X50860592Y-72138506D01*
X50809521Y-72042958D01*
X50740790Y-71959210D01*
X50657042Y-71890479D01*
X50561494Y-71839408D01*
X50457819Y-71807958D01*
X50350000Y-71797339D01*
X48650000Y-71797339D01*
X48542181Y-71807958D01*
X48438506Y-71839408D01*
X48342958Y-71890479D01*
X48259210Y-71959210D01*
X48190479Y-72042958D01*
X48139408Y-72138506D01*
X48107958Y-72242181D01*
X48097339Y-72350000D01*
X48097339Y-73257875D01*
X48075720Y-73257875D01*
X45775000Y-70957155D01*
X45775000Y-69168503D01*
X45837913Y-69105590D01*
X45941879Y-68949994D01*
X46013492Y-68777105D01*
X46050000Y-68593567D01*
X46050000Y-68406433D01*
X46013492Y-68222895D01*
X45941879Y-68050006D01*
X45837913Y-67894410D01*
X45705590Y-67762087D01*
X45549994Y-67658121D01*
X45377105Y-67586508D01*
X45193567Y-67550000D01*
X45006433Y-67550000D01*
X44822895Y-67586508D01*
X44650006Y-67658121D01*
X44494410Y-67762087D01*
X44362087Y-67894410D01*
X44258121Y-68050006D01*
X44186508Y-68222895D01*
X44150000Y-68406433D01*
X39075000Y-68406433D01*
X39075000Y-28825000D01*
X40191074Y-28825000D01*
X39983835Y-28963473D01*
X39983835Y-28963473D01*
G37*
X39983835Y-28963473D02*
X39663473Y-29283835D01*
X39411766Y-29660541D01*
X39238387Y-30079115D01*
X39150000Y-30523470D01*
X39150000Y-30976530D01*
X39238387Y-31420885D01*
X39411766Y-31839459D01*
X39663473Y-32216165D01*
X39983835Y-32536527D01*
X40360541Y-32788234D01*
X40779115Y-32961613D01*
X41223470Y-33050000D01*
X41676530Y-33050000D01*
X42120885Y-32961613D01*
X42539459Y-32788234D01*
X42916165Y-32536527D01*
X43025001Y-32427691D01*
X43025001Y-33250000D01*
X42881433Y-33250000D01*
X42697895Y-33286508D01*
X42525006Y-33358121D01*
X42369410Y-33462087D01*
X42237087Y-33594410D01*
X42133121Y-33750006D01*
X42061508Y-33922895D01*
X42025000Y-34106433D01*
X42025000Y-34293567D01*
X42061508Y-34477105D01*
X42133121Y-34649994D01*
X42237087Y-34805590D01*
X42369410Y-34937913D01*
X42525006Y-35041879D01*
X42697895Y-35113492D01*
X42881433Y-35150000D01*
X43025001Y-35150000D01*
X43025000Y-42557633D01*
X43014417Y-42532083D01*
X42910451Y-42376487D01*
X42778128Y-42244164D01*
X42622532Y-42140198D01*
X42449643Y-42068585D01*
X42266105Y-42032077D01*
X42078971Y-42032077D01*
X41895433Y-42068585D01*
X41722544Y-42140198D01*
X41566948Y-42244164D01*
X41434625Y-42376487D01*
X41330659Y-42532083D01*
X41259046Y-42704972D01*
X41222538Y-42888510D01*
X41222538Y-43075644D01*
X41259046Y-43259182D01*
X41330659Y-43432071D01*
X41434625Y-43587667D01*
X41497538Y-43650580D01*
X41497539Y-47504038D01*
X41434625Y-47566952D01*
X41330659Y-47722548D01*
X41259046Y-47895437D01*
X41222538Y-48078975D01*
X41222538Y-48266109D01*
X41259046Y-48449647D01*
X41330659Y-48622536D01*
X41434625Y-48778132D01*
X41566948Y-48910455D01*
X41722544Y-49014421D01*
X41895433Y-49086034D01*
X42078971Y-49122542D01*
X42266105Y-49122542D01*
X42449643Y-49086034D01*
X42622532Y-49014421D01*
X42778128Y-48910455D01*
X42910451Y-48778132D01*
X43014417Y-48622536D01*
X43025001Y-48596984D01*
X43025000Y-64331497D01*
X42962087Y-64394410D01*
X42858121Y-64550006D01*
X42786508Y-64722895D01*
X42750000Y-64906433D01*
X42750000Y-65093567D01*
X42786508Y-65277105D01*
X42858121Y-65449994D01*
X42962087Y-65605590D01*
X43094410Y-65737913D01*
X43250006Y-65841879D01*
X43422895Y-65913492D01*
X43606433Y-65950000D01*
X43793567Y-65950000D01*
X43977105Y-65913492D01*
X44149994Y-65841879D01*
X44305590Y-65737913D01*
X44437913Y-65605590D01*
X44541879Y-65449994D01*
X44613492Y-65277105D01*
X44650000Y-65093567D01*
X44650000Y-65004594D01*
X46029594Y-63625000D01*
X59781497Y-63625000D01*
X59844410Y-63687913D01*
X60000006Y-63791879D01*
X60172895Y-63863492D01*
X60356433Y-63900000D01*
X60543567Y-63900000D01*
X60727105Y-63863492D01*
X60899994Y-63791879D01*
X61055590Y-63687913D01*
X61187913Y-63555590D01*
X61291879Y-63399994D01*
X61363492Y-63227105D01*
X61400000Y-63043567D01*
X61400000Y-62856433D01*
X61363492Y-62672895D01*
X61291879Y-62500006D01*
X61187913Y-62344410D01*
X61055590Y-62212087D01*
X60899994Y-62108121D01*
X60727105Y-62036508D01*
X60543567Y-62000000D01*
X60356433Y-62000000D01*
X60172895Y-62036508D01*
X60000006Y-62108121D01*
X59844410Y-62212087D01*
X59781497Y-62275000D01*
X45783152Y-62275000D01*
X45750000Y-62271735D01*
X45716848Y-62275000D01*
X45716841Y-62275000D01*
X45630192Y-62283534D01*
X45617676Y-62284767D01*
X45490438Y-62323364D01*
X45451064Y-62344410D01*
X45373176Y-62386042D01*
X45270394Y-62470394D01*
X45249258Y-62496148D01*
X44375000Y-63370406D01*
X44375000Y-59384273D01*
X47225000Y-59384273D01*
X47225000Y-59615727D01*
X47270155Y-59842735D01*
X47358729Y-60056571D01*
X47487318Y-60249019D01*
X47650981Y-60412682D01*
X47843429Y-60541271D01*
X48057265Y-60629845D01*
X48284273Y-60675000D01*
X48515727Y-60675000D01*
X48742735Y-60629845D01*
X48956571Y-60541271D01*
X49149019Y-60412682D01*
X49312682Y-60249019D01*
X49441271Y-60056571D01*
X49529845Y-59842735D01*
X49575000Y-59615727D01*
X49575000Y-59384273D01*
X49529845Y-59157265D01*
X49441271Y-58943429D01*
X49312682Y-58750981D01*
X49149019Y-58587318D01*
X48956571Y-58458729D01*
X48742735Y-58370155D01*
X48515727Y-58325000D01*
X48284273Y-58325000D01*
X48057265Y-58370155D01*
X47843429Y-58458729D01*
X47650981Y-58587318D01*
X47487318Y-58750981D01*
X47358729Y-58943429D01*
X47270155Y-59157265D01*
X47225000Y-59384273D01*
X44375000Y-59384273D01*
X44375000Y-52518503D01*
X44394410Y-52537913D01*
X44550006Y-52641879D01*
X44722895Y-52713492D01*
X44906433Y-52750000D01*
X45093567Y-52750000D01*
X45277105Y-52713492D01*
X45449994Y-52641879D01*
X45600000Y-52541648D01*
X45750006Y-52641879D01*
X45922895Y-52713492D01*
X46106433Y-52750000D01*
X46293567Y-52750000D01*
X46477105Y-52713492D01*
X46649994Y-52641879D01*
X46805590Y-52537913D01*
X46937913Y-52405590D01*
X47041879Y-52249994D01*
X47113492Y-52077105D01*
X47150000Y-51893567D01*
X47150000Y-51706433D01*
X47113492Y-51522895D01*
X47041879Y-51350006D01*
X46937913Y-51194410D01*
X46875000Y-51131497D01*
X46875000Y-48079594D01*
X48476734Y-46477860D01*
X48562081Y-46605590D01*
X48694404Y-46737913D01*
X48850000Y-46841879D01*
X49022889Y-46913492D01*
X49206427Y-46950000D01*
X49393561Y-46950000D01*
X49577099Y-46913492D01*
X49749988Y-46841879D01*
X49905584Y-46737913D01*
X49968497Y-46675000D01*
X51239850Y-46675000D01*
X51273002Y-46678265D01*
X51306154Y-46675000D01*
X51306161Y-46675000D01*
X51405325Y-46665233D01*
X51532563Y-46626636D01*
X51649826Y-46563958D01*
X51752608Y-46479606D01*
X51773744Y-46453852D01*
X54678858Y-43548739D01*
X54704607Y-43527607D01*
X54725738Y-43501859D01*
X54725745Y-43501852D01*
X54788958Y-43424826D01*
X54788959Y-43424825D01*
X54850002Y-43310622D01*
X54850002Y-47836839D01*
X54846736Y-47870001D01*
X54859768Y-48002324D01*
X54898366Y-48129562D01*
X54961044Y-48246825D01*
X55024257Y-48323851D01*
X55024265Y-48323859D01*
X55045396Y-48349607D01*
X55071144Y-48370738D01*
X56705000Y-50004594D01*
X56705000Y-50093567D01*
X56741508Y-50277105D01*
X56813121Y-50449994D01*
X56917087Y-50605590D01*
X57049410Y-50737913D01*
X57205006Y-50841879D01*
X57377895Y-50913492D01*
X57561433Y-50950000D01*
X57748567Y-50950000D01*
X57932105Y-50913492D01*
X58104994Y-50841879D01*
X58260590Y-50737913D01*
X58392913Y-50605590D01*
X58496879Y-50449994D01*
X58568492Y-50277105D01*
X58605000Y-50093567D01*
X58605000Y-49906433D01*
X58568492Y-49722895D01*
X58496879Y-49550006D01*
X58392913Y-49394410D01*
X58260590Y-49262087D01*
X58104994Y-49158121D01*
X57932105Y-49086508D01*
X57748567Y-49050000D01*
X57659594Y-49050000D01*
X56200001Y-47590407D01*
X56200001Y-45348721D01*
X56206433Y-45350000D01*
X56393567Y-45350000D01*
X56577105Y-45313492D01*
X56749994Y-45241879D01*
X56905590Y-45137913D01*
X57037913Y-45005590D01*
X57141879Y-44849994D01*
X57213492Y-44677105D01*
X57250000Y-44493567D01*
X57250000Y-44306433D01*
X57213492Y-44122895D01*
X57141879Y-43950006D01*
X57037913Y-43794410D01*
X56975000Y-43731497D01*
X56975000Y-35179594D01*
X57004594Y-35150000D01*
X57093567Y-35150000D01*
X57277105Y-35113492D01*
X57449994Y-35041879D01*
X57476039Y-35024476D01*
X57486508Y-35077105D01*
X57558121Y-35249994D01*
X57662087Y-35405590D01*
X57794410Y-35537913D01*
X57950006Y-35641879D01*
X58122895Y-35713492D01*
X58306433Y-35750000D01*
X58395406Y-35750000D01*
X59625000Y-36979594D01*
X59625001Y-39331496D01*
X59562087Y-39394410D01*
X59458121Y-39550006D01*
X59386508Y-39722895D01*
X59350000Y-39906433D01*
X59350000Y-40093567D01*
X59386508Y-40277105D01*
X59458121Y-40449994D01*
X59562087Y-40605590D01*
X59694410Y-40737913D01*
X59850006Y-40841879D01*
X60022895Y-40913492D01*
X60206433Y-40950000D01*
X60393567Y-40950000D01*
X60577105Y-40913492D01*
X60749994Y-40841879D01*
X60905590Y-40737913D01*
X61037913Y-40605590D01*
X61141879Y-40449994D01*
X61213492Y-40277105D01*
X61250000Y-40093567D01*
X61250000Y-39906433D01*
X61213492Y-39722895D01*
X61141879Y-39550006D01*
X61037913Y-39394410D01*
X60975000Y-39331497D01*
X60975000Y-36733152D01*
X60978265Y-36700000D01*
X60975000Y-36666848D01*
X60975000Y-36666841D01*
X60965233Y-36567677D01*
X60960673Y-36552643D01*
X60926636Y-36440438D01*
X60873955Y-36341879D01*
X60863958Y-36323176D01*
X60849517Y-36305580D01*
X60800744Y-36246150D01*
X60800738Y-36246144D01*
X60779605Y-36220394D01*
X60753857Y-36199263D01*
X59350000Y-34795406D01*
X59350000Y-34706433D01*
X59313492Y-34522895D01*
X59241879Y-34350006D01*
X59137913Y-34194410D01*
X59005590Y-34062087D01*
X58849994Y-33958121D01*
X58677105Y-33886508D01*
X58493567Y-33850000D01*
X58306433Y-33850000D01*
X58122895Y-33886508D01*
X57950006Y-33958121D01*
X57923961Y-33975524D01*
X57913492Y-33922895D01*
X57841879Y-33750006D01*
X57737913Y-33594410D01*
X57605590Y-33462087D01*
X57449994Y-33358121D01*
X57277105Y-33286508D01*
X57093567Y-33250000D01*
X56906433Y-33250000D01*
X56722895Y-33286508D01*
X56550006Y-33358121D01*
X56394410Y-33462087D01*
X56262087Y-33594410D01*
X56158121Y-33750006D01*
X56086508Y-33922895D01*
X56050000Y-34106433D01*
X56050000Y-34195406D01*
X55846143Y-34399263D01*
X55820395Y-34420394D01*
X55799264Y-34446142D01*
X55799256Y-34446150D01*
X55736043Y-34523176D01*
X55673365Y-34640439D01*
X55634767Y-34767677D01*
X55621735Y-34900000D01*
X55625001Y-34933158D01*
X55625001Y-36533996D01*
X54537892Y-35446887D01*
X54549982Y-35441879D01*
X54705578Y-35337913D01*
X54837901Y-35205590D01*
X54941867Y-35049994D01*
X55013480Y-34877105D01*
X55049988Y-34693567D01*
X55049988Y-34506433D01*
X55013480Y-34322895D01*
X54941867Y-34150006D01*
X54837901Y-33994410D01*
X54831498Y-33988007D01*
X54855000Y-33990322D01*
X55070637Y-33969084D01*
X55277987Y-33906184D01*
X55469084Y-33804042D01*
X55636581Y-33666581D01*
X55774042Y-33499084D01*
X55876184Y-33307988D01*
X55939084Y-33100638D01*
X55955000Y-32939036D01*
X55955000Y-32430965D01*
X55955000Y-32430964D01*
X58595000Y-32430964D01*
X58595000Y-32939035D01*
X58610916Y-33100637D01*
X58673816Y-33307987D01*
X58775958Y-33499084D01*
X58913419Y-33666581D01*
X59080916Y-33804042D01*
X59272012Y-33906184D01*
X59479362Y-33969084D01*
X59695000Y-33990322D01*
X59910637Y-33969084D01*
X60117987Y-33906184D01*
X60309084Y-33804042D01*
X60476581Y-33666581D01*
X60614042Y-33499084D01*
X60716184Y-33307988D01*
X60779084Y-33100638D01*
X60795000Y-32939036D01*
X60795000Y-32430965D01*
X60779084Y-32269363D01*
X60716184Y-32062013D01*
X60614042Y-31870916D01*
X60476581Y-31703419D01*
X60309084Y-31565958D01*
X60117988Y-31463816D01*
X59910638Y-31400916D01*
X59695000Y-31379678D01*
X59479363Y-31400916D01*
X59272013Y-31463816D01*
X59080917Y-31565958D01*
X58913420Y-31703419D01*
X58775959Y-31870916D01*
X58673816Y-32062012D01*
X58610916Y-32269362D01*
X58595000Y-32430964D01*
X55955000Y-32430964D01*
X55939084Y-32269363D01*
X55876184Y-32062013D01*
X55774042Y-31870916D01*
X55636581Y-31703419D01*
X55469084Y-31565958D01*
X55277988Y-31463816D01*
X55070638Y-31400916D01*
X54855000Y-31379678D01*
X54639363Y-31400916D01*
X54432013Y-31463816D01*
X54240917Y-31565958D01*
X54073420Y-31703419D01*
X54015197Y-31774364D01*
X54161613Y-31420885D01*
X54236099Y-31046417D01*
X54304858Y-31067275D01*
X54545000Y-31090927D01*
X54785141Y-31067275D01*
X55016054Y-30997228D01*
X55228865Y-30883478D01*
X55415397Y-30730397D01*
X55568478Y-30543866D01*
X55682228Y-30331055D01*
X55752275Y-30100142D01*
X55770000Y-29920178D01*
X55770000Y-29449823D01*
X55752275Y-29269859D01*
X55682228Y-29038946D01*
X55568478Y-28826135D01*
X55567547Y-28825000D01*
X58982454Y-28825000D01*
X58981523Y-28826134D01*
X58867772Y-29038945D01*
X58797725Y-29269858D01*
X58780000Y-29449822D01*
X58780000Y-29920177D01*
X58797725Y-30100141D01*
X58867772Y-30331054D01*
X58981522Y-30543865D01*
X59134603Y-30730397D01*
X59321134Y-30883478D01*
X59533945Y-30997228D01*
X59764858Y-31067275D01*
X60005000Y-31090927D01*
X60245141Y-31067275D01*
X60361056Y-31032112D01*
X60438387Y-31420885D01*
X60611766Y-31839459D01*
X60863473Y-32216165D01*
X61183835Y-32536527D01*
X61560541Y-32788234D01*
X61979115Y-32961613D01*
X62423470Y-33050000D01*
X62876530Y-33050000D01*
X63320885Y-32961613D01*
X63739459Y-32788234D01*
X64116165Y-32536527D01*
X64436527Y-32216165D01*
X64688234Y-31839459D01*
X64861613Y-31420885D01*
X64950000Y-30976530D01*
X64950000Y-30523470D01*
X64861613Y-30079115D01*
X64688234Y-29660541D01*
X64436527Y-29283835D01*
X64116165Y-28963473D01*
X63908926Y-28825000D01*
X65025001Y-28825000D01*
X65025001Y-39625090D01*
X64999690Y-39541651D01*
X64869690Y-39298438D01*
X64694739Y-39085261D01*
X64481562Y-38910310D01*
X64238349Y-38780310D01*
X63974448Y-38700257D01*
X63768777Y-38680000D01*
X63631223Y-38680000D01*
X63425552Y-38700257D01*
X63161651Y-38780310D01*
X62918438Y-38910310D01*
X62705261Y-39085261D01*
X62530310Y-39298438D01*
X62400310Y-39541651D01*
X62355267Y-39690139D01*
X61946143Y-40099263D01*
X61920395Y-40120394D01*
X61899264Y-40146142D01*
X61899256Y-40146150D01*
X61836043Y-40223176D01*
X61773365Y-40340439D01*
X61734767Y-40467677D01*
X61721735Y-40600000D01*
X61725001Y-40633162D01*
X61725000Y-45820406D01*
X61121338Y-46424068D01*
X60334083Y-46424068D01*
X60300931Y-46420803D01*
X60267779Y-46424068D01*
X60267773Y-46424068D01*
X60182431Y-46432474D01*
X60168608Y-46433835D01*
X60138994Y-46442818D01*
X60041371Y-46472432D01*
X59924108Y-46535110D01*
X59821326Y-46619462D01*
X59800186Y-46645221D01*
X59606144Y-46839262D01*
X59580395Y-46860394D01*
X59559264Y-46886142D01*
X59559256Y-46886150D01*
X59496043Y-46963176D01*
X59433365Y-47080439D01*
X59394767Y-47207677D01*
X59389044Y-47265785D01*
X59385000Y-47306841D01*
X59385000Y-47306848D01*
X59381735Y-47340000D01*
X59385000Y-47373152D01*
X59385000Y-47726088D01*
X59382896Y-47726507D01*
X59210007Y-47798120D01*
X59054411Y-47902086D01*
X58922088Y-48034409D01*
X58818122Y-48190005D01*
X58746509Y-48362894D01*
X58710001Y-48546432D01*
X58710001Y-48733566D01*
X58746509Y-48917104D01*
X58818122Y-49089993D01*
X58922088Y-49245589D01*
X59054411Y-49377912D01*
X59210007Y-49481878D01*
X59382896Y-49553491D01*
X59566434Y-49589999D01*
X59753568Y-49589999D01*
X59937106Y-49553491D01*
X60109995Y-49481878D01*
X60265591Y-49377912D01*
X60397914Y-49245589D01*
X60501880Y-49089993D01*
X60573493Y-48917104D01*
X60610001Y-48733566D01*
X60610001Y-48633830D01*
X60623957Y-48616825D01*
X60623958Y-48616824D01*
X60659675Y-48550000D01*
X62297339Y-48550000D01*
X62307958Y-48657819D01*
X62339408Y-48761494D01*
X62390479Y-48857042D01*
X62459210Y-48940790D01*
X62542958Y-49009521D01*
X62638506Y-49060592D01*
X62742181Y-49092042D01*
X62850000Y-49102661D01*
X63437500Y-49100000D01*
X63575000Y-48962500D01*
X63575000Y-47825000D01*
X62437500Y-47825000D01*
X62300000Y-47962500D01*
X62297339Y-48550000D01*
X60659675Y-48550000D01*
X60686636Y-48499561D01*
X60716612Y-48400744D01*
X60725233Y-48372324D01*
X60732283Y-48300744D01*
X60735000Y-48273159D01*
X60735000Y-48273153D01*
X60738265Y-48240001D01*
X60735000Y-48206849D01*
X60735000Y-47774068D01*
X61367780Y-47774068D01*
X61400932Y-47777333D01*
X61434084Y-47774068D01*
X61434091Y-47774068D01*
X61533255Y-47764301D01*
X61660493Y-47725704D01*
X61777756Y-47663026D01*
X61838267Y-47613365D01*
X61854782Y-47599812D01*
X61854784Y-47599810D01*
X61880538Y-47578674D01*
X61901676Y-47552918D01*
X62298724Y-47155870D01*
X62300000Y-47437500D01*
X62437500Y-47575000D01*
X63575000Y-47575000D01*
X63575000Y-47555000D01*
X63825000Y-47555000D01*
X63825000Y-47575000D01*
X63845000Y-47575000D01*
X63845000Y-47825000D01*
X63825000Y-47825000D01*
X63825000Y-48962500D01*
X63962500Y-49100000D01*
X64550000Y-49102661D01*
X64657819Y-49092042D01*
X64761494Y-49060592D01*
X64857042Y-49009521D01*
X64940790Y-48940790D01*
X65009521Y-48857042D01*
X65025001Y-48828081D01*
X65025000Y-103925000D01*
X64950199Y-103925000D01*
X64952661Y-103900000D01*
X64950000Y-102412500D01*
X64812500Y-102275000D01*
X62775000Y-102275000D01*
X62775000Y-102295000D01*
X62525000Y-102295000D01*
X62525000Y-102275000D01*
X60487500Y-102275000D01*
X60350000Y-102412500D01*
X60347339Y-103900000D01*
X60349801Y-103925000D01*
X54250199Y-103925000D01*
X54252661Y-103900000D01*
X54250000Y-102412500D01*
X54112500Y-102275000D01*
X52075000Y-102275000D01*
X52075000Y-102295000D01*
X51825000Y-102295000D01*
X51825000Y-102275000D01*
X49787500Y-102275000D01*
X49650000Y-102412500D01*
X49647339Y-103900000D01*
X49649801Y-103925000D01*
X43750199Y-103925000D01*
X43752661Y-103900000D01*
X43750000Y-102412500D01*
X43612500Y-102275000D01*
X41575000Y-102275000D01*
X41575000Y-102295000D01*
X41325000Y-102295000D01*
X41325000Y-102275000D01*
X39287500Y-102275000D01*
X39150000Y-102412500D01*
X39147339Y-103900000D01*
X39149801Y-103925000D01*
X39075000Y-103925000D01*
X39075000Y-100400000D01*
X39147339Y-100400000D01*
X39150000Y-101887500D01*
X39287500Y-102025000D01*
X41325000Y-102025000D01*
X41325000Y-99987500D01*
X41575000Y-99987500D01*
X41575000Y-102025000D01*
X43612500Y-102025000D01*
X43750000Y-101887500D01*
X43752661Y-100400000D01*
X49647339Y-100400000D01*
X49650000Y-101887500D01*
X49787500Y-102025000D01*
X51825000Y-102025000D01*
X51825000Y-99987500D01*
X51687500Y-99850000D01*
X50200000Y-99847339D01*
X50092181Y-99857958D01*
X49988506Y-99889408D01*
X49892958Y-99940479D01*
X49809210Y-100009210D01*
X49740479Y-100092958D01*
X49689408Y-100188506D01*
X49657958Y-100292181D01*
X49647339Y-100400000D01*
X43752661Y-100400000D01*
X43742042Y-100292181D01*
X43710592Y-100188506D01*
X43659521Y-100092958D01*
X43590790Y-100009210D01*
X43507042Y-99940479D01*
X43411494Y-99889408D01*
X43307819Y-99857958D01*
X43200000Y-99847339D01*
X41712500Y-99850000D01*
X41575000Y-99987500D01*
X41325000Y-99987500D01*
X41187500Y-99850000D01*
X39700000Y-99847339D01*
X39592181Y-99857958D01*
X39488506Y-99889408D01*
X39392958Y-99940479D01*
X39309210Y-100009210D01*
X39240479Y-100092958D01*
X39189408Y-100188506D01*
X39157958Y-100292181D01*
X39147339Y-100400000D01*
X39075000Y-100400000D01*
X39075000Y-68406433D01*
X44150000Y-68406433D01*
X44150000Y-68593567D01*
X44186508Y-68777105D01*
X44258121Y-68949994D01*
X44362087Y-69105590D01*
X44425000Y-69168503D01*
X44425001Y-71203587D01*
X44421735Y-71236749D01*
X44434767Y-71369072D01*
X44473365Y-71496310D01*
X44536043Y-71613573D01*
X44599256Y-71690599D01*
X44599264Y-71690607D01*
X44620395Y-71716355D01*
X44646143Y-71737486D01*
X47121126Y-74212469D01*
X47121126Y-74301442D01*
X47157634Y-74484980D01*
X47229247Y-74657869D01*
X47333213Y-74813465D01*
X47465536Y-74945788D01*
X47621132Y-75049754D01*
X47794021Y-75121367D01*
X47977559Y-75157875D01*
X48164693Y-75157875D01*
X48230730Y-75144739D01*
X48200310Y-75201651D01*
X48120257Y-75465552D01*
X48093226Y-75740000D01*
X48120257Y-76014448D01*
X48200310Y-76278349D01*
X48330310Y-76521562D01*
X48505261Y-76734739D01*
X48718438Y-76909690D01*
X48906105Y-77010000D01*
X48718438Y-77110310D01*
X48505261Y-77285261D01*
X48330310Y-77498438D01*
X48200310Y-77741651D01*
X48120257Y-78005552D01*
X48093226Y-78280000D01*
X48120257Y-78554448D01*
X48200310Y-78818349D01*
X48330310Y-79061562D01*
X48505261Y-79274739D01*
X48718438Y-79449690D01*
X48961651Y-79579690D01*
X49225552Y-79659743D01*
X49431223Y-79680000D01*
X49568777Y-79680000D01*
X49774448Y-79659743D01*
X50038349Y-79579690D01*
X50281562Y-79449690D01*
X50494739Y-79274739D01*
X50669690Y-79061562D01*
X50799690Y-78818349D01*
X50879743Y-78554448D01*
X50906774Y-78280000D01*
X50879743Y-78005552D01*
X50799690Y-77741651D01*
X50669690Y-77498438D01*
X50494739Y-77285261D01*
X50281562Y-77110310D01*
X50093895Y-77010000D01*
X50281562Y-76909690D01*
X50494739Y-76734739D01*
X50669690Y-76521562D01*
X50799690Y-76278349D01*
X50879743Y-76014448D01*
X50906774Y-75740000D01*
X50879743Y-75465552D01*
X50844668Y-75349926D01*
X51319595Y-74875000D01*
X51425000Y-74875000D01*
X51425001Y-83525000D01*
X51203151Y-83525000D01*
X51169999Y-83521735D01*
X51136847Y-83525000D01*
X51136841Y-83525000D01*
X51051499Y-83533406D01*
X51037676Y-83534767D01*
X50999079Y-83546476D01*
X50910439Y-83573364D01*
X50902661Y-83577521D01*
X50902661Y-82450000D01*
X50892042Y-82342181D01*
X50860592Y-82238506D01*
X50809521Y-82142958D01*
X50740790Y-82059210D01*
X50657042Y-81990479D01*
X50561494Y-81939408D01*
X50457819Y-81907958D01*
X50350000Y-81897339D01*
X48650000Y-81897339D01*
X48542181Y-81907958D01*
X48438506Y-81939408D01*
X48342958Y-81990479D01*
X48259210Y-82059210D01*
X48190479Y-82142958D01*
X48139408Y-82238506D01*
X48107958Y-82342181D01*
X48097339Y-82450000D01*
X48097339Y-84150000D01*
X48107958Y-84257819D01*
X48139408Y-84361494D01*
X48190479Y-84457042D01*
X48259210Y-84540790D01*
X48342958Y-84609521D01*
X48438506Y-84660592D01*
X48542181Y-84692042D01*
X48650000Y-84702661D01*
X48679018Y-84702661D01*
X48505261Y-84845261D01*
X48330310Y-85058438D01*
X48200310Y-85301651D01*
X48120257Y-85565552D01*
X48093226Y-85840000D01*
X48120257Y-86114448D01*
X48200310Y-86378349D01*
X48330310Y-86621562D01*
X48505261Y-86834739D01*
X48718438Y-87009690D01*
X48906105Y-87110000D01*
X48718438Y-87210310D01*
X48505261Y-87385261D01*
X48330310Y-87598438D01*
X48200310Y-87841651D01*
X48120257Y-88105552D01*
X48093226Y-88380000D01*
X48120257Y-88654448D01*
X48200310Y-88918349D01*
X48330310Y-89161562D01*
X48505261Y-89374739D01*
X48718438Y-89549690D01*
X48961651Y-89679690D01*
X49225552Y-89759743D01*
X49431223Y-89780000D01*
X49568777Y-89780000D01*
X49774448Y-89759743D01*
X50038349Y-89679690D01*
X50281562Y-89549690D01*
X50494739Y-89374739D01*
X50669690Y-89161562D01*
X50799690Y-88918349D01*
X50879743Y-88654448D01*
X50906774Y-88380000D01*
X50879743Y-88105552D01*
X50799690Y-87841651D01*
X50669690Y-87598438D01*
X50494739Y-87385261D01*
X50281562Y-87210310D01*
X50093895Y-87110000D01*
X50281562Y-87009690D01*
X50494739Y-86834739D01*
X50669690Y-86621562D01*
X50799690Y-86378349D01*
X50879743Y-86114448D01*
X50906774Y-85840000D01*
X50879743Y-85565552D01*
X50851651Y-85472943D01*
X51425000Y-84899594D01*
X51425001Y-93525000D01*
X51273151Y-93525000D01*
X51239999Y-93521735D01*
X51206847Y-93525000D01*
X51206841Y-93525000D01*
X51121499Y-93533406D01*
X51107676Y-93534767D01*
X51069079Y-93546476D01*
X50980439Y-93573364D01*
X50902661Y-93614937D01*
X50902661Y-92550000D01*
X50892042Y-92442181D01*
X50860592Y-92338506D01*
X50809521Y-92242958D01*
X50740790Y-92159210D01*
X50657042Y-92090479D01*
X50561494Y-92039408D01*
X50457819Y-92007958D01*
X50350000Y-91997339D01*
X48650000Y-91997339D01*
X48542181Y-92007958D01*
X48438506Y-92039408D01*
X48342958Y-92090479D01*
X48259210Y-92159210D01*
X48190479Y-92242958D01*
X48139408Y-92338506D01*
X48107958Y-92442181D01*
X48097339Y-92550000D01*
X48097339Y-94250000D01*
X48107958Y-94357819D01*
X48139408Y-94461494D01*
X48190479Y-94557042D01*
X48259210Y-94640790D01*
X48342958Y-94709521D01*
X48438506Y-94760592D01*
X48542181Y-94792042D01*
X48650000Y-94802661D01*
X48679018Y-94802661D01*
X48505261Y-94945261D01*
X48330310Y-95158438D01*
X48200310Y-95401651D01*
X48120257Y-95665552D01*
X48093226Y-95940000D01*
X48120257Y-96214448D01*
X48200310Y-96478349D01*
X48330310Y-96721562D01*
X48505261Y-96934739D01*
X48718438Y-97109690D01*
X48906105Y-97210000D01*
X48718438Y-97310310D01*
X48505261Y-97485261D01*
X48330310Y-97698438D01*
X48200310Y-97941651D01*
X48120257Y-98205552D01*
X48093226Y-98480000D01*
X48120257Y-98754448D01*
X48200310Y-99018349D01*
X48330310Y-99261562D01*
X48505261Y-99474739D01*
X48718438Y-99649690D01*
X48961651Y-99779690D01*
X49225552Y-99859743D01*
X49431223Y-99880000D01*
X49568777Y-99880000D01*
X49774448Y-99859743D01*
X50038349Y-99779690D01*
X50281562Y-99649690D01*
X50494739Y-99474739D01*
X50669690Y-99261562D01*
X50799690Y-99018349D01*
X50879743Y-98754448D01*
X50906774Y-98480000D01*
X50879743Y-98205552D01*
X50799690Y-97941651D01*
X50669690Y-97698438D01*
X50494739Y-97485261D01*
X50281562Y-97310310D01*
X50093895Y-97210000D01*
X50281562Y-97109690D01*
X50494739Y-96934739D01*
X50669690Y-96721562D01*
X50799690Y-96478349D01*
X50879743Y-96214448D01*
X50906774Y-95940000D01*
X50879743Y-95665552D01*
X50844668Y-95549926D01*
X51519594Y-94875000D01*
X52066841Y-94875000D01*
X52100000Y-94878266D01*
X52133159Y-94875000D01*
X52610406Y-94875000D01*
X53255332Y-95519926D01*
X53220257Y-95635552D01*
X53193226Y-95910000D01*
X53220257Y-96184448D01*
X53300310Y-96448349D01*
X53430310Y-96691562D01*
X53605261Y-96904739D01*
X53779018Y-97047339D01*
X53750000Y-97047339D01*
X53642181Y-97057958D01*
X53538506Y-97089408D01*
X53442958Y-97140479D01*
X53359210Y-97209210D01*
X53290479Y-97292958D01*
X53239408Y-97388506D01*
X53207958Y-97492181D01*
X53197339Y-97600000D01*
X53197339Y-99300000D01*
X53207958Y-99407819D01*
X53239408Y-99511494D01*
X53290479Y-99607042D01*
X53359210Y-99690790D01*
X53442958Y-99759521D01*
X53538506Y-99810592D01*
X53642181Y-99842042D01*
X53696036Y-99847346D01*
X52212500Y-99850000D01*
X52075000Y-99987500D01*
X52075000Y-102025000D01*
X54112500Y-102025000D01*
X54250000Y-101887500D01*
X54252661Y-100400000D01*
X60347339Y-100400000D01*
X60350000Y-101887500D01*
X60487500Y-102025000D01*
X62525000Y-102025000D01*
X62525000Y-99987500D01*
X62775000Y-99987500D01*
X62775000Y-102025000D01*
X64812500Y-102025000D01*
X64950000Y-101887500D01*
X64952661Y-100400000D01*
X64942042Y-100292181D01*
X64910592Y-100188506D01*
X64859521Y-100092958D01*
X64790790Y-100009210D01*
X64707042Y-99940479D01*
X64611494Y-99889408D01*
X64507819Y-99857958D01*
X64400000Y-99847339D01*
X62912500Y-99850000D01*
X62775000Y-99987500D01*
X62525000Y-99987500D01*
X62387500Y-99850000D01*
X60900000Y-99847339D01*
X60792181Y-99857958D01*
X60688506Y-99889408D01*
X60592958Y-99940479D01*
X60509210Y-100009210D01*
X60440479Y-100092958D01*
X60389408Y-100188506D01*
X60357958Y-100292181D01*
X60347339Y-100400000D01*
X54252661Y-100400000D01*
X54242042Y-100292181D01*
X54210592Y-100188506D01*
X54159521Y-100092958D01*
X54090790Y-100009210D01*
X54007042Y-99940479D01*
X53911494Y-99889408D01*
X53807819Y-99857958D01*
X53754036Y-99852661D01*
X55450000Y-99852661D01*
X55557819Y-99842042D01*
X55661494Y-99810592D01*
X55757042Y-99759521D01*
X55840790Y-99690790D01*
X55909521Y-99607042D01*
X55960592Y-99511494D01*
X55992042Y-99407819D01*
X56002661Y-99300000D01*
X56002661Y-97600000D01*
X55992042Y-97492181D01*
X55960592Y-97388506D01*
X55909521Y-97292958D01*
X55840790Y-97209210D01*
X55757042Y-97140479D01*
X55661494Y-97089408D01*
X55557819Y-97057958D01*
X55450000Y-97047339D01*
X55420982Y-97047339D01*
X55594739Y-96904739D01*
X55769690Y-96691562D01*
X55899690Y-96448349D01*
X55979743Y-96184448D01*
X56006774Y-95910000D01*
X55979743Y-95635552D01*
X55899690Y-95371651D01*
X55769690Y-95128438D01*
X55594739Y-94915261D01*
X55381562Y-94740310D01*
X55193895Y-94640000D01*
X55381562Y-94539690D01*
X55594739Y-94364739D01*
X55769690Y-94151562D01*
X55899690Y-93908349D01*
X55979743Y-93644448D01*
X56006774Y-93370000D01*
X55979743Y-93095552D01*
X55899690Y-92831651D01*
X55769690Y-92588438D01*
X55594739Y-92375261D01*
X55381562Y-92200310D01*
X55138349Y-92070310D01*
X54874448Y-91990257D01*
X54668777Y-91970000D01*
X54531223Y-91970000D01*
X54325552Y-91990257D01*
X54061651Y-92070310D01*
X53818438Y-92200310D01*
X53605261Y-92375261D01*
X53430310Y-92588438D01*
X53300310Y-92831651D01*
X53220257Y-93095552D01*
X53193226Y-93370000D01*
X53216795Y-93609301D01*
X53149561Y-93573364D01*
X53022323Y-93534767D01*
X52923159Y-93525000D01*
X52923152Y-93525000D01*
X52890000Y-93521735D01*
X52856848Y-93525000D01*
X52775000Y-93525000D01*
X52775000Y-84929594D01*
X53257845Y-85412439D01*
X53220257Y-85536352D01*
X53193226Y-85810800D01*
X53220257Y-86085248D01*
X53300310Y-86349149D01*
X53430310Y-86592362D01*
X53605261Y-86805539D01*
X53779018Y-86948139D01*
X53750000Y-86948139D01*
X53642181Y-86958758D01*
X53538506Y-86990208D01*
X53442958Y-87041279D01*
X53359210Y-87110010D01*
X53290479Y-87193758D01*
X53239408Y-87289306D01*
X53207958Y-87392981D01*
X53197339Y-87500800D01*
X53197339Y-89200800D01*
X53207958Y-89308619D01*
X53239408Y-89412294D01*
X53290479Y-89507842D01*
X53359210Y-89591590D01*
X53442958Y-89660321D01*
X53538506Y-89711392D01*
X53642181Y-89742842D01*
X53750000Y-89753461D01*
X55450000Y-89753461D01*
X55557819Y-89742842D01*
X55661494Y-89711392D01*
X55757042Y-89660321D01*
X55840790Y-89591590D01*
X55909521Y-89507842D01*
X55960592Y-89412294D01*
X55992042Y-89308619D01*
X56002661Y-89200800D01*
X56002661Y-87500800D01*
X55992042Y-87392981D01*
X55960592Y-87289306D01*
X55909521Y-87193758D01*
X55840790Y-87110010D01*
X55757042Y-87041279D01*
X55661494Y-86990208D01*
X55557819Y-86958758D01*
X55450000Y-86948139D01*
X55420982Y-86948139D01*
X55594739Y-86805539D01*
X55769690Y-86592362D01*
X55899690Y-86349149D01*
X55979743Y-86085248D01*
X56006774Y-85810800D01*
X55979743Y-85536352D01*
X55899690Y-85272451D01*
X55769690Y-85029238D01*
X55594739Y-84816061D01*
X55381562Y-84641110D01*
X55193895Y-84540800D01*
X55381562Y-84440490D01*
X55594739Y-84265539D01*
X55769690Y-84052362D01*
X55899690Y-83809149D01*
X55979743Y-83545248D01*
X56006774Y-83270800D01*
X55979743Y-82996352D01*
X55899690Y-82732451D01*
X55769690Y-82489238D01*
X55594739Y-82276061D01*
X55381562Y-82101110D01*
X55138349Y-81971110D01*
X54874448Y-81891057D01*
X54668777Y-81870800D01*
X54531223Y-81870800D01*
X54325552Y-81891057D01*
X54061651Y-81971110D01*
X53818438Y-82101110D01*
X53605261Y-82276061D01*
X53430310Y-82489238D01*
X53300310Y-82732451D01*
X53220257Y-82996352D01*
X53193226Y-83270800D01*
X53220257Y-83545248D01*
X53225667Y-83563082D01*
X53132323Y-83534767D01*
X53033159Y-83525000D01*
X53033152Y-83525000D01*
X53000000Y-83521735D01*
X52966848Y-83525000D01*
X52775000Y-83525000D01*
X52775000Y-74875000D01*
X52810406Y-74875000D01*
X53255332Y-75319926D01*
X53220257Y-75435552D01*
X53193226Y-75710000D01*
X53220257Y-75984448D01*
X53300310Y-76248349D01*
X53430310Y-76491562D01*
X53605261Y-76704739D01*
X53779018Y-76847339D01*
X53750000Y-76847339D01*
X53642181Y-76857958D01*
X53538506Y-76889408D01*
X53442958Y-76940479D01*
X53359210Y-77009210D01*
X53290479Y-77092958D01*
X53239408Y-77188506D01*
X53207958Y-77292181D01*
X53197339Y-77400000D01*
X53197339Y-79100000D01*
X53207958Y-79207819D01*
X53239408Y-79311494D01*
X53290479Y-79407042D01*
X53359210Y-79490790D01*
X53442958Y-79559521D01*
X53538506Y-79610592D01*
X53642181Y-79642042D01*
X53750000Y-79652661D01*
X55450000Y-79652661D01*
X55557819Y-79642042D01*
X55661494Y-79610592D01*
X55757042Y-79559521D01*
X55840790Y-79490790D01*
X55909521Y-79407042D01*
X55960592Y-79311494D01*
X55992042Y-79207819D01*
X56002661Y-79100000D01*
X56002661Y-77400000D01*
X55992042Y-77292181D01*
X55960592Y-77188506D01*
X55909521Y-77092958D01*
X55840790Y-77009210D01*
X55757042Y-76940479D01*
X55661494Y-76889408D01*
X55557819Y-76857958D01*
X55450000Y-76847339D01*
X55420982Y-76847339D01*
X55594739Y-76704739D01*
X55769690Y-76491562D01*
X55899690Y-76248349D01*
X55979743Y-75984448D01*
X56006774Y-75710000D01*
X55979743Y-75435552D01*
X55899690Y-75171651D01*
X55769690Y-74928438D01*
X55594739Y-74715261D01*
X55381562Y-74540310D01*
X55193895Y-74440000D01*
X55381562Y-74339690D01*
X55594739Y-74164739D01*
X55769690Y-73951562D01*
X55899690Y-73708349D01*
X55979743Y-73444448D01*
X56006774Y-73170000D01*
X55979743Y-72895552D01*
X55899690Y-72631651D01*
X55769690Y-72388438D01*
X55594739Y-72175261D01*
X55381562Y-72000310D01*
X55138349Y-71870310D01*
X54874448Y-71790257D01*
X54668777Y-71770000D01*
X54531223Y-71770000D01*
X54325552Y-71790257D01*
X54061651Y-71870310D01*
X53818438Y-72000310D01*
X53605261Y-72175261D01*
X53430310Y-72388438D01*
X53300310Y-72631651D01*
X53220257Y-72895552D01*
X53193226Y-73170000D01*
X53220257Y-73444448D01*
X53250222Y-73543230D01*
X53222323Y-73534767D01*
X53123159Y-73525000D01*
X53123152Y-73525000D01*
X53090000Y-73521735D01*
X53056848Y-73525000D01*
X52775000Y-73525000D01*
X52775000Y-69579594D01*
X53779595Y-68575000D01*
X58431473Y-68575000D01*
X58494386Y-68637913D01*
X58649982Y-68741879D01*
X58822871Y-68813492D01*
X59006409Y-68850000D01*
X59193543Y-68850000D01*
X59377081Y-68813492D01*
X59549970Y-68741879D01*
X59705566Y-68637913D01*
X59837889Y-68505590D01*
X59941855Y-68349994D01*
X60013468Y-68177105D01*
X60049976Y-67993567D01*
X60049976Y-67806433D01*
X60013468Y-67622895D01*
X59941855Y-67450006D01*
X59837889Y-67294410D01*
X59705566Y-67162087D01*
X59549970Y-67058121D01*
X59377081Y-66986508D01*
X59193543Y-66950000D01*
X59006409Y-66950000D01*
X58822871Y-66986508D01*
X58649982Y-67058121D01*
X58494386Y-67162087D01*
X58431473Y-67225000D01*
X53533152Y-67225000D01*
X53500000Y-67221735D01*
X53466848Y-67225000D01*
X53466841Y-67225000D01*
X53380192Y-67233534D01*
X53367676Y-67234767D01*
X53329079Y-67246476D01*
X53240439Y-67273364D01*
X53123176Y-67336042D01*
X53123174Y-67336043D01*
X53123175Y-67336043D01*
X53046149Y-67399256D01*
X53046142Y-67399263D01*
X53020394Y-67420394D01*
X52999262Y-67446143D01*
X51646143Y-68799263D01*
X51620395Y-68820394D01*
X51599264Y-68846142D01*
X51599256Y-68846150D01*
X51536043Y-68923176D01*
X51473365Y-69040439D01*
X51434767Y-69167677D01*
X51421735Y-69300000D01*
X51425001Y-69333162D01*
X51425000Y-73525000D01*
X51073152Y-73525000D01*
X51040000Y-73521735D01*
X51006848Y-73525000D01*
X51006841Y-73525000D01*
X50920192Y-73533534D01*
X50907676Y-73534767D01*
X50902661Y-73536288D01*
X50902661Y-72350000D01*
X50892042Y-72242181D01*
X50860592Y-72138506D01*
X50809521Y-72042958D01*
X50740790Y-71959210D01*
X50657042Y-71890479D01*
X50561494Y-71839408D01*
X50457819Y-71807958D01*
X50350000Y-71797339D01*
X48650000Y-71797339D01*
X48542181Y-71807958D01*
X48438506Y-71839408D01*
X48342958Y-71890479D01*
X48259210Y-71959210D01*
X48190479Y-72042958D01*
X48139408Y-72138506D01*
X48107958Y-72242181D01*
X48097339Y-72350000D01*
X48097339Y-73257875D01*
X48075720Y-73257875D01*
X45775000Y-70957155D01*
X45775000Y-69168503D01*
X45837913Y-69105590D01*
X45941879Y-68949994D01*
X46013492Y-68777105D01*
X46050000Y-68593567D01*
X46050000Y-68406433D01*
X46013492Y-68222895D01*
X45941879Y-68050006D01*
X45837913Y-67894410D01*
X45705590Y-67762087D01*
X45549994Y-67658121D01*
X45377105Y-67586508D01*
X45193567Y-67550000D01*
X45006433Y-67550000D01*
X44822895Y-67586508D01*
X44650006Y-67658121D01*
X44494410Y-67762087D01*
X44362087Y-67894410D01*
X44258121Y-68050006D01*
X44186508Y-68222895D01*
X44150000Y-68406433D01*
X39075000Y-68406433D01*
X39075000Y-28825000D01*
X40191074Y-28825000D01*
X39983835Y-28963473D01*
M02*
